P3
16 16
255
0   0   0   0   0   0   0   0   0   0   0   0   0   0   0   0   0   0   255 0   246 255 0   246 255 0   246 255 0   246 0   0   0   0   0   0   0   0   0   0   0   0   0   0   0   0   0   0   
0   0   0   0   0   0   0   0   0   0   0   0   255 0   246 255 0   246 0   0   0   0   0   0   0   0   0   0   0   0   255 0   246 255 0   246 0   0   0   0   0   0   0   0   0   0   0   0   
0   0   0   0   0   0   0   0   0   255 0   246 0   0   0   0   0   0   0   0   0   0   0   0   0   0   0   0   0   0   0   0   0   0   0   0   255 0   246 0   0   0   0   0   0   0   0   0   
0   0   0   0   0   0   255 0   246 0   0   0   0   0   0   0   0   0   0   0   0   0   0   0   0   0   0   0   0   0   0   0   0   0   0   0   0   0   0   255 0   246 0   0   0   0   0   0   
0   0   0   255 0   246 0   0   0   0   0   0   0   0   0   0   0   0   0   0   0   0   0   0   0   0   0   0   0   0   0   0   0   0   0   0   0   0   0   0   0   0   255 0   246 0   0   0   
0   0   0   255 0   246 0   0   0   0   0   0   0   0   0   0   0   0   0   0   0   0   0   0   0   0   0   0   0   0   0   0   0   0   0   0   0   0   0   0   0   0   255 0   246 0   0   0   
255 0   246 0   0   0   0   0   0   0   0   0   0   0   0   0   0   0   0   0   0   0   0   0   0   0   0   0   0   0   0   0   0   0   0   0   0   0   0   0   0   0   0   0   0   255 0   246 
255 0   246 0   0   0   0   0   0   0   0   0   0   0   0   0   0   0   0   0   0   0   0   0   0   0   0   0   0   0   0   0   0   0   0   0   0   0   0   0   0   0   0   0   0   255 0   246 
255 0   246 0   0   0   0   0   0   0   0   0   0   0   0   0   0   0   0   0   0   0   0   0   0   0   0   0   0   0   0   0   0   0   0   0   0   0   0   0   0   0   0   0   0   255 0   246 
255 0   246 0   0   0   0   0   0   0   0   0   0   0   0   0   0   0   0   0   0   0   0   0   0   0   0   0   0   0   0   0   0   0   0   0   0   0   0   0   0   0   0   0   0   255 0   246 
0   0   0   255 0   246 0   0   0   0   0   0   0   0   0   0   0   0   0   0   0   0   0   0   0   0   0   0   0   0   0   0   0   0   0   0   0   0   0   0   0   0   255 0   246 0   0   0   
0   0   0   255 0   246 0   0   0   0   0   0   0   0   0   0   0   0   0   0   0   0   0   0   0   0   0   0   0   0   0   0   0   0   0   0   0   0   0   0   0   0   255 0   246 0   0   0   
0   0   0   0   0   0   255 0   246 0   0   0   0   0   0   0   0   0   0   0   0   0   0   0   0   0   0   0   0   0   0   0   0   0   0   0   0   0   0   255 0   246 0   0   0   0   0   0   
0   0   0   0   0   0   0   0   0   255 0   246 0   0   0   0   0   0   0   0   0   0   0   0   0   0   0   0   0   0   0   0   0   0   0   0   255 0   246 0   0   0   0   0   0   0   0   0   
0   0   0   0   0   0   0   0   0   0   0   0   255 0   246 255 0   246 0   0   0   0   0   0   0   0   0   0   0   0   255 0   246 255 0   246 0   0   0   0   0   0   0   0   0   0   0   0   
0   0   0   0   0   0   0   0   0   0   0   0   0   0   0   0   0   0   255 0   246 255 0   246 255 0   246 255 0   246 0   0   0   0   0   0   0   0   0   0   0   0   0   0   0   0   0   0   
