P3
48 8
255
0   0   0   128 52  49  128 52  49  128 52  49  128 52  49  128 52  49  0   0   0   0   0   0   0   0   0   128 52  49  128 52  49  128 52  49  128 52  49  128 52  49  0   0   0   0   0   0   0   0   0   128 52  49  128 52  49  128 52  49  128 52  49  128 52  49  0   0   0   0   0   0   0   0   0   128 52  49  128 52  49  128 52  49  128 52  49  128 52  49  0   0   0   0   0   0   0   0   0   128 52  49  128 52  49  128 52  49  128 52  49  128 52  49  0   0   0   0   0   0   0   0   0   128 52  49  128 52  49  128 52  49  128 52  49  128 52  49  0   0   0   0   0   0   
128 52  49  16  37  47  16  37  47  16  37  47  155 60  55  141 57  52  128 52  49  0   0   0   128 52  49  16  37  47  16  37  47  16  37  47  155 60  55  141 57  52  128 52  49  0   0   0   128 52  49  16  37  47  16  37  47  16  37  47  155 60  55  141 57  52  128 52  49  0   0   0   128 52  49  16  37  47  16  37  47  16  37  47  155 60  55  141 57  52  128 52  49  0   0   0   128 52  49  16  37  47  16  37  47  16  37  47  155 60  55  141 57  52  128 52  49  0   0   0   128 52  49  16  37  47  16  37  47  16  37  47  155 60  55  141 57  52  128 52  49  0   0   0   
128 52  49  196 215 165 16  37  47  196 215 165 16  37  47  155 60  55  141 57  52  128 52  49  128 52  49  196 215 165 16  37  47  196 215 165 16  37  47  155 60  55  141 57  52  128 52  49  128 52  49  196 215 165 16  37  47  196 215 165 16  37  47  155 60  55  141 57  52  128 52  49  128 52  49  196 215 165 16  37  47  196 215 165 16  37  47  155 60  55  141 57  52  128 52  49  128 52  49  196 215 165 16  37  47  196 215 165 16  37  47  155 60  55  141 57  52  128 52  49  128 52  49  196 215 165 16  37  47  196 215 165 16  37  47  155 60  55  141 57  52  128 52  49  
128 52  49  16  37  47  16  37  47  16  37  47  16  37  47  155 60  55  0   0   0   0   0   0   128 52  49  16  37  47  16  37  47  16  37  47  16  37  47  155 60  55  0   0   0   0   0   0   128 52  49  16  37  47  16  37  47  16  37  47  16  37  47  155 60  55  0   0   0   0   0   0   128 52  49  16  37  47  16  37  47  16  37  47  16  37  47  155 60  55  0   0   0   0   0   0   128 52  49  16  37  47  16  37  47  16  37  47  16  37  47  155 60  55  0   0   0   0   0   0   128 52  49  16  37  47  16  37  47  16  37  47  16  37  47  155 60  55  0   0   0   0   0   0   
0   0   0   155 60  55  16  37  47  16  37  47  155 60  55  155 60  55  128 52  49  0   0   0   0   0   0   155 60  55  16  37  47  16  37  47  155 60  55  155 60  55  128 52  49  0   0   0   0   0   0   155 60  55  16  37  47  16  37  47  155 60  55  155 60  55  128 52  49  0   0   0   0   0   0   155 60  55  16  37  47  16  37  47  155 60  55  155 60  55  128 52  49  0   0   0   0   0   0   155 60  55  16  37  47  16  37  47  155 60  55  155 60  55  128 52  49  0   0   0   0   0   0   155 60  55  16  37  47  16  37  47  155 60  55  155 60  55  128 52  49  0   0   0   
0   0   0   189 91  86  155 60  55  155 60  55  155 60  55  189 91  86  155 60  55  128 52  49  0   0   0   189 91  86  189 91  86  155 60  55  155 60  55  155 60  55  189 91  86  128 52  49  0   0   0   155 60  55  189 91  86  189 91  86  155 60  55  155 60  55  189 91  86  128 52  49  0   0   0   155 60  55  155 60  55  189 91  86  171 74  69  155 60  55  189 91  86  128 52  49  0   0   0   155 60  55  155 60  55  155 60  55  171 74  69  171 74  69  189 91  86  128 52  49  0   0   0   155 60  55  155 60  55  155 60  55  155 60  55  189 91  86  189 91  86  154 65  62  
0   0   0   0   0   0   189 91  86  155 60  55  189 91  86  189 91  86  0   0   0   0   0   0   0   0   0   0   0   0   0   0   0   189 91  86  155 60  55  171 74  69  189 91  86  0   0   0   0   0   0   189 91  86  0   0   0   0   0   0   171 74  69  155 60  55  171 74  69  189 91  86  0   0   0   189 91  86  189 91  86  0   0   0   0   0   0   171 74  69  171 74  69  189 91  86  0   0   0   189 91  86  155 60  55  189 91  86  0   0   0   0   0   0   171 74  69  171 74  69  0   0   0   189 91  86  155 60  55  155 60  55  171 74  69  0   0   0   0   0   0   0   0   0   
0   0   0   0   0   0   0   0   0   189 91  86  155 60  55  0   0   0   0   0   0   0   0   0   0   0   0   0   0   0   0   0   0   0   0   0   171 74  69  0   0   0   0   0   0   0   0   0   0   0   0   0   0   0   0   0   0   0   0   0   0   0   0   0   0   0   0   0   0   0   0   0   0   0   0   0   0   0   0   0   0   0   0   0   0   0   0   0   0   0   0   0   0   0   0   0   0   0   0   0   0   0   189 91  86  0   0   0   0   0   0   0   0   0   0   0   0   0   0   0   0   0   0   0   0   0   189 91  86  189 91  86  0   0   0   0   0   0   0   0   0   0   0   0   
