P3
8 8
255
0   0   0   0   0   0   0   0   0   228 28  28  228 28  28  0   0   0   0   0   0   0   0   0   
0   0   0   0   0   0   0   0   0   228 28  28  228 28  28  0   0   0   0   0   0   0   0   0   
0   0   0   0   0   0   0   0   0   228 28  28  228 28  28  0   0   0   0   0   0   0   0   0   
0   0   0   0   0   0   0   0   0   228 28  28  228 28  28  0   0   0   0   0   0   0   0   0   
0   0   0   0   0   0   0   0   0   228 28  28  228 28  28  0   0   0   0   0   0   0   0   0   
0   0   0   0   0   0   0   0   0   228 28  28  228 28  28  0   0   0   0   0   0   0   0   0   
0   0   0   0   0   0   0   0   0   228 28  28  228 28  28  0   0   0   0   0   0   0   0   0   
0   0   0   0   0   0   0   0   0   228 28  28  228 28  28  0   0   0   0   0   0   0   0   0   
