P3
7 14
255
0   0   0   0   0   0   0   0   0   0   0   0   0   0   0   241 250 255 122 171 193 
0   0   0   0   0   0   0   0   0   0   0   0   241 250 255 122 171 193 156 198 217 
0   0   0   0   0   0   0   0   0   241 250 255 122 171 193 141 186 207 108 161 185 
0   0   0   0   0   0   241 250 255 122 171 193 141 186 207 87  141 167 79  132 158 
0   0   0   241 250 255 122 171 193 156 198 217 87  141 167 122 171 193 69  117 141 
241 250 255 122 171 193 156 198 217 122 171 193 141 186 207 69  117 141 122 171 193 
241 250 255 87  141 167 69  117 141 87  141 167 122 171 193 87  141 167 50  93  114 
241 250 255 141 186 207 87  141 167 69  117 141 87  141 167 38  81  101 69  117 141 
241 250 255 87  141 167 69  117 141 50  93  114 69  117 141 50  93  114 38  81  101 
241 250 255 69  117 141 87  141 167 69  117 141 38  81  101 50  93  114 0   0   0   
241 250 255 50  93  114 69  117 141 38  81  101 38  81  101 0   0   0   0   0   0   
241 250 255 38  81  101 38  81  101 50  93  114 0   0   0   0   0   0   0   0   0   
241 250 255 50  93  114 38  81  101 0   0   0   0   0   0   0   0   0   0   0   0   
194 224 237 38  81  101 0   0   0   0   0   0   0   0   0   0   0   0   0   0   0   
