P3
8 8
255
0   0   0   194 224 237 0   0   0   0   0   0   0   0   0   0   0   0   0   0   0   0   0   0   
194 224 237 56  107 132 194 224 237 0   0   0   0   0   0   0   0   0   0   0   0   0   0   0   
0   0   0   194 224 237 50  93  114 194 224 237 0   0   0   0   0   0   0   0   0   0   0   0   
0   0   0   0   0   0   194 224 237 38  81  101 194 224 237 0   0   0   0   0   0   0   0   0   
0   0   0   0   0   0   0   0   0   194 224 237 38  81  101 194 224 237 0   0   0   0   0   0   
0   0   0   0   0   0   0   0   0   0   0   0   194 224 237 50  93  114 194 224 237 0   0   0   
0   0   0   0   0   0   0   0   0   0   0   0   0   0   0   194 224 237 56  107 132 194 224 237 
0   0   0   0   0   0   0   0   0   0   0   0   0   0   0   0   0   0   194 224 237 0   0   0   
