P3
7 14
255
220 239 248 241 250 255 0   0   0   0   0   0   0   0   0   0   0   0   0   0   0   
220 239 248 228 246 255 241 250 255 0   0   0   0   0   0   0   0   0   0   0   0   
220 239 248 241 250 255 228 246 255 241 250 255 0   0   0   0   0   0   0   0   0   
194 224 237 255 255 255 255 255 255 228 246 255 241 250 255 0   0   0   0   0   0   
194 224 237 241 250 255 255 255 255 255 255 255 228 246 255 241 250 255 0   0   0   
194 224 237 255 255 255 255 255 255 255 255 255 241 250 255 228 246 255 241 250 255 
194 224 237 241 250 255 255 255 255 255 255 255 255 255 255 220 239 248 156 198 217 
194 224 237 255 255 255 241 250 255 255 255 255 241 250 255 220 239 248 156 198 217 
141 186 207 241 250 255 255 255 255 241 250 255 255 255 255 220 239 248 156 198 217 
0   0   0   141 186 207 241 250 255 255 255 255 255 255 255 220 239 248 156 198 217 
0   0   0   0   0   0   141 186 207 255 255 255 255 255 255 194 224 237 156 198 217 
0   0   0   0   0   0   0   0   0   141 186 207 241 250 255 194 224 237 156 198 217 
0   0   0   0   0   0   0   0   0   0   0   0   141 186 207 194 224 237 156 198 217 
0   0   0   0   0   0   0   0   0   0   0   0   0   0   0   141 186 207 156 198 217 
