P3
7 14
255
0   0   0   0   0   0   0   0   0   0   0   0   0   0   0   241 250 255 220 239 248 
0   0   0   0   0   0   0   0   0   0   0   0   241 250 255 228 246 255 220 239 248 
0   0   0   0   0   0   0   0   0   241 250 255 228 246 255 241 250 255 220 239 248 
0   0   0   0   0   0   241 250 255 228 246 255 255 255 255 255 255 255 156 198 217 
0   0   0   241 250 255 228 246 255 255 255 255 255 255 255 241 250 255 156 198 217 
241 250 255 228 246 255 241 250 255 255 255 255 255 255 255 255 255 255 156 198 217 
241 250 255 220 239 248 255 255 255 255 255 255 255 255 255 241 250 255 156 198 217 
241 250 255 220 239 248 241 250 255 255 255 255 241 250 255 255 255 255 156 198 217 
241 250 255 220 239 248 255 255 255 241 250 255 255 255 255 241 250 255 141 186 207 
241 250 255 220 239 248 255 255 255 255 255 255 241 250 255 141 186 207 0   0   0   
241 250 255 194 224 237 255 255 255 255 255 255 141 186 207 0   0   0   0   0   0   
241 250 255 194 224 237 241 250 255 141 186 207 0   0   0   0   0   0   0   0   0   
241 250 255 194 224 237 141 186 207 0   0   0   0   0   0   0   0   0   0   0   0   
194 224 237 141 186 207 0   0   0   0   0   0   0   0   0   0   0   0   0   0   0   
