P3
8 8
255
0   0   0   0   0   0   0   0   0   0   0   0   0   0   0   0   0   0   194 224 237 0   0   0   
0   0   0   0   0   0   0   0   0   0   0   0   0   0   0   194 224 237 227 246 250 194 224 237 
0   0   0   0   0   0   0   0   0   0   0   0   194 224 237 243 253 255 194 224 237 0   0   0   
0   0   0   0   0   0   0   0   0   194 224 237 248 254 255 194 224 237 0   0   0   0   0   0   
0   0   0   0   0   0   194 224 237 248 254 255 194 224 237 0   0   0   0   0   0   0   0   0   
0   0   0   194 224 237 243 253 255 194 224 237 0   0   0   0   0   0   0   0   0   0   0   0   
194 224 237 227 246 250 194 224 237 0   0   0   0   0   0   0   0   0   0   0   0   0   0   0   
0   0   0   194 224 237 0   0   0   0   0   0   0   0   0   0   0   0   0   0   0   0   0   0   
