P3
7 14
255
122 171 193 241 250 255 0   0   0   0   0   0   0   0   0   0   0   0   0   0   0   
141 186 207 122 171 193 241 250 255 0   0   0   0   0   0   0   0   0   0   0   0   
87  141 167 141 186 207 122 171 193 241 250 255 0   0   0   0   0   0   0   0   0   
69  117 141 156 198 217 87  141 167 122 171 193 241 250 255 0   0   0   0   0   0   
122 171 193 69  117 141 87  141 167 156 198 217 122 171 193 241 250 255 0   0   0   
56  107 132 69  117 141 122 171 193 122 171 193 87  141 167 122 171 193 241 250 255 
50  93  114 69  117 141 87  141 167 69  117 141 56  107 132 84  134 158 194 224 237 
38  81  101 38  81  101 69  117 141 87  141 167 87  141 167 122 171 193 194 224 237 
38  81  101 50  93  114 69  117 141 56  107 132 69  117 141 87  141 167 194 224 237 
0   0   0   50  93  114 38  81  101 69  117 141 87  141 167 69  117 141 194 224 237 
0   0   0   0   0   0   38  81  101 50  93  114 50  93  114 38  81  101 194 224 237 
0   0   0   0   0   0   0   0   0   50  93  114 38  81  101 69  117 141 194 224 237 
0   0   0   0   0   0   0   0   0   0   0   0   38  81  101 38  81  101 194 224 237 
0   0   0   0   0   0   0   0   0   0   0   0   0   0   0   50  93  114 156 198 217 
