P3
48 8
255
0   0   0   128 128 128 128 128 128 128 128 128 128 128 128 128 128 128 0   0   0   0   0   0   0   0   0   128 128 128 128 128 128 128 128 128 128 128 128 128 128 128 0   0   0   0   0   0   0   0   0   128 128 128 128 128 128 128 128 128 128 128 128 128 128 128 0   0   0   0   0   0   0   0   0   128 128 128 128 128 128 128 128 128 128 128 128 128 128 128 0   0   0   0   0   0   0   0   0   128 128 128 128 128 128 128 128 128 128 128 128 128 128 128 0   0   0   0   0   0   0   0   0   128 128 128 128 128 128 128 128 128 128 128 128 128 128 128 0   0   0   0   0   0   
128 128 128 16  37  47  16  37  47  16  37  47  156 156 156 140 140 140 128 128 128 0   0   0   128 128 128 16  37  47  16  37  47  16  37  47  156 156 156 140 140 140 128 128 128 0   0   0   128 128 128 16  37  47  16  37  47  16  37  47  156 156 156 140 140 140 128 128 128 0   0   0   128 128 128 16  37  47  16  37  47  16  37  47  156 156 156 140 140 140 128 128 128 0   0   0   128 128 128 16  37  47  16  37  47  16  37  47  156 156 156 140 140 140 128 128 128 0   0   0   128 128 128 16  37  47  16  37  47  16  37  47  156 156 156 140 140 140 128 128 128 0   0   0   
128 128 128 196 215 165 16  37  47  196 215 165 16  37  47  156 156 156 140 140 140 128 128 128 128 128 128 196 215 165 16  37  47  196 215 165 16  37  47  156 156 156 140 140 140 128 128 128 128 128 128 196 215 165 16  37  47  196 215 165 16  37  47  156 156 156 140 140 140 128 128 128 128 128 128 196 215 165 16  37  47  196 215 165 16  37  47  156 156 156 140 140 140 128 128 128 128 128 128 196 215 165 16  37  47  196 215 165 16  37  47  156 156 156 140 140 140 128 128 128 128 128 128 196 215 165 16  37  47  196 215 165 16  37  47  156 156 156 140 140 140 128 128 128 
128 128 128 16  37  47  16  37  47  16  37  47  16  37  47  156 156 156 0   0   0   0   0   0   128 128 128 16  37  47  16  37  47  16  37  47  16  37  47  156 156 156 0   0   0   0   0   0   128 128 128 16  37  47  16  37  47  16  37  47  16  37  47  156 156 156 0   0   0   0   0   0   128 128 128 16  37  47  16  37  47  16  37  47  16  37  47  156 156 156 0   0   0   0   0   0   128 128 128 16  37  47  16  37  47  16  37  47  16  37  47  156 156 156 0   0   0   0   0   0   128 128 128 16  37  47  16  37  47  16  37  47  16  37  47  156 156 156 0   0   0   0   0   0   
0   0   0   156 156 156 16  37  47  16  37  47  156 156 156 156 156 156 128 128 128 0   0   0   0   0   0   156 156 156 16  37  47  16  37  47  156 156 156 156 156 156 128 128 128 0   0   0   0   0   0   156 156 156 16  37  47  16  37  47  156 156 156 156 156 156 128 128 128 0   0   0   0   0   0   156 156 156 16  37  47  16  37  47  156 156 156 156 156 156 128 128 128 0   0   0   0   0   0   156 156 156 16  37  47  16  37  47  156 156 156 156 156 156 128 128 128 0   0   0   0   0   0   156 156 156 16  37  47  16  37  47  156 156 156 156 156 156 128 128 128 0   0   0   
0   0   0   189 189 189 156 156 156 156 156 156 156 156 156 189 189 189 156 156 156 128 128 128 0   0   0   189 189 189 189 189 189 156 156 156 156 156 156 156 156 156 189 189 189 128 128 128 0   0   0   156 156 156 189 189 189 189 189 189 156 156 156 156 156 156 189 189 189 128 128 128 0   0   0   156 156 156 156 156 156 189 189 189 171 171 171 156 156 156 189 189 189 128 128 128 0   0   0   156 156 156 156 156 156 156 156 156 171 171 171 171 171 171 189 189 189 128 128 128 0   0   0   156 156 156 156 156 156 156 156 156 156 156 156 189 189 189 189 189 189 153 153 153 
0   0   0   0   0   0   189 189 189 156 156 156 189 189 189 189 189 189 0   0   0   0   0   0   0   0   0   0   0   0   0   0   0   189 189 189 156 156 156 171 171 171 189 189 189 0   0   0   0   0   0   189 189 189 0   0   0   0   0   0   171 171 171 156 156 156 171 171 171 189 189 189 0   0   0   189 189 189 189 189 189 0   0   0   0   0   0   171 171 171 171 171 171 189 189 189 0   0   0   189 189 189 156 156 156 189 189 189 0   0   0   0   0   0   171 171 171 171 171 171 0   0   0   189 189 189 156 156 156 156 156 156 171 171 171 0   0   0   0   0   0   0   0   0   
0   0   0   0   0   0   0   0   0   189 189 189 156 156 156 0   0   0   0   0   0   0   0   0   0   0   0   0   0   0   0   0   0   0   0   0   171 171 171 0   0   0   0   0   0   0   0   0   0   0   0   0   0   0   0   0   0   0   0   0   0   0   0   0   0   0   0   0   0   0   0   0   0   0   0   0   0   0   0   0   0   0   0   0   0   0   0   0   0   0   0   0   0   0   0   0   0   0   0   0   0   0   189 189 189 0   0   0   0   0   0   0   0   0   0   0   0   0   0   0   0   0   0   0   0   0   189 189 189 189 189 189 0   0   0   0   0   0   0   0   0   0   0   0   
