P3
16 16
255
0   0   0   0   0   0   0   0   0   0   0   0   0   0   0   0   0   0   0   0   0   0   0   0   0   0   0   0   0   0   0   0   0   0   0   0   0   0   0   0   0   0   0   0   0   0   0   0   
0   0   0   0   0   0   0   0   0   0   0   0   0   0   0   0   0   0   0   0   0   0   0   0   0   0   0   0   0   0   0   0   0   0   0   0   0   0   0   0   0   0   0   0   0   0   0   0   
0   0   0   0   0   0   0   0   0   0   0   0   0   0   0   0   0   0   0   0   0   0   0   0   0   0   0   0   0   0   0   0   0   0   0   0   0   0   0   0   0   0   0   0   0   0   0   0   
0   0   0   0   0   0   0   0   0   0   0   0   0   0   0   0   0   0   0   0   0   0   0   0   0   0   0   0   0   0   0   0   0   0   0   0   0   0   0   0   0   0   0   0   0   0   0   0   
53  41  29  53  41  29  53  41  29  53  41  29  53  41  29  53  41  29  53  41  29  53  41  29  53  41  29  53  41  29  53  41  29  53  41  29  53  41  29  53  41  29  53  41  29  53  41  29  
53  41  29  118 54  108 118 54  108 118 54  108 118 54  108 118 54  108 118 54  108 53  41  29  53  41  29  118 54  108 118 54  108 118 54  108 118 54  108 118 54  108 118 54  108 53  41  29  
53  41  29  53  41  29  53  41  29  53  41  29  53  41  29  53  41  29  53  41  29  53  41  29  53  41  29  53  41  29  53  41  29  53  41  29  53  41  29  53  41  29  53  41  29  53  41  29  
53  41  29  144 113 161 118 54  108 144 113 161 118 54  108 118 54  108 118 54  108 53  41  29  53  41  29  118 54  108 118 54  108 118 54  108 144 113 161 118 54  108 144 113 161 53  41  29  
53  41  29  144 113 161 118 54  108 144 113 161 118 54  108 118 54  108 118 54  108 53  41  29  53  41  29  118 54  108 118 54  108 118 54  108 144 113 161 118 54  108 144 113 161 53  41  29  
53  41  29  144 113 161 118 54  108 144 113 161 118 54  108 118 54  108 118 54  108 53  41  29  53  41  29  118 54  108 118 54  108 118 54  108 144 113 161 118 54  108 144 113 161 53  41  29  
53  41  29  144 113 161 118 54  108 118 54  108 118 54  108 82  60  32  118 54  108 53  41  29  53  41  29  118 54  108 82  60  32  118 54  108 118 54  108 118 54  108 144 113 161 53  41  29  
53  41  29  144 113 161 118 54  108 118 54  108 118 54  108 82  60  32  118 54  108 53  41  29  53  41  29  118 54  108 82  60  32  118 54  108 118 54  108 118 54  108 144 113 161 53  41  29  
53  41  29  144 113 161 118 54  108 118 54  108 118 54  108 144 113 161 118 54  108 53  41  29  53  41  29  118 54  108 157 125 174 118 54  108 118 54  108 118 54  108 144 113 161 53  41  29  
53  41  29  144 113 161 118 54  108 144 113 161 118 54  108 118 54  108 118 54  108 53  41  29  53  41  29  118 54  108 118 54  108 118 54  108 144 113 161 118 54  108 144 113 161 53  41  29  
53  41  29  144 113 161 118 54  108 144 113 161 118 54  108 118 54  108 144 113 161 53  41  29  53  41  29  144 113 161 118 54  108 118 54  108 144 113 161 118 54  108 144 113 161 53  41  29  
53  41  29  144 113 161 118 54  108 118 54  108 118 54  108 118 54  108 144 113 161 53  41  29  53  41  29  144 113 161 118 54  108 118 54  108 118 54  108 118 54  108 144 113 161 53  41  29  
