P3
72 51
255
0   0   0   0   0   0   0   0   0   0   0   0   0   0   0   0   0   0   0   0   0   0   0   0   0   0   0   0   0   0   0   0   0   0   0   0   0   0   0   0   0   0   0   0   0   0   0   0   0   0   0   0   0   0   0   0   0   0   0   0   0   0   0   0   0   0   0   0   0   0   0   0   0   0   0   0   0   0   0   0   0   0   0   0   0   0   0   0   0   0   0   0   0   0   0   0   0   0   0   0   0   0   0   0   0   0   0   0   0   0   0   0   0   0   0   0   0   0   0   0   0   0   0   0   0   0   0   0   0   0   0   0   0   0   0   0   0   0   0   0   0   0   0   0   0   0   0   0   0   0   0   0   0   0   0   0   0   0   0   0   0   0   0   0   0   0   0   0   0   0   0   0   0   0   0   0   0   0   0   0   0   0   0   0   0   0   0   0   0   0   0   0   0   0   0   0   0   0   0   0   0   0   0   0   0   0   0   0   0   0   0   0   0   0   0   0   
0   0   0   0   0   0   0   0   0   0   0   0   0   0   0   0   0   0   0   0   0   0   0   0   0   0   0   0   0   0   0   0   0   0   0   0   0   0   0   0   0   0   0   0   0   0   0   0   0   0   0   0   0   0   0   0   0   0   0   0   0   0   0   0   0   0   0   0   0   0   0   0   0   0   0   0   0   0   0   0   0   0   0   0   0   0   0   0   0   0   0   0   0   0   0   0   0   0   0   0   0   0   0   0   0   0   0   0   0   0   0   0   0   0   0   0   0   0   0   0   0   0   0   0   0   0   0   0   0   0   0   0   0   0   0   0   0   0   0   0   0   0   0   0   0   0   0   0   0   0   0   0   0   0   0   0   0   0   0   0   0   0   0   0   0   0   0   0   0   0   0   0   0   0   0   0   0   0   0   0   0   0   0   0   0   0   0   0   0   0   0   0   0   0   0   0   0   0   0   0   0   0   0   0   0   0   0   0   0   0   0   0   0   0   0   0   
0   0   0   0   0   0   0   0   0   0   0   0   0   0   0   0   0   0   0   0   0   0   0   0   0   0   0   0   0   0   0   0   0   0   0   0   0   0   0   0   0   0   0   0   0   0   0   0   0   0   0   0   0   0   0   0   0   0   0   0   0   0   0   0   0   0   0   0   0   0   0   0   0   0   0   0   0   0   0   0   0   0   0   0   0   0   0   0   0   0   0   0   0   0   0   0   0   0   0   0   0   0   0   0   0   0   0   0   0   0   0   0   0   0   0   0   0   0   0   0   0   0   0   0   0   0   0   0   0   0   0   0   0   0   0   0   0   0   0   0   0   0   0   0   0   0   0   0   0   0   0   0   0   0   0   0   0   0   0   0   0   0   0   0   0   0   0   0   0   0   0   0   0   0   0   0   0   0   0   0   0   0   0   0   0   0   0   0   0   0   0   0   0   0   0   0   0   0   0   0   0   0   0   0   0   0   0   0   0   0   0   0   0   0   0   0   
0   0   0   0   0   0   0   0   0   0   0   0   0   0   0   0   0   0   0   0   0   0   0   0   0   0   0   0   0   0   0   0   0   0   0   0   0   0   0   0   0   0   0   0   0   0   0   0   0   0   0   0   0   0   0   0   0   0   0   0   0   0   0   0   0   0   0   0   0   0   0   0   0   0   0   0   0   0   0   0   0   0   0   0   0   0   0   0   0   0   0   0   0   0   0   0   0   0   0   0   0   0   0   0   0   0   0   0   0   0   0   0   0   0   0   0   0   0   0   0   0   0   0   0   0   0   0   0   0   0   0   0   0   0   0   0   0   0   0   0   0   0   0   0   0   0   0   0   0   0   0   0   0   0   0   0   0   0   0   0   0   0   0   0   0   0   0   0   0   0   0   0   0   0   0   0   0   0   0   0   0   0   0   0   0   0   0   0   0   0   0   0   0   0   0   0   0   0   0   0   0   0   0   0   0   0   0   0   0   0   0   0   0   0   0   0   
0   0   0   0   0   0   0   0   0   0   0   0   0   0   0   0   0   0   0   0   0   0   0   0   0   0   0   0   0   0   0   0   0   0   0   0   0   0   0   0   0   0   0   0   0   0   0   0   0   0   0   0   0   0   0   0   0   0   0   0   0   0   0   0   0   0   0   0   0   0   0   0   0   0   0   0   0   0   0   0   0   0   0   0   0   0   0   0   0   0   0   0   0   0   0   0   0   0   0   0   0   0   0   0   0   0   0   0   0   0   0   0   0   0   0   0   0   0   0   0   0   0   0   0   0   0   0   0   0   0   0   0   0   0   0   0   0   0   0   0   0   0   0   0   0   0   0   0   0   0   0   0   0   0   0   0   0   0   0   0   0   0   0   0   0   0   0   0   0   0   0   0   0   0   0   0   0   0   0   0   0   0   0   0   0   0   0   0   0   0   0   0   0   0   0   0   0   0   0   0   0   0   0   0   0   0   0   0   0   0   0   0   0   0   0   0   
0   0   0   0   0   0   0   0   0   0   0   0   0   0   0   0   0   0   0   0   0   0   0   0   0   0   0   0   0   0   0   0   0   0   0   0   0   0   0   0   0   0   0   0   0   0   0   0   0   0   0   0   0   0   0   0   0   0   0   0   0   0   0   0   0   0   0   0   0   0   0   0   0   0   0   0   0   0   0   0   0   0   0   0   0   0   0   0   0   0   0   0   0   0   0   0   0   0   0   0   0   0   0   0   0   0   0   0   0   0   0   0   0   0   0   0   0   0   0   0   0   0   0   0   0   0   0   0   0   0   0   0   0   0   0   0   0   0   0   0   0   0   0   0   0   0   0   0   0   0   0   0   0   0   0   0   0   0   0   0   0   0   0   0   0   0   0   0   0   0   0   0   0   0   0   0   0   0   0   0   0   0   0   0   0   0   0   0   0   0   0   0   0   0   0   0   0   0   0   0   0   0   0   0   0   0   0   0   0   0   0   0   0   0   0   0   
0   0   0   0   0   0   0   0   0   0   0   0   0   0   0   0   0   0   0   0   0   0   0   0   0   0   0   0   0   0   0   0   0   0   0   0   0   0   0   0   0   0   0   0   0   0   0   0   69  40  60  69  40  60  69  40  60  69  40  60  69  40  60  69  40  60  0   0   0   0   0   0   0   0   0   0   0   0   0   0   0   0   0   0   0   0   0   0   0   0   0   0   0   0   0   0   0   0   0   0   0   0   0   0   0   0   0   0   0   0   0   0   0   0   0   0   0   0   0   0   0   0   0   0   0   0   0   0   0   0   0   0   0   0   0   0   0   0   0   0   0   0   0   0   0   0   0   0   0   0   0   0   0   0   0   0   0   0   0   0   0   0   0   0   0   0   0   0   0   0   0   0   0   0   0   0   0   0   0   0   0   0   0   0   0   0   0   0   0   0   0   0   0   0   0   0   0   0   0   0   0   0   0   0   0   0   0   0   0   0   0   0   0   0   0   0   
0   0   0   0   0   0   0   0   0   0   0   0   0   0   0   0   0   0   0   0   0   0   0   0   0   0   0   0   0   0   0   0   0   0   0   0   0   0   0   69  40  60  69  40  60  69  40  60  69  40  60  69  40  60  69  40  60  69  40  60  69  40  60  69  40  60  69  40  60  0   0   0   0   0   0   0   0   0   0   0   0   0   0   0   0   0   0   0   0   0   0   0   0   0   0   0   0   0   0   0   0   0   0   0   0   0   0   0   0   0   0   0   0   0   0   0   0   0   0   0   0   0   0   0   0   0   0   0   0   0   0   0   0   0   0   0   0   0   0   0   0   0   0   0   0   0   0   0   0   0   0   0   0   0   0   0   0   0   0   0   0   0   0   0   0   0   0   0   0   0   0   0   0   0   0   0   0   0   0   0   0   0   0   0   0   0   0   0   0   0   0   0   0   0   0   0   0   0   0   0   0   0   0   0   0   0   0   0   0   0   0   0   0   0   0   0   
0   0   0   0   0   0   0   0   0   0   0   0   0   0   0   0   0   0   0   0   0   0   0   0   0   0   0   0   0   0   0   0   0   69  40  60  69  40  60  69  40  60  69  40  60  69  40  60  69  40  60  69  40  60  69  40  60  69  40  60  69  40  60  69  40  60  69  40  60  69  40  60  69  40  60  69  40  60  0   0   0   0   0   0   0   0   0   0   0   0   0   0   0   0   0   0   0   0   0   0   0   0   0   0   0   0   0   0   0   0   0   0   0   0   0   0   0   0   0   0   0   0   0   0   0   0   0   0   0   0   0   0   0   0   0   0   0   0   0   0   0   0   0   0   0   0   0   0   0   0   0   0   0   0   0   0   0   0   0   0   0   0   0   0   0   0   0   0   0   0   0   0   0   0   0   0   0   0   0   0   0   0   0   0   0   0   0   0   0   0   0   0   0   0   0   0   0   0   0   0   0   0   0   0   0   0   0   0   0   0   0   0   0   0   0   0   
0   0   0   0   0   0   0   0   0   0   0   0   0   0   0   0   0   0   0   0   0   0   0   0   0   0   0   69  40  60  69  40  60  69  40  60  69  40  60  69  40  60  69  40  60  69  40  60  69  40  60  69  40  60  69  40  60  69  40  60  69  40  60  69  40  60  69  40  60  69  40  60  69  40  60  69  40  60  69  40  60  0   0   0   0   0   0   0   0   0   0   0   0   0   0   0   0   0   0   0   0   0   0   0   0   0   0   0   0   0   0   0   0   0   0   0   0   0   0   0   0   0   0   0   0   0   0   0   0   0   0   0   0   0   0   0   0   0   0   0   0   0   0   0   0   0   0   0   0   0   0   0   0   0   0   0   0   0   0   0   0   0   0   0   0   0   0   0   0   0   0   0   0   0   0   0   0   0   0   0   0   0   0   0   0   0   0   0   0   0   0   0   0   0   0   0   0   0   0   0   0   0   0   0   0   0   0   0   0   0   0   0   0   0   0   0   
0   0   0   0   0   0   0   0   0   0   0   0   0   0   0   0   0   0   0   0   0   0   0   0   69  40  60  69  40  60  69  40  60  69  40  60  69  40  60  69  40  60  69  40  60  69  40  60  69  40  60  69  40  60  0   0   0   0   0   0   0   0   0   69  40  60  69  40  60  69  40  60  69  40  60  69  40  60  69  40  60  69  40  60  0   0   0   0   0   0   0   0   0   0   0   0   0   0   0   0   0   0   0   0   0   0   0   0   0   0   0   0   0   0   0   0   0   0   0   0   0   0   0   0   0   0   0   0   0   0   0   0   0   0   0   0   0   0   0   0   0   0   0   0   0   0   0   0   0   0   0   0   0   0   0   0   0   0   0   0   0   0   0   0   0   0   0   0   0   0   0   0   0   0   0   0   0   0   0   0   0   0   0   0   0   0   0   0   0   0   0   0   0   0   0   0   0   0   0   0   0   0   0   0   0   0   0   0   0   0   0   0   0   0   0   0   
0   0   0   0   0   0   0   0   0   0   0   0   0   0   0   0   0   0   0   0   0   69  40  60  69  40  60  69  40  60  69  40  60  69  40  60  69  40  60  69  40  60  0   0   0   0   0   0   0   0   0   0   0   0   0   0   0   0   0   0   0   0   0   0   0   0   69  40  60  69  40  60  69  40  60  69  40  60  69  40  60  69  40  60  69  40  60  0   0   0   0   0   0   0   0   0   0   0   0   0   0   0   0   0   0   0   0   0   0   0   0   0   0   0   0   0   0   0   0   0   0   0   0   0   0   0   0   0   0   0   0   0   0   0   0   0   0   0   0   0   0   0   0   0   0   0   0   0   0   0   0   0   0   0   0   0   0   0   0   0   0   0   0   0   0   0   0   0   0   0   0   0   0   0   0   0   0   0   0   0   0   0   0   0   0   0   0   0   0   0   0   0   0   0   0   0   0   0   0   0   0   0   0   0   0   0   0   0   0   0   0   0   0   0   0   0   
0   0   0   0   0   0   0   0   0   0   0   0   0   0   0   0   0   0   69  40  60  69  40  60  69  40  60  69  40  60  69  40  60  69  40  60  0   0   0   0   0   0   0   0   0   0   0   0   0   0   0   0   0   0   0   0   0   0   0   0   0   0   0   0   0   0   0   0   0   0   0   0   0   0   0   69  40  60  69  40  60  69  40  60  69  40  60  69  40  60  69  40  60  0   0   0   0   0   0   0   0   0   0   0   0   0   0   0   0   0   0   0   0   0   0   0   0   0   0   0   0   0   0   0   0   0   0   0   0   0   0   0   0   0   0   0   0   0   0   0   0   0   0   0   0   0   0   0   0   0   0   0   0   0   0   0   0   0   0   0   0   0   0   0   0   0   0   0   0   0   0   0   0   0   0   0   0   0   0   0   0   0   0   0   0   0   0   0   0   0   0   0   0   0   0   0   0   0   0   0   0   0   0   0   0   0   0   0   0   0   0   0   0   0   0   0   
0   0   0   0   0   0   0   0   0   0   0   0   0   0   0   69  40  60  69  40  60  69  40  60  69  40  60  69  40  60  69  40  60  0   0   0   0   0   0   0   0   0   0   0   0   0   0   0   0   0   0   0   0   0   0   0   0   0   0   0   0   0   0   0   0   0   69  40  60  69  40  60  0   0   0   0   0   0   69  40  60  69  40  60  69  40  60  69  40  60  69  40  60  69  40  60  0   0   0   0   0   0   0   0   0   0   0   0   0   0   0   0   0   0   0   0   0   0   0   0   0   0   0   0   0   0   0   0   0   0   0   0   0   0   0   0   0   0   0   0   0   0   0   0   0   0   0   0   0   0   0   0   0   0   0   0   0   0   0   0   0   0   0   0   0   0   0   0   0   0   0   0   0   0   0   0   0   0   0   0   0   0   0   0   0   0   0   0   0   0   0   0   0   0   0   0   0   0   0   0   0   0   0   0   0   0   0   0   0   0   0   0   0   0   0   0   
0   0   0   0   0   0   0   0   0   0   0   0   0   0   0   69  40  60  69  40  60  69  40  60  69  40  60  69  40  60  0   0   0   0   0   0   0   0   0   0   0   0   0   0   0   0   0   0   0   0   0   0   0   0   0   0   0   0   0   0   0   0   0   69  40  60  69  40  60  69  40  60  69  40  60  0   0   0   0   0   0   69  40  60  69  40  60  69  40  60  69  40  60  69  40  60  69  40  60  0   0   0   0   0   0   0   0   0   0   0   0   0   0   0   0   0   0   0   0   0   0   0   0   0   0   0   0   0   0   0   0   0   0   0   0   0   0   0   0   0   0   0   0   0   0   0   0   0   0   0   0   0   0   0   0   0   0   0   0   0   0   0   0   0   0   0   0   0   0   0   0   0   0   0   0   0   0   0   0   0   0   0   0   0   0   0   0   0   0   0   0   0   0   0   0   0   0   0   0   0   0   0   0   0   0   0   0   0   0   0   0   0   0   0   0   0   
0   0   0   0   0   0   0   0   0   0   0   0   69  40  60  69  40  60  69  40  60  69  40  60  69  40  60  0   0   0   0   0   0   0   0   0   0   0   0   0   0   0   0   0   0   0   0   0   0   0   0   0   0   0   0   0   0   0   0   0   0   0   0   69  40  60  69  40  60  69  40  60  69  40  60  69  40  60  0   0   0   0   0   0   69  40  60  69  40  60  69  40  60  69  40  60  69  40  60  69  40  60  0   0   0   0   0   0   0   0   0   0   0   0   0   0   0   0   0   0   0   0   0   0   0   0   69  40  60  69  40  60  0   0   0   0   0   0   0   0   0   0   0   0   0   0   0   0   0   0   0   0   0   0   0   0   0   0   0   0   0   0   0   0   0   0   0   0   0   0   0   0   0   0   0   0   0   0   0   0   0   0   0   0   0   0   0   0   0   0   0   0   0   0   0   0   0   0   0   0   0   0   0   0   0   0   0   0   0   0   0   0   0   0   0   0   
0   0   0   0   0   0   0   0   0   69  40  60  69  40  60  69  40  60  69  40  60  69  40  60  0   0   0   0   0   0   0   0   0   0   0   0   0   0   0   0   0   0   0   0   0   0   0   0   0   0   0   0   0   0   0   0   0   0   0   0   0   0   0   0   0   0   69  40  60  69  40  60  69  40  60  69  40  60  0   0   0   0   0   0   0   0   0   0   0   0   69  40  60  69  40  60  69  40  60  69  40  60  69  40  60  0   0   0   0   0   0   0   0   0   0   0   0   0   0   0   0   0   0   69  40  60  69  40  60  69  40  60  69  40  60  0   0   0   0   0   0   0   0   0   0   0   0   0   0   0   0   0   0   0   0   0   0   0   0   0   0   0   0   0   0   0   0   0   0   0   0   0   0   0   0   0   0   0   0   0   0   0   0   0   0   0   0   0   0   0   0   0   0   0   0   0   0   0   0   0   0   0   0   0   0   0   0   0   0   0   0   0   0   0   0   0   
0   0   0   0   0   0   0   0   0   69  40  60  69  40  60  69  40  60  69  40  60  69  40  60  0   0   0   0   0   0   0   0   0   0   0   0   0   0   0   0   0   0   0   0   0   0   0   0   0   0   0   0   0   0   0   0   0   0   0   0   0   0   0   0   0   0   69  40  60  69  40  60  69  40  60  69  40  60  69  40  60  0   0   0   0   0   0   0   0   0   69  40  60  69  40  60  69  40  60  69  40  60  69  40  60  0   0   0   0   0   0   0   0   0   0   0   0   0   0   0   0   0   0   69  40  60  69  40  60  69  40  60  69  40  60  0   0   0   0   0   0   0   0   0   0   0   0   0   0   0   0   0   0   0   0   0   0   0   0   0   0   0   0   0   0   0   0   0   0   0   0   0   0   0   0   0   0   0   0   0   0   0   0   0   0   0   0   0   0   0   0   0   0   0   0   0   0   0   0   0   0   0   0   0   0   0   0   0   0   0   0   0   0   0   0   0   
0   0   0   0   0   0   0   0   0   69  40  60  69  40  60  69  40  60  69  40  60  0   0   0   0   0   0   0   0   0   0   0   0   0   0   0   0   0   0   0   0   0   0   0   0   0   0   0   0   0   0   0   0   0   0   0   0   0   0   0   0   0   0   0   0   0   69  40  60  69  40  60  69  40  60  69  40  60  69  40  60  0   0   0   0   0   0   0   0   0   0   0   0   69  40  60  69  40  60  69  40  60  69  40  60  69  40  60  69  40  60  69  40  60  69  40  60  69  40  60  69  40  60  69  40  60  69  40  60  69  40  60  69  40  60  0   0   0   0   0   0   0   0   0   0   0   0   0   0   0   0   0   0   0   0   0   0   0   0   0   0   0   0   0   0   0   0   0   0   0   0   0   0   0   0   0   0   0   0   0   0   0   0   0   0   0   0   0   0   0   0   0   0   0   0   0   0   0   0   0   0   0   0   0   0   0   0   0   0   0   0   0   0   0   0   0   
0   0   0   0   0   0   0   0   0   0   0   0   69  40  60  69  40  60  0   0   0   0   0   0   0   0   0   0   0   0   0   0   0   0   0   0   0   0   0   0   0   0   0   0   0   0   0   0   0   0   0   0   0   0   0   0   0   0   0   0   0   0   0   0   0   0   0   0   0   69  40  60  69  40  60  69  40  60  69  40  60  0   0   0   0   0   0   0   0   0   0   0   0   0   0   0   69  40  60  69  40  60  69  40  60  69  40  60  69  40  60  69  40  60  69  40  60  69  40  60  69  40  60  69  40  60  69  40  60  69  40  60  0   0   0   0   0   0   0   0   0   0   0   0   0   0   0   0   0   0   0   0   0   0   0   0   0   0   0   0   0   0   0   0   0   0   0   0   0   0   0   0   0   0   0   0   0   0   0   0   0   0   0   0   0   0   0   0   0   0   0   0   0   0   0   0   0   0   0   0   0   0   0   0   0   0   0   0   0   0   0   0   0   0   0   0   
0   0   0   0   0   0   0   0   0   0   0   0   0   0   0   0   0   0   0   0   0   0   0   0   0   0   0   0   0   0   0   0   0   0   0   0   0   0   0   0   0   0   0   0   0   0   0   0   0   0   0   0   0   0   0   0   0   0   0   0   0   0   0   0   0   0   0   0   0   69  40  60  69  40  60  69  40  60  69  40  60  0   0   0   0   0   0   0   0   0   0   0   0   0   0   0   0   0   0   69  40  60  69  40  60  69  40  60  69  40  60  69  40  60  69  40  60  69  40  60  69  40  60  69  40  60  69  40  60  0   0   0   0   0   0   0   0   0   0   0   0   0   0   0   0   0   0   0   0   0   0   0   0   0   0   0   0   0   0   0   0   0   0   0   0   0   0   0   0   0   0   0   0   0   0   0   0   0   0   0   0   0   0   0   0   0   0   0   0   0   0   0   0   0   0   0   0   0   0   0   0   0   0   0   0   0   0   0   0   0   0   0   0   0   0   0   
0   0   0   0   0   0   0   0   0   0   0   0   0   0   0   0   0   0   0   0   0   0   0   0   0   0   0   0   0   0   0   0   0   0   0   0   0   0   0   0   0   0   0   0   0   69  40  60  69  40  60  0   0   0   0   0   0   0   0   0   0   0   0   0   0   0   0   0   0   69  40  60  69  40  60  69  40  60  69  40  60  0   0   0   0   0   0   0   0   0   0   0   0   0   0   0   0   0   0   0   0   0   69  40  60  69  40  60  69  40  60  69  40  60  69  40  60  69  40  60  69  40  60  69  40  60  0   0   0   0   0   0   0   0   0   0   0   0   0   0   0   0   0   0   0   0   0   0   0   0   0   0   0   0   0   0   0   0   0   0   0   0   0   0   0   0   0   0   0   0   0   0   0   0   0   0   0   0   0   0   0   0   0   0   0   0   0   0   0   0   0   0   0   0   0   0   0   0   0   0   0   0   0   0   0   0   0   0   0   0   0   0   0   0   0   0   
0   0   0   0   0   0   0   0   0   0   0   0   0   0   0   0   0   0   0   0   0   0   0   0   0   0   0   0   0   0   0   0   0   0   0   0   0   0   0   0   0   0   69  40  60  69  40  60  69  40  60  69  40  60  69  40  60  69  40  60  69  40  60  69  40  60  69  40  60  69  40  60  69  40  60  69  40  60  69  40  60  0   0   0   0   0   0   0   0   0   0   0   0   0   0   0   0   0   0   0   0   0   0   0   0   0   0   0   0   0   0   0   0   0   0   0   0   0   0   0   0   0   0   0   0   0   0   0   0   0   0   0   0   0   0   0   0   0   0   0   0   0   0   0   0   0   0   0   0   0   0   0   0   0   0   0   0   0   0   0   0   0   0   0   0   0   0   0   0   0   0   0   0   0   0   0   0   0   0   0   0   0   0   0   0   0   0   0   0   0   0   0   0   0   0   0   0   0   0   0   0   0   0   0   0   0   0   0   0   0   0   0   0   0   0   0   
0   0   0   0   0   0   0   0   0   0   0   0   0   0   0   0   0   0   0   0   0   0   0   0   0   0   0   0   0   0   0   0   0   0   0   0   0   0   0   0   0   0   69  40  60  69  40  60  69  40  60  69  40  60  69  40  60  69  40  60  69  40  60  69  40  60  69  40  60  69  40  60  69  40  60  69  40  60  69  40  60  69  40  60  69  40  60  69  40  60  69  40  60  0   0   0   0   0   0   0   0   0   0   0   0   0   0   0   0   0   0   0   0   0   0   0   0   69  40  60  69  40  60  0   0   0   0   0   0   0   0   0   0   0   0   0   0   0   0   0   0   0   0   0   0   0   0   0   0   0   0   0   0   0   0   0   0   0   0   0   0   0   0   0   0   0   0   0   0   0   0   0   0   0   0   0   0   0   0   0   0   0   0   0   0   0   0   0   0   0   0   0   0   0   0   0   0   0   0   0   0   0   0   0   0   0   0   0   0   0   0   0   0   0   0   0   
0   0   0   0   0   0   0   0   0   0   0   0   0   0   0   0   0   0   0   0   0   0   0   0   0   0   0   0   0   0   0   0   0   0   0   0   0   0   0   0   0   0   69  40  60  69  40  60  69  40  60  69  40  60  69  40  60  69  40  60  69  40  60  69  40  60  69  40  60  69  40  60  69  40  60  69  40  60  69  40  60  69  40  60  69  40  60  69  40  60  69  40  60  69  40  60  0   0   0   0   0   0   0   0   0   0   0   0   0   0   0   0   0   0   69  40  60  69  40  60  69  40  60  69  40  60  0   0   0   0   0   0   0   0   0   0   0   0   0   0   0   0   0   0   0   0   0   0   0   0   0   0   0   0   0   0   0   0   0   0   0   0   0   0   0   0   0   0   0   0   0   0   0   0   0   0   0   0   0   0   0   0   0   0   0   0   0   0   0   0   0   0   0   0   0   0   0   0   0   0   0   0   0   0   0   0   0   0   0   0   0   0   0   0   0   0   
0   0   0   0   0   0   0   0   0   0   0   0   0   0   0   0   0   0   0   0   0   0   0   0   0   0   0   0   0   0   0   0   0   0   0   0   0   0   0   0   0   0   0   0   0   69  40  60  69  40  60  69  40  60  69  40  60  69  40  60  69  40  60  69  40  60  69  40  60  69  40  60  69  40  60  69  40  60  69  40  60  69  40  60  69  40  60  69  40  60  69  40  60  69  40  60  0   0   0   0   0   0   0   0   0   0   0   0   0   0   0   0   0   0   69  40  60  69  40  60  69  40  60  69  40  60  0   0   0   0   0   0   0   0   0   0   0   0   0   0   0   0   0   0   0   0   0   0   0   0   0   0   0   0   0   0   0   0   0   0   0   0   0   0   0   0   0   0   0   0   0   0   0   0   0   0   0   0   0   0   0   0   0   0   0   0   0   0   0   0   0   0   0   0   0   0   0   0   0   0   0   0   0   0   0   0   0   0   0   0   0   0   0   0   0   0   
0   0   0   0   0   0   0   0   0   0   0   0   0   0   0   0   0   0   0   0   0   0   0   0   0   0   0   0   0   0   0   0   0   0   0   0   0   0   0   0   0   0   0   0   0   0   0   0   0   0   0   0   0   0   0   0   0   0   0   0   0   0   0   0   0   0   0   0   0   69  40  60  69  40  60  69  40  60  69  40  60  69  40  60  69  40  60  69  40  60  69  40  60  0   0   0   0   0   0   0   0   0   0   0   0   0   0   0   0   0   0   0   0   0   0   0   0   69  40  60  69  40  60  0   0   0   0   0   0   0   0   0   0   0   0   0   0   0   0   0   0   0   0   0   0   0   0   0   0   0   0   0   0   0   0   0   0   0   0   0   0   0   0   0   0   0   0   0   0   0   0   0   0   0   0   0   0   0   0   0   0   0   0   0   0   0   0   0   0   0   0   0   0   0   0   0   0   0   0   0   0   0   0   0   0   0   0   0   0   0   0   0   0   0   0   0   
0   0   0   0   0   0   0   0   0   0   0   0   0   0   0   0   0   0   0   0   0   0   0   0   0   0   0   0   0   0   0   0   0   0   0   0   0   0   0   0   0   0   0   0   0   0   0   0   0   0   0   0   0   0   0   0   0   0   0   0   0   0   0   0   0   0   0   0   0   69  40  60  69  40  60  69  40  60  69  40  60  0   0   0   0   0   0   0   0   0   0   0   0   0   0   0   0   0   0   0   0   0   0   0   0   0   0   0   0   0   0   0   0   0   0   0   0   0   0   0   0   0   0   0   0   0   0   0   0   0   0   0   0   0   0   0   0   0   0   0   0   0   0   0   0   0   0   0   0   0   0   0   0   0   0   0   0   0   0   0   0   0   0   0   0   0   0   0   0   0   0   0   0   0   0   0   0   0   0   0   0   0   0   0   0   0   0   0   0   0   0   0   0   0   0   0   0   0   0   0   0   0   0   0   0   0   0   0   0   0   0   0   0   0   0   0   
0   0   0   0   0   0   0   0   0   0   0   0   0   0   0   0   0   0   0   0   0   0   0   0   0   0   0   0   0   0   0   0   0   0   0   0   0   0   0   0   0   0   0   0   0   0   0   0   0   0   0   0   0   0   0   0   0   0   0   0   0   0   0   0   0   0   0   0   0   69  40  60  69  40  60  69  40  60  69  40  60  0   0   0   0   0   0   0   0   0   0   0   0   0   0   0   0   0   0   0   0   0   0   0   0   0   0   0   0   0   0   69  40  60  69  40  60  0   0   0   0   0   0   0   0   0   0   0   0   0   0   0   0   0   0   0   0   0   0   0   0   0   0   0   0   0   0   0   0   0   0   0   0   0   0   0   0   0   0   0   0   0   69  40  60  69  40  60  69  40  60  69  40  60  69  40  60  69  40  60  69  40  60  0   0   0   0   0   0   0   0   0   0   0   0   0   0   0   0   0   0   0   0   0   0   0   0   0   0   0   0   0   0   0   0   0   
0   0   0   0   0   0   0   0   0   0   0   0   0   0   0   0   0   0   0   0   0   0   0   0   0   0   0   0   0   0   0   0   0   0   0   0   0   0   0   0   0   0   0   0   0   0   0   0   0   0   0   0   0   0   0   0   0   0   0   0   0   0   0   0   0   0   0   0   0   69  40  60  69  40  60  69  40  60  69  40  60  0   0   0   0   0   0   0   0   0   0   0   0   0   0   0   0   0   0   0   0   0   0   0   0   0   0   0   69  40  60  69  40  60  69  40  60  69  40  60  0   0   0   0   0   0   0   0   0   0   0   0   0   0   0   0   0   0   0   0   0   0   0   0   0   0   0   69  40  60  69  40  60  69  40  60  69  40  60  69  40  60  69  40  60  69  40  60  69  40  60  69  40  60  69  40  60  69  40  60  69  40  60  69  40  60  0   0   0   0   0   0   0   0   0   0   0   0   0   0   0   0   0   0   0   0   0   0   0   0   0   0   0   0   0   0   
0   0   0   0   0   0   0   0   0   0   0   0   0   0   0   0   0   0   0   0   0   0   0   0   0   0   0   0   0   0   0   0   0   0   0   0   0   0   0   0   0   0   0   0   0   0   0   0   0   0   0   0   0   0   0   0   0   0   0   0   0   0   0   0   0   0   0   0   0   69  40  60  69  40  60  69  40  60  69  40  60  0   0   0   0   0   0   0   0   0   0   0   0   0   0   0   0   0   0   0   0   0   0   0   0   0   0   0   69  40  60  69  40  60  69  40  60  69  40  60  0   0   0   0   0   0   0   0   0   0   0   0   0   0   0   0   0   0   0   0   0   69  40  60  69  40  60  69  40  60  69  40  60  69  40  60  69  40  60  69  40  60  69  40  60  69  40  60  69  40  60  69  40  60  69  40  60  69  40  60  69  40  60  69  40  60  0   0   0   0   0   0   0   0   0   0   0   0   0   0   0   0   0   0   0   0   0   0   0   0   0   0   0   0   0   0   
0   0   0   0   0   0   0   0   0   0   0   0   0   0   0   0   0   0   0   0   0   0   0   0   0   0   0   0   0   0   0   0   0   0   0   0   0   0   0   0   0   0   0   0   0   0   0   0   0   0   0   0   0   0   0   0   0   0   0   0   0   0   0   0   0   0   0   0   0   69  40  60  69  40  60  69  40  60  69  40  60  0   0   0   0   0   0   0   0   0   0   0   0   0   0   0   0   0   0   0   0   0   0   0   0   69  40  60  69  40  60  69  40  60  69  40  60  69  40  60  0   0   0   0   0   0   0   0   0   0   0   0   69  40  60  69  40  60  69  40  60  69  40  60  69  40  60  69  40  60  69  40  60  69  40  60  69  40  60  69  40  60  69  40  60  69  40  60  69  40  60  69  40  60  69  40  60  69  40  60  69  40  60  69  40  60  0   0   0   0   0   0   0   0   0   0   0   0   0   0   0   0   0   0   0   0   0   0   0   0   0   0   0   0   0   0   
0   0   0   0   0   0   0   0   0   0   0   0   0   0   0   0   0   0   0   0   0   0   0   0   0   0   0   0   0   0   0   0   0   0   0   0   0   0   0   0   0   0   0   0   0   0   0   0   69  40  60  69  40  60  69  40  60  0   0   0   0   0   0   0   0   0   0   0   0   69  40  60  69  40  60  69  40  60  69  40  60  0   0   0   0   0   0   0   0   0   0   0   0   0   0   0   0   0   0   0   0   0   0   0   0   69  40  60  69  40  60  69  40  60  69  40  60  69  40  60  0   0   0   0   0   0   69  40  60  69  40  60  69  40  60  69  40  60  69  40  60  69  40  60  69  40  60  69  40  60  69  40  60  69  40  60  69  40  60  69  40  60  69  40  60  0   0   0   0   0   0   0   0   0   69  40  60  69  40  60  69  40  60  69  40  60  0   0   0   0   0   0   0   0   0   0   0   0   0   0   0   0   0   0   0   0   0   0   0   0   0   0   0   0   0   0   
0   0   0   0   0   0   0   0   0   0   0   0   0   0   0   0   0   0   0   0   0   0   0   0   0   0   0   0   0   0   0   0   0   0   0   0   69  40  60  69  40  60  69  40  60  69  40  60  69  40  60  69  40  60  69  40  60  69  40  60  0   0   0   0   0   0   0   0   0   69  40  60  69  40  60  69  40  60  69  40  60  0   0   0   0   0   0   0   0   0   0   0   0   0   0   0   0   0   0   0   0   0   69  40  60  69  40  60  69  40  60  69  40  60  69  40  60  69  40  60  0   0   0   69  40  60  69  40  60  69  40  60  69  40  60  69  40  60  69  40  60  69  40  60  69  40  60  69  40  60  69  40  60  0   0   0   0   0   0   0   0   0   0   0   0   0   0   0   0   0   0   0   0   0   69  40  60  69  40  60  69  40  60  69  40  60  0   0   0   0   0   0   0   0   0   0   0   0   0   0   0   0   0   0   0   0   0   0   0   0   0   0   0   0   0   0   
0   0   0   0   0   0   0   0   0   0   0   0   0   0   0   0   0   0   0   0   0   0   0   0   0   0   0   69  40  60  69  40  60  69  40  60  69  40  60  69  40  60  69  40  60  69  40  60  69  40  60  69  40  60  69  40  60  69  40  60  0   0   0   0   0   0   0   0   0   69  40  60  69  40  60  69  40  60  69  40  60  0   0   0   0   0   0   0   0   0   0   0   0   0   0   0   0   0   0   69  40  60  69  40  60  69  40  60  69  40  60  69  40  60  69  40  60  0   0   0   0   0   0   69  40  60  69  40  60  69  40  60  69  40  60  69  40  60  69  40  60  69  40  60  69  40  60  0   0   0   0   0   0   0   0   0   0   0   0   0   0   0   0   0   0   0   0   0   0   0   0   69  40  60  69  40  60  69  40  60  69  40  60  69  40  60  0   0   0   0   0   0   0   0   0   0   0   0   0   0   0   0   0   0   0   0   0   0   0   0   0   0   0   0   0   0   
0   0   0   0   0   0   0   0   0   0   0   0   0   0   0   0   0   0   0   0   0   0   0   0   69  40  60  69  40  60  69  40  60  69  40  60  69  40  60  69  40  60  69  40  60  69  40  60  69  40  60  69  40  60  69  40  60  0   0   0   0   0   0   0   0   0   0   0   0   69  40  60  69  40  60  69  40  60  69  40  60  0   0   0   0   0   0   0   0   0   0   0   0   0   0   0   0   0   0   69  40  60  69  40  60  69  40  60  69  40  60  69  40  60  0   0   0   0   0   0   69  40  60  69  40  60  69  40  60  69  40  60  69  40  60  69  40  60  69  40  60  69  40  60  69  40  60  0   0   0   0   0   0   0   0   0   0   0   0   0   0   0   0   0   0   0   0   0   0   0   0   69  40  60  69  40  60  69  40  60  69  40  60  69  40  60  0   0   0   0   0   0   0   0   0   0   0   0   0   0   0   0   0   0   0   0   0   0   0   0   0   0   0   0   0   0   
0   0   0   0   0   0   0   0   0   0   0   0   0   0   0   0   0   0   0   0   0   69  40  60  69  40  60  69  40  60  69  40  60  69  40  60  69  40  60  69  40  60  69  40  60  69  40  60  69  40  60  69  40  60  69  40  60  0   0   0   0   0   0   0   0   0   69  40  60  69  40  60  69  40  60  69  40  60  69  40  60  0   0   0   0   0   0   0   0   0   0   0   0   0   0   0   0   0   0   69  40  60  69  40  60  69  40  60  69  40  60  69  40  60  0   0   0   69  40  60  69  40  60  69  40  60  69  40  60  69  40  60  69  40  60  69  40  60  69  40  60  69  40  60  69  40  60  0   0   0   0   0   0   0   0   0   0   0   0   0   0   0   0   0   0   0   0   0   69  40  60  69  40  60  69  40  60  69  40  60  69  40  60  0   0   0   0   0   0   0   0   0   0   0   0   0   0   0   0   0   0   0   0   0   0   0   0   0   0   0   0   0   0   0   0   0   
0   0   0   0   0   0   0   0   0   0   0   0   0   0   0   0   0   0   69  40  60  69  40  60  69  40  60  69  40  60  69  40  60  69  40  60  69  40  60  69  40  60  0   0   0   69  40  60  69  40  60  69  40  60  0   0   0   0   0   0   0   0   0   0   0   0   69  40  60  69  40  60  69  40  60  69  40  60  0   0   0   0   0   0   0   0   0   0   0   0   0   0   0   0   0   0   69  40  60  69  40  60  69  40  60  69  40  60  69  40  60  69  40  60  0   0   0   69  40  60  69  40  60  69  40  60  69  40  60  69  40  60  69  40  60  69  40  60  69  40  60  69  40  60  69  40  60  0   0   0   0   0   0   0   0   0   0   0   0   0   0   0   0   0   0   0   0   0   69  40  60  69  40  60  69  40  60  69  40  60  0   0   0   0   0   0   0   0   0   0   0   0   0   0   0   0   0   0   0   0   0   0   0   0   0   0   0   0   0   0   0   0   0   0   0   0   
0   0   0   0   0   0   0   0   0   0   0   0   0   0   0   0   0   0   69  40  60  69  40  60  69  40  60  69  40  60  69  40  60  0   0   0   0   0   0   0   0   0   0   0   0   0   0   0   0   0   0   0   0   0   0   0   0   0   0   0   0   0   0   0   0   0   69  40  60  69  40  60  69  40  60  69  40  60  0   0   0   0   0   0   0   0   0   0   0   0   0   0   0   0   0   0   69  40  60  69  40  60  69  40  60  69  40  60  69  40  60  0   0   0   0   0   0   69  40  60  69  40  60  69  40  60  69  40  60  69  40  60  69  40  60  69  40  60  69  40  60  69  40  60  0   0   0   0   0   0   0   0   0   0   0   0   0   0   0   0   0   0   0   0   0   0   0   0   69  40  60  69  40  60  69  40  60  69  40  60  0   0   0   0   0   0   0   0   0   0   0   0   0   0   0   0   0   0   0   0   0   0   0   0   0   0   0   0   0   0   0   0   0   0   0   0   
0   0   0   0   0   0   0   0   0   0   0   0   0   0   0   0   0   0   69  40  60  69  40  60  69  40  60  69  40  60  0   0   0   0   0   0   0   0   0   0   0   0   0   0   0   0   0   0   0   0   0   0   0   0   0   0   0   0   0   0   0   0   0   0   0   0   69  40  60  69  40  60  69  40  60  69  40  60  0   0   0   0   0   0   0   0   0   0   0   0   0   0   0   0   0   0   69  40  60  69  40  60  69  40  60  69  40  60  69  40  60  0   0   0   69  40  60  69  40  60  69  40  60  69  40  60  69  40  60  69  40  60  69  40  60  69  40  60  69  40  60  69  40  60  0   0   0   0   0   0   0   0   0   0   0   0   0   0   0   0   0   0   0   0   0   69  40  60  69  40  60  69  40  60  69  40  60  69  40  60  0   0   0   0   0   0   0   0   0   0   0   0   0   0   0   0   0   0   0   0   0   0   0   0   0   0   0   0   0   0   0   0   0   0   0   0   
0   0   0   0   0   0   0   0   0   0   0   0   0   0   0   0   0   0   69  40  60  69  40  60  69  40  60  69  40  60  0   0   0   0   0   0   0   0   0   0   0   0   0   0   0   0   0   0   0   0   0   0   0   0   0   0   0   0   0   0   0   0   0   69  40  60  69  40  60  69  40  60  69  40  60  69  40  60  0   0   0   0   0   0   0   0   0   0   0   0   0   0   0   69  40  60  69  40  60  69  40  60  69  40  60  69  40  60  0   0   0   0   0   0   69  40  60  69  40  60  69  40  60  69  40  60  69  40  60  69  40  60  69  40  60  69  40  60  69  40  60  0   0   0   0   0   0   0   0   0   0   0   0   0   0   0   0   0   0   0   0   0   0   0   0   69  40  60  69  40  60  69  40  60  69  40  60  69  40  60  0   0   0   0   0   0   0   0   0   0   0   0   0   0   0   0   0   0   0   0   0   0   0   0   0   0   0   0   0   0   0   0   0   0   0   0   
0   0   0   0   0   0   0   0   0   0   0   0   0   0   0   0   0   0   69  40  60  69  40  60  69  40  60  69  40  60  0   0   0   0   0   0   0   0   0   0   0   0   0   0   0   0   0   0   0   0   0   0   0   0   0   0   0   0   0   0   0   0   0   69  40  60  69  40  60  69  40  60  69  40  60  69  40  60  0   0   0   0   0   0   0   0   0   0   0   0   0   0   0   69  40  60  69  40  60  69  40  60  69  40  60  69  40  60  0   0   0   69  40  60  69  40  60  69  40  60  69  40  60  69  40  60  69  40  60  69  40  60  69  40  60  69  40  60  69  40  60  0   0   0   0   0   0   0   0   0   0   0   0   0   0   0   0   0   0   0   0   0   0   0   0   69  40  60  69  40  60  69  40  60  69  40  60  0   0   0   0   0   0   0   0   0   0   0   0   0   0   0   0   0   0   0   0   0   0   0   0   0   0   0   0   0   0   0   0   0   0   0   0   0   0   0   
0   0   0   0   0   0   0   0   0   0   0   0   0   0   0   0   0   0   69  40  60  69  40  60  69  40  60  69  40  60  69  40  60  0   0   0   0   0   0   0   0   0   0   0   0   0   0   0   0   0   0   0   0   0   0   0   0   0   0   0   69  40  60  69  40  60  69  40  60  69  40  60  69  40  60  0   0   0   0   0   0   0   0   0   0   0   0   0   0   0   0   0   0   69  40  60  69  40  60  69  40  60  69  40  60  69  40  60  69  40  60  69  40  60  69  40  60  69  40  60  69  40  60  69  40  60  69  40  60  69  40  60  69  40  60  69  40  60  0   0   0   0   0   0   0   0   0   0   0   0   0   0   0   0   0   0   0   0   0   0   0   0   0   0   0   69  40  60  69  40  60  69  40  60  69  40  60  0   0   0   0   0   0   0   0   0   0   0   0   0   0   0   0   0   0   0   0   0   0   0   0   0   0   0   0   0   0   0   0   0   0   0   0   0   0   0   
0   0   0   0   0   0   0   0   0   0   0   0   0   0   0   0   0   0   0   0   0   69  40  60  69  40  60  69  40  60  69  40  60  69  40  60  0   0   0   0   0   0   0   0   0   0   0   0   0   0   0   0   0   0   0   0   0   69  40  60  69  40  60  69  40  60  69  40  60  69  40  60  0   0   0   0   0   0   0   0   0   0   0   0   0   0   0   0   0   0   69  40  60  69  40  60  69  40  60  69  40  60  69  40  60  69  40  60  69  40  60  69  40  60  69  40  60  69  40  60  69  40  60  69  40  60  69  40  60  69  40  60  69  40  60  69  40  60  0   0   0   0   0   0   0   0   0   0   0   0   0   0   0   0   0   0   0   0   0   0   0   0   69  40  60  69  40  60  69  40  60  69  40  60  69  40  60  0   0   0   0   0   0   0   0   0   0   0   0   0   0   0   0   0   0   0   0   0   0   0   0   0   0   0   0   0   0   0   0   0   0   0   0   0   0   0   
0   0   0   0   0   0   0   0   0   0   0   0   0   0   0   0   0   0   0   0   0   69  40  60  69  40  60  69  40  60  69  40  60  69  40  60  69  40  60  0   0   0   0   0   0   0   0   0   0   0   0   0   0   0   0   0   0   69  40  60  69  40  60  69  40  60  69  40  60  0   0   0   0   0   0   0   0   0   0   0   0   0   0   0   0   0   0   69  40  60  69  40  60  69  40  60  69  40  60  69  40  60  69  40  60  69  40  60  69  40  60  69  40  60  69  40  60  69  40  60  69  40  60  69  40  60  69  40  60  69  40  60  69  40  60  69  40  60  0   0   0   0   0   0   0   0   0   0   0   0   0   0   0   0   0   0   0   0   0   0   0   0   69  40  60  69  40  60  69  40  60  69  40  60  0   0   0   0   0   0   0   0   0   0   0   0   0   0   0   0   0   0   0   0   0   0   0   0   0   0   0   0   0   0   0   0   0   0   0   0   0   0   0   0   0   0   
0   0   0   0   0   0   0   0   0   0   0   0   0   0   0   0   0   0   0   0   0   0   0   0   69  40  60  69  40  60  69  40  60  69  40  60  69  40  60  69  40  60  69  40  60  69  40  60  69  40  60  69  40  60  69  40  60  69  40  60  69  40  60  69  40  60  69  40  60  0   0   0   0   0   0   0   0   0   69  40  60  69  40  60  69  40  60  69  40  60  69  40  60  69  40  60  69  40  60  69  40  60  69  40  60  69  40  60  69  40  60  69  40  60  0   0   0   0   0   0   69  40  60  69  40  60  69  40  60  69  40  60  69  40  60  0   0   0   0   0   0   0   0   0   0   0   0   0   0   0   0   0   0   0   0   0   0   0   0   69  40  60  69  40  60  69  40  60  69  40  60  69  40  60  69  40  60  69  40  60  69  40  60  69  40  60  69  40  60  69  40  60  69  40  60  69  40  60  69  40  60  69  40  60  0   0   0   0   0   0   0   0   0   0   0   0   
0   0   0   0   0   0   0   0   0   0   0   0   0   0   0   0   0   0   0   0   0   0   0   0   0   0   0   0   0   0   69  40  60  69  40  60  69  40  60  69  40  60  69  40  60  69  40  60  69  40  60  69  40  60  69  40  60  69  40  60  69  40  60  69  40  60  0   0   0   0   0   0   0   0   0   69  40  60  69  40  60  69  40  60  69  40  60  69  40  60  69  40  60  69  40  60  69  40  60  0   0   0   0   0   0   0   0   0   0   0   0   0   0   0   0   0   0   0   0   0   69  40  60  69  40  60  69  40  60  69  40  60  69  40  60  0   0   0   0   0   0   0   0   0   0   0   0   0   0   0   0   0   0   0   0   0   0   0   0   69  40  60  69  40  60  69  40  60  69  40  60  69  40  60  69  40  60  69  40  60  69  40  60  69  40  60  69  40  60  69  40  60  69  40  60  69  40  60  69  40  60  69  40  60  69  40  60  0   0   0   0   0   0   0   0   0   
0   0   0   0   0   0   0   0   0   0   0   0   0   0   0   0   0   0   0   0   0   0   0   0   0   0   0   0   0   0   69  40  60  69  40  60  69  40  60  69  40  60  69  40  60  69  40  60  69  40  60  69  40  60  69  40  60  69  40  60  69  40  60  69  40  60  0   0   0   0   0   0   0   0   0   69  40  60  69  40  60  69  40  60  69  40  60  69  40  60  69  40  60  69  40  60  0   0   0   0   0   0   0   0   0   0   0   0   0   0   0   0   0   0   0   0   0   0   0   0   0   0   0   69  40  60  69  40  60  69  40  60  0   0   0   0   0   0   0   0   0   0   0   0   0   0   0   0   0   0   0   0   0   0   0   0   0   0   0   69  40  60  69  40  60  69  40  60  69  40  60  69  40  60  69  40  60  69  40  60  69  40  60  69  40  60  69  40  60  69  40  60  69  40  60  69  40  60  69  40  60  69  40  60  69  40  60  0   0   0   0   0   0   0   0   0   
0   0   0   0   0   0   0   0   0   0   0   0   0   0   0   0   0   0   0   0   0   0   0   0   0   0   0   0   0   0   0   0   0   69  40  60  69  40  60  69  40  60  69  40  60  69  40  60  69  40  60  69  40  60  69  40  60  69  40  60  69  40  60  0   0   0   0   0   0   0   0   0   0   0   0   0   0   0   69  40  60  69  40  60  69  40  60  69  40  60  0   0   0   0   0   0   0   0   0   0   0   0   0   0   0   0   0   0   0   0   0   0   0   0   0   0   0   0   0   0   0   0   0   0   0   0   0   0   0   0   0   0   0   0   0   0   0   0   0   0   0   0   0   0   0   0   0   0   0   0   0   0   0   0   0   0   0   0   0   0   0   0   69  40  60  69  40  60  69  40  60  69  40  60  69  40  60  69  40  60  69  40  60  69  40  60  69  40  60  69  40  60  69  40  60  69  40  60  69  40  60  69  40  60  0   0   0   0   0   0   0   0   0   0   0   0   
0   0   0   0   0   0   0   0   0   0   0   0   0   0   0   0   0   0   0   0   0   0   0   0   0   0   0   0   0   0   0   0   0   0   0   0   0   0   0   0   0   0   0   0   0   0   0   0   0   0   0   0   0   0   0   0   0   0   0   0   0   0   0   0   0   0   0   0   0   0   0   0   0   0   0   0   0   0   0   0   0   0   0   0   0   0   0   0   0   0   0   0   0   0   0   0   0   0   0   0   0   0   0   0   0   0   0   0   0   0   0   0   0   0   0   0   0   0   0   0   0   0   0   0   0   0   0   0   0   0   0   0   0   0   0   0   0   0   0   0   0   0   0   0   0   0   0   0   0   0   0   0   0   0   0   0   0   0   0   0   0   0   0   0   0   0   0   0   0   0   0   0   0   0   0   0   0   0   0   0   0   0   0   0   0   0   0   0   0   0   0   0   0   0   0   0   0   0   0   0   0   0   0   0   0   0   0   0   0   0   0   0   0   0   0   0   
0   0   0   0   0   0   0   0   0   0   0   0   0   0   0   0   0   0   0   0   0   0   0   0   0   0   0   0   0   0   0   0   0   0   0   0   0   0   0   0   0   0   0   0   0   0   0   0   0   0   0   0   0   0   0   0   0   0   0   0   0   0   0   0   0   0   0   0   0   0   0   0   0   0   0   0   0   0   0   0   0   0   0   0   0   0   0   0   0   0   0   0   0   0   0   0   0   0   0   0   0   0   0   0   0   0   0   0   0   0   0   0   0   0   0   0   0   0   0   0   0   0   0   0   0   0   0   0   0   0   0   0   0   0   0   0   0   0   0   0   0   0   0   0   0   0   0   0   0   0   0   0   0   0   0   0   0   0   0   0   0   0   0   0   0   0   0   0   0   0   0   0   0   0   0   0   0   0   0   0   0   0   0   0   0   0   0   0   0   0   0   0   0   0   0   0   0   0   0   0   0   0   0   0   0   0   0   0   0   0   0   0   0   0   0   0   
