P3
32 8
255
0   0   0   0   0   0   0   0   0   0   0   0   0   0   0   0   0   0   0   0   0   0   0   0   0   0   0   0   0   0   0   0   0   0   0   0   0   0   0   0   0   0   0   0   0   0   0   0   0   0   0   0   0   0   0   0   0   0   0   0   0   0   0   0   0   0   0   0   0   0   0   0   0   0   0   0   0   0   0   0   0   0   0   0   0   0   0   0   0   0   0   0   0   0   0   0   
0   0   0   16  37  47  16  37  47  16  37  47  0   0   0   0   0   0   0   0   0   0   0   0   0   0   0   16  37  47  16  37  47  16  37  47  0   0   0   0   0   0   0   0   0   0   0   0   0   0   0   196 215 165 16  37  47  196 215 165 0   0   0   0   0   0   0   0   0   0   0   0   0   0   0   16  37  47  16  37  47  16  37  47  0   0   0   0   0   0   0   0   0   0   0   0   
0   0   0   196 215 165 16  37  47  196 215 165 16  37  47  0   0   0   0   0   0   0   0   0   0   0   0   16  37  47  16  37  47  16  37  47  16  37  47  0   0   0   0   0   0   0   0   0   0   0   0   16  37  47  16  37  47  16  37  47  16  37  47  0   0   0   0   0   0   0   0   0   0   0   0   16  37  47  16  37  47  16  37  47  16  37  47  0   0   0   0   0   0   0   0   0   
0   0   0   16  37  47  16  37  47  16  37  47  16  37  47  0   0   0   0   0   0   0   0   0   0   0   0   196 215 165 16  37  47  196 215 165 16  37  47  0   0   0   0   0   0   0   0   0   0   0   0   16  37  47  16  37  47  16  37  47  16  37  47  0   0   0   0   0   0   0   0   0   0   0   0   16  37  47  16  37  47  16  37  47  16  37  47  0   0   0   0   0   0   0   0   0   
0   0   0   0   0   0   16  37  47  16  37  47  0   0   0   0   0   0   0   0   0   0   0   0   0   0   0   0   0   0   16  37  47  16  37  47  0   0   0   0   0   0   0   0   0   0   0   0   0   0   0   0   0   0   16  37  47  16  37  47  0   0   0   0   0   0   0   0   0   0   0   0   0   0   0   0   0   0   16  37  47  16  37  47  0   0   0   0   0   0   0   0   0   0   0   0   
0   0   0   0   0   0   0   0   0   0   0   0   0   0   0   0   0   0   0   0   0   0   0   0   0   0   0   0   0   0   0   0   0   0   0   0   0   0   0   0   0   0   0   0   0   0   0   0   0   0   0   0   0   0   0   0   0   0   0   0   0   0   0   0   0   0   0   0   0   0   0   0   0   0   0   0   0   0   0   0   0   0   0   0   0   0   0   0   0   0   0   0   0   0   0   0   
0   0   0   0   0   0   0   0   0   0   0   0   0   0   0   0   0   0   0   0   0   0   0   0   0   0   0   0   0   0   0   0   0   0   0   0   0   0   0   0   0   0   0   0   0   0   0   0   0   0   0   0   0   0   0   0   0   0   0   0   0   0   0   0   0   0   0   0   0   0   0   0   0   0   0   0   0   0   0   0   0   0   0   0   0   0   0   0   0   0   0   0   0   0   0   0   
0   0   0   0   0   0   0   0   0   0   0   0   0   0   0   0   0   0   0   0   0   0   0   0   0   0   0   0   0   0   0   0   0   0   0   0   0   0   0   0   0   0   0   0   0   0   0   0   0   0   0   0   0   0   0   0   0   0   0   0   0   0   0   0   0   0   0   0   0   0   0   0   0   0   0   0   0   0   0   0   0   0   0   0   0   0   0   0   0   0   0   0   0   0   0   0   
