P3
7 7
255
0   0   0   0   0   0   0   0   0   0   0   0   0   0   0   0   0   0   0   0   0   
0   0   0   158 21  21  0   0   0   0   0   0   0   0   0   158 21  21  0   0   0   
0   0   0   0   0   0   158 21  21  0   0   0   158 21  21  0   0   0   0   0   0   
0   0   0   0   0   0   0   0   0   158 21  21  0   0   0   0   0   0   0   0   0   
0   0   0   0   0   0   158 21  21  0   0   0   158 21  21  0   0   0   0   0   0   
0   0   0   158 21  21  0   0   0   0   0   0   0   0   0   158 21  21  0   0   0   
0   0   0   0   0   0   0   0   0   0   0   0   0   0   0   0   0   0   0   0   0   
