P3
8 8
255
118 66  138 118 66  138 118 66  138 118 66  138 118 66  138 118 66  138 118 66  138 118 66  138 
118 66  138 118 66  138 118 66  138 0   0   0   0   0   0   118 66  138 118 66  138 118 66  138 
118 66  138 118 66  138 0   0   0   0   0   0   0   0   0   0   0   0   118 66  138 118 66  138 
118 66  138 0   0   0   0   0   0   118 66  138 118 66  138 0   0   0   0   0   0   118 66  138 
118 66  138 0   0   0   0   0   0   118 66  138 118 66  138 0   0   0   0   0   0   118 66  138 
118 66  138 118 66  138 0   0   0   0   0   0   0   0   0   0   0   0   118 66  138 118 66  138 
118 66  138 118 66  138 118 66  138 0   0   0   0   0   0   118 66  138 118 66  138 118 66  138 
118 66  138 118 66  138 118 66  138 118 66  138 118 66  138 118 66  138 118 66  138 118 66  138 
