P3
5 8
255
0   0   0   0   0   0   255 255 255 0   0   0   0   0   0   
0   0   0   255 255 255 255 255 255 228 246 255 0   0   0   
0   0   0   255 255 255 220 239 248 228 246 255 0   0   0   
255 255 255 255 255 255 220 239 248 228 246 255 228 246 255 
194 224 237 220 239 248 220 239 248 220 239 248 141 186 207 
0   0   0   194 224 237 220 239 248 141 186 207 0   0   0   
0   0   0   194 224 237 194 224 237 141 186 207 0   0   0   
0   0   0   0   0   0   141 186 207 0   0   0   0   0   0   
