P3
7 13
255
0   0   0   0   0   0   0   0   0   255 255 255 0   0   0   0   0   0   0   0   0   
0   0   0   0   0   0   255 255 255 255 255 255 228 246 255 0   0   0   0   0   0   
0   0   0   0   0   0   255 255 255 255 255 255 228 246 255 228 246 255 0   0   0   
0   0   0   255 255 255 255 255 255 255 255 255 228 246 255 228 246 255 0   0   0   
0   0   0   255 255 255 255 255 255 255 255 255 255 255 255 228 246 255 228 246 255 
255 255 255 255 255 255 220 239 248 255 255 255 255 255 255 156 198 217 156 198 217 
220 239 248 220 239 248 220 239 248 220 239 248 255 255 255 156 198 217 156 198 217 
220 239 248 220 239 248 220 239 248 220 239 248 220 239 248 156 198 217 156 198 217 
0   0   0   220 239 248 220 239 248 220 239 248 220 239 248 156 198 217 141 186 207 
0   0   0   194 224 237 194 224 237 220 239 248 141 186 207 141 186 207 141 186 207 
0   0   0   0   0   0   194 224 237 194 224 237 194 224 237 141 186 207 0   0   0   
0   0   0   0   0   0   0   0   0   194 224 237 194 224 237 194 224 237 0   0   0   
0   0   0   0   0   0   0   0   0   0   0   0   194 224 237 0   0   0   0   0   0   
