P3
48 8
255
0   0   0   76  26  122 76  26  122 76  26  122 76  26  122 76  26  122 0   0   0   0   0   0   0   0   0   76  26  122 76  26  122 76  26  122 76  26  122 76  26  122 0   0   0   0   0   0   0   0   0   76  26  122 76  26  122 76  26  122 76  26  122 76  26  122 0   0   0   0   0   0   0   0   0   76  26  122 76  26  122 76  26  122 76  26  122 76  26  122 0   0   0   0   0   0   0   0   0   76  26  122 76  26  122 76  26  122 76  26  122 76  26  122 0   0   0   0   0   0   0   0   0   76  26  122 76  26  122 76  26  122 76  26  122 76  26  122 0   0   0   0   0   0   
76  26  122 1   2   6   2   1   6   2   1   7   76  26  122 76  26  122 76  26  122 0   0   0   76  26  122 1   2   6   2   1   6   2   1   7   76  26  122 76  26  122 76  26  122 0   0   0   76  26  122 1   2   6   2   1   6   2   1   7   76  26  122 76  26  122 76  26  122 0   0   0   76  26  122 1   2   6   2   1   6   2   1   7   76  26  122 76  26  122 76  26  122 0   0   0   76  26  122 0   1   4   0   1   4   0   1   6   76  26  122 76  26  122 76  26  122 0   0   0   76  26  122 1   2   6   2   1   6   2   1   7   76  26  122 76  26  122 76  26  122 0   0   0   
76  26  122 196 215 165 3   2   0   196 215 165 2   1   6   76  26  122 76  26  122 76  26  122 76  26  122 196 215 165 3   2   0   196 215 165 2   1   6   76  26  122 76  26  122 76  26  122 76  26  122 196 215 165 3   2   0   196 215 165 2   1   6   76  26  122 76  26  122 76  26  122 76  26  122 196 215 165 3   2   0   196 215 165 2   1   6   76  26  122 76  26  122 76  26  122 76  26  122 196 215 165 0   2   0   196 215 165 0   0   5   76  26  122 76  26  122 76  26  122 76  26  122 196 215 165 3   2   0   196 215 165 2   1   6   76  26  122 76  26  122 76  26  122 
76  26  122 1   3   0   3   2   0   3   2   0   2   1   7   76  26  122 0   0   0   0   0   0   76  26  122 1   3   0   3   2   0   3   2   0   1   2   7   76  26  122 0   0   0   0   0   0   76  26  122 1   3   0   3   2   0   3   2   0   1   2   7   76  26  122 0   0   0   0   0   0   76  26  122 1   3   0   3   2   0   3   2   0   1   2   7   76  26  122 0   0   0   0   0   0   76  26  122 0   2   0   0   2   0   0   2   0   0   1   5   76  26  122 0   0   0   0   0   0   76  26  122 1   3   0   2   3   0   3   2   0   1   2   7   76  26  122 0   0   0   0   0   0   
0   0   0   76  26  122 2   1   6   2   1   7   76  26  122 76  26  122 76  26  122 0   0   0   0   0   0   76  26  122 2   1   6   1   2   7   76  26  122 76  26  122 76  26  122 0   0   0   0   0   0   76  26  122 2   1   6   1   2   7   76  26  122 76  26  122 76  26  122 0   0   0   0   0   0   76  26  122 2   1   6   1   2   7   76  26  122 76  26  122 76  26  122 0   0   0   0   0   0   76  26  122 0   1   4   0   1   5   76  26  122 76  26  122 76  26  122 0   0   0   0   0   0   76  26  122 1   2   6   1   2   7   76  26  122 76  26  122 76  26  122 0   0   0   
0   0   0   96  35  152 76  26  122 76  26  122 76  26  122 96  35  152 76  26  122 76  26  122 0   0   0   96  35  152 76  26  122 76  26  122 76  26  122 96  35  152 76  26  122 76  26  122 0   0   0   96  35  152 76  26  122 76  26  122 76  26  122 96  35  152 76  26  122 76  26  122 0   0   0   96  35  152 76  26  122 76  26  122 76  26  122 96  35  152 76  26  122 76  26  122 0   0   0   96  35  152 76  26  122 76  26  122 76  26  122 96  35  152 76  26  122 76  26  122 0   0   0   96  35  152 76  26  122 76  26  122 76  26  122 96  35  152 76  26  122 76  26  122 
0   0   0   0   0   0   96  35  152 76  26  122 96  35  152 96  35  152 0   0   0   0   0   0   0   0   0   0   0   0   0   0   0   76  26  122 96  35  152 96  35  152 76  26  122 0   0   0   0   0   0   76  26  122 0   0   0   0   0   0   96  35  152 96  35  152 76  26  122 76  26  122 0   0   0   76  26  122 96  35  152 0   0   0   0   0   0   96  35  152 76  26  122 76  26  122 0   0   0   76  26  122 96  35  152 76  26  122 0   0   0   0   0   0   76  26  122 76  26  122 0   0   0   76  26  122 96  35  152 76  26  122 96  35  152 0   0   0   0   0   0   76  26  122 
0   0   0   0   0   0   0   0   0   96  35  152 76  26  122 0   0   0   0   0   0   0   0   0   0   0   0   0   0   0   0   0   0   0   0   0   76  26  122 0   0   0   0   0   0   0   0   0   0   0   0   0   0   0   0   0   0   0   0   0   0   0   0   0   0   0   0   0   0   0   0   0   0   0   0   0   0   0   0   0   0   0   0   0   0   0   0   0   0   0   0   0   0   0   0   0   0   0   0   0   0   0   76  26  122 0   0   0   0   0   0   0   0   0   0   0   0   0   0   0   0   0   0   0   0   0   76  26  122 96  35  152 0   0   0   0   0   0   0   0   0   0   0   0   
