P3
48 8
255
0   0   0   35  35  43  36  35  43  35  35  45  32  36  48  32  36  47  0   0   0   0   0   0   0   0   0   35  35  43  36  35  43  35  35  45  32  36  48  32  36  47  0   0   0   0   0   0   0   0   0   35  35  43  36  35  43  35  35  45  32  36  48  32  36  47  0   0   0   0   0   0   0   0   0   35  35  43  36  35  43  35  35  45  32  36  48  32  36  47  0   0   0   0   0   0   0   0   0   33  36  43  34  37  44  32  36  45  32  36  48  32  36  47  0   0   0   0   0   0   0   0   0   35  35  43  36  35  43  35  35  45  33  37  49  32  36  47  0   0   0   0   0   0   
35  36  41  1   2   6   2   1   6   2   1   7   33  36  45  32  36  47  33  36  43  0   0   0   35  36  41  1   2   6   2   1   6   2   1   7   33  36  45  31  35  46  33  36  43  0   0   0   35  36  41  1   2   6   2   1   6   2   1   7   33  36  45  32  36  47  33  36  43  0   0   0   35  36  41  1   2   6   2   1   6   2   1   7   32  35  44  32  36  47  33  36  43  0   0   0   33  36  41  0   1   4   0   1   4   0   1   6   32  36  47  32  36  47  33  36  43  0   0   0   35  36  41  1   2   6   2   1   6   2   1   7   32  35  44  32  36  47  33  36  43  0   0   0   
33  37  36  196 215 164 3   2   0   196 215 164 2   1   6   35  35  43  33  36  43  33  37  40  33  37  38  196 215 164 3   2   0   196 215 164 2   1   6   35  35  43  33  36  43  33  37  40  35  36  38  196 215 164 3   2   0   196 215 164 2   1   6   34  34  42  33  36  43  33  37  40  33  37  38  196 215 164 3   2   0   196 215 164 2   1   6   35  35  43  33  36  43  33  37  40  33  37  38  196 215 164 0   2   0   196 215 164 0   0   5   32  35  44  33  36  43  33  37  40  33  37  38  196 215 164 3   2   0   196 215 164 2   1   6   35  35  43  33  36  43  32  35  40  
33  37  36  1   3   0   3   2   0   3   2   0   2   1   7   33  36  43  0   0   0   0   0   0   34  38  39  1   3   0   3   2   0   3   2   0   1   2   7   33  36  43  0   0   0   0   0   0   33  37  38  1   3   0   3   2   0   3   2   0   1   2   7   33  36  45  0   0   0   0   0   0   33  37  38  1   3   0   3   2   0   3   2   0   1   2   7   33  36  43  0   0   0   0   0   0   32  38  38  0   2   0   0   2   0   0   2   0   0   1   5   32  36  45  0   0   0   0   0   0   33  37  38  1   3   0   2   3   0   3   2   0   1   2   7   33  36  43  0   0   0   0   0   0   
0   0   0   33  36  41  2   1   6   2   1   7   32  36  47  30  36  48  32  36  45  0   0   0   0   0   0   33  36  41  2   1   6   1   2   7   32  36  47  30  36  48  32  36  47  0   0   0   0   0   0   32  35  40  2   1   6   1   2   7   32  36  47  30  36  48  32  36  48  0   0   0   0   0   0   33  36  41  2   1   6   1   2   7   32  36  47  30  36  48  32  36  47  0   0   0   0   0   0   32  37  41  0   1   4   0   1   5   30  37  47  30  36  48  32  36  48  0   0   0   0   0   0   33  36  41  1   2   6   1   2   7   32  36  47  30  36  48  32  36  47  0   0   0   
0   0   0   73  78  84  35  35  45  34  36  48  30  36  50  70  76  88  32  36  45  33  36  43  0   0   0   73  76  83  35  35  43  35  35  45  29  35  47  70  76  90  32  36  47  32  36  45  0   0   0   73  76  83  35  36  41  35  35  43  32  36  48  70  76  90  32  36  48  31  35  46  0   0   0   72  75  82  35  35  43  35  35  45  32  36  48  70  76  88  32  36  47  32  36  45  0   0   0   73  76  83  33  36  45  32  36  45  32  36  47  73  77  89  33  35  47  33  35  47  0   0   0   73  76  83  33  36  45  32  36  47  30  36  48  70  76  88  32  36  47  32  36  45  
0   0   0   0   0   0   73  75  87  32  35  50  70  76  90  72  76  87  0   0   0   0   0   0   0   0   0   0   0   0   0   0   0   33  36  43  70  77  87  70  77  87  33  36  43  0   0   0   0   0   0   35  36  40  0   0   0   0   0   0   72  76  85  72  76  87  32  36  45  33  36  43  0   0   0   35  36  41  75  76  81  0   0   0   0   0   0   72  77  83  33  36  45  33  36  43  0   0   0   33  36  43  73  76  85  33  36  45  0   0   0   0   0   0   33  36  43  33  36  43  0   0   0   33  36  43  72  76  88  30  36  48  72  76  87  0   0   0   0   0   0   33  36  41  
0   0   0   0   0   0   0   0   0   70  76  90  30  36  50  0   0   0   0   0   0   0   0   0   0   0   0   0   0   0   0   0   0   0   0   0   30  37  47  0   0   0   0   0   0   0   0   0   0   0   0   0   0   0   0   0   0   0   0   0   0   0   0   0   0   0   0   0   0   0   0   0   0   0   0   0   0   0   0   0   0   0   0   0   0   0   0   0   0   0   0   0   0   0   0   0   0   0   0   0   0   0   33  35  47  0   0   0   0   0   0   0   0   0   0   0   0   0   0   0   0   0   0   0   0   0   30  36  50  70  76  90  0   0   0   0   0   0   0   0   0   0   0   0   
