P3
48 8
255
0   0   0   119 52  91  119 52  91  119 52  91  119 52  91  119 52  91  0   0   0   0   0   0   0   0   0   119 52  91  119 52  91  119 52  91  119 52  91  119 52  91  0   0   0   0   0   0   0   0   0   119 52  91  119 52  91  119 52  91  119 52  91  119 52  91  0   0   0   0   0   0   0   0   0   119 52  91  119 52  91  119 52  91  119 52  91  119 52  91  0   0   0   0   0   0   0   0   0   119 52  91  119 52  91  119 52  91  119 52  91  119 52  91  0   0   0   0   0   0   0   0   0   119 52  91  119 52  91  119 52  91  119 52  91  119 52  91  0   0   0   0   0   0   
119 52  91  1   2   6   2   1   6   2   1   7   119 52  91  119 52  91  119 52  91  0   0   0   119 52  91  1   2   6   2   1   6   2   1   7   119 52  91  119 52  91  119 52  91  0   0   0   119 52  91  1   2   6   2   1   6   2   1   7   119 52  91  119 52  91  119 52  91  0   0   0   119 52  91  1   2   6   2   1   6   2   1   7   119 52  91  119 52  91  119 52  91  0   0   0   119 52  91  0   1   4   0   1   4   0   1   6   119 52  91  119 52  91  119 52  91  0   0   0   119 52  91  1   2   6   2   1   6   2   1   7   119 52  91  119 52  91  119 52  91  0   0   0   
119 52  91  196 215 165 3   2   0   196 215 165 2   1   6   119 52  91  119 52  91  119 52  91  119 52  91  196 215 165 3   2   0   196 215 165 2   1   6   119 52  91  119 52  91  119 52  91  119 52  91  196 215 165 3   2   0   196 215 165 2   1   6   119 52  91  119 52  91  119 52  91  119 52  91  196 215 165 3   2   0   196 215 165 2   1   6   119 52  91  119 52  91  119 52  91  119 52  91  196 215 165 0   2   0   196 215 165 0   0   5   119 52  91  119 52  91  119 52  91  119 52  91  196 215 165 3   2   0   196 215 165 2   1   6   119 52  91  119 52  91  119 52  91  
119 52  91  1   3   0   3   2   0   3   2   0   2   1   7   119 52  91  0   0   0   0   0   0   119 52  91  1   3   0   3   2   0   3   2   0   1   2   7   119 52  91  0   0   0   0   0   0   119 52  91  1   3   0   3   2   0   3   2   0   1   2   7   119 52  91  0   0   0   0   0   0   119 52  91  1   3   0   3   2   0   3   2   0   1   2   7   119 52  91  0   0   0   0   0   0   119 52  91  0   2   0   0   2   0   0   2   0   0   1   5   119 52  91  0   0   0   0   0   0   119 52  91  1   3   0   2   3   0   3   2   0   1   2   7   119 52  91  0   0   0   0   0   0   
0   0   0   119 52  91  2   1   6   2   1   7   119 52  91  119 52  91  119 52  91  0   0   0   0   0   0   119 52  91  2   1   6   1   2   7   119 52  91  119 52  91  119 52  91  0   0   0   0   0   0   119 52  91  2   1   6   1   2   7   119 52  91  119 52  91  119 52  91  0   0   0   0   0   0   119 52  91  2   1   6   1   2   7   119 52  91  119 52  91  119 52  91  0   0   0   0   0   0   119 52  91  0   1   4   0   1   5   119 52  91  119 52  91  119 52  91  0   0   0   0   0   0   119 52  91  1   2   6   1   2   7   119 52  91  119 52  91  119 52  91  0   0   0   
0   0   0   132 65  99  119 52  91  119 52  91  119 52  91  132 65  99  119 52  91  119 52  91  0   0   0   132 65  99  119 52  91  119 52  91  119 52  91  132 65  99  119 52  91  119 52  91  0   0   0   132 65  99  119 52  91  119 52  91  119 52  91  132 65  99  119 52  91  119 52  91  0   0   0   132 65  99  119 52  91  119 52  91  119 52  91  132 65  99  119 52  91  119 52  91  0   0   0   132 65  99  119 52  91  119 52  91  119 52  91  132 65  99  119 52  91  119 52  91  0   0   0   132 65  99  119 52  91  119 52  91  119 52  91  132 65  99  119 52  91  119 52  91  
0   0   0   0   0   0   132 65  99  119 52  91  132 65  99  132 65  99  0   0   0   0   0   0   0   0   0   0   0   0   0   0   0   119 52  91  132 65  99  132 65  99  119 52  91  0   0   0   0   0   0   119 52  91  0   0   0   0   0   0   132 65  99  132 65  99  119 52  91  119 52  91  0   0   0   119 52  91  132 65  99  0   0   0   0   0   0   132 65  99  119 52  91  119 52  91  0   0   0   119 52  91  132 65  99  119 52  91  0   0   0   0   0   0   119 52  91  119 52  91  0   0   0   119 52  91  132 65  99  119 52  91  132 65  99  0   0   0   0   0   0   119 52  91  
0   0   0   0   0   0   0   0   0   132 65  99  119 52  91  0   0   0   0   0   0   0   0   0   0   0   0   0   0   0   0   0   0   0   0   0   119 52  91  0   0   0   0   0   0   0   0   0   0   0   0   0   0   0   0   0   0   0   0   0   0   0   0   0   0   0   0   0   0   0   0   0   0   0   0   0   0   0   0   0   0   0   0   0   0   0   0   0   0   0   0   0   0   0   0   0   0   0   0   0   0   0   119 52  91  0   0   0   0   0   0   0   0   0   0   0   0   0   0   0   0   0   0   0   0   0   119 52  91  132 65  99  0   0   0   0   0   0   0   0   0   0   0   0   
