P3
12 3
255
255 255 255 112 112 112 49  49  49  85  85  85  90  90  90  127 127 127 141 141 141 90  90  90  52  52  52  115 115 115 143 143 143 127 127 127 
144 144 144 125 125 125 159 159 159 124 124 124 113 113 113 113 113 113 69  69  69  99  99  99  151 151 151 141 141 141 115 115 115 97  97  97  
23  23  23  123 123 123 255 255 255 222 222 222 220 220 220 199 199 199 152 152 152 213 213 213 228 228 228 223 223 223 217 217 217 219 219 219 
