P3
16 16
255
41  71  45  41  71  45  41  71  45  41  71  45  41  71  45  53  41  29  53  41  29  53  41  29  53  41  29  53  41  29  53  41  29  41  71  45  41  71  45  41  71  45  41  71  45  41  71  45  
41  71  45  41  71  45  41  71  45  53  41  29  53  41  29  25  23  22  25  23  22  25  23  22  25  23  22  25  23  22  25  23  22  53  41  29  53  41  29  41  71  45  41  71  45  41  71  45  
41  71  45  41  71  45  53  41  29  25  23  22  25  23  22  25  23  22  25  23  22  25  23  22  25  23  22  25  23  22  25  23  22  25  23  22  25  23  22  53  41  29  41  71  45  41  71  45  
41  71  45  53  41  29  25  23  22  25  23  22  25  23  22  25  23  22  25  23  22  25  23  22  25  23  22  25  23  22  25  23  22  25  23  22  25  23  22  25  23  22  53  41  29  41  71  45  
41  71  45  53  41  29  25  23  22  25  23  22  25  23  22  25  23  22  25  23  22  25  23  22  25  23  22  25  23  22  25  23  22  25  23  22  25  23  22  25  23  22  53  41  29  41  71  45  
53  41  29  25  23  22  25  23  22  25  23  22  25  23  22  25  23  22  25  23  22  25  23  22  25  23  22  25  23  22  25  23  22  25  23  22  25  23  22  25  23  22  25  23  22  53  41  29  
53  41  29  25  23  22  25  23  22  25  23  22  25  23  22  25  23  22  25  23  22  25  23  22  25  23  22  25  23  22  25  23  22  25  23  22  25  23  22  25  23  22  25  23  22  53  41  29  
53  41  29  25  23  22  25  23  22  25  23  22  25  23  22  25  23  22  25  23  22  25  23  22  25  23  22  25  23  22  25  23  22  25  23  22  25  23  22  25  23  22  25  23  22  53  41  29  
53  41  29  25  23  22  25  23  22  25  23  22  25  23  22  25  23  22  25  23  22  25  23  22  25  23  22  25  23  22  25  23  22  25  23  22  25  23  22  25  23  22  25  23  22  53  41  29  
53  41  29  25  23  22  25  23  22  25  23  22  25  23  22  25  23  22  25  23  22  25  23  22  25  23  22  25  23  22  25  23  22  25  23  22  25  23  22  25  23  22  25  23  22  53  41  29  
53  41  29  25  23  22  25  23  22  25  23  22  25  23  22  25  23  22  25  23  22  25  23  22  25  23  22  25  23  22  25  23  22  25  23  22  25  23  22  25  23  22  25  23  22  53  41  29  
53  41  29  25  23  22  25  23  22  25  23  22  25  23  22  25  23  22  25  23  22  25  23  22  25  23  22  25  23  22  25  23  22  25  23  22  25  23  22  25  23  22  25  23  22  53  41  29  
53  41  29  25  23  22  25  23  22  25  23  22  25  23  22  25  23  22  25  23  22  25  23  22  25  23  22  25  23  22  25  23  22  25  23  22  25  23  22  25  23  22  25  23  22  53  41  29  
53  41  29  25  23  22  25  23  22  25  23  22  25  23  22  25  23  22  25  23  22  25  23  22  25  23  22  25  23  22  25  23  22  25  23  22  25  23  22  25  23  22  25  23  22  53  41  29  
53  41  29  25  23  22  25  23  22  25  23  22  25  23  22  25  23  22  25  23  22  25  23  22  25  23  22  25  23  22  25  23  22  25  23  22  25  23  22  25  23  22  25  23  22  53  41  29  
53  41  29  25  23  22  25  23  22  25  23  22  25  23  22  25  23  22  25  23  22  25  23  22  25  23  22  25  23  22  25  23  22  25  23  22  25  23  22  25  23  22  25  23  22  53  41  29  
