P3
16 16
255
41  71  45  41  71  45  41  71  45  41  71  45  41  71  45  53  41  29  53  41  29  53  41  29  53  41  29  53  41  29  53  41  29  41  71  45  41  71  45  41  71  45  41  71  45  41  71  45  
41  71  45  41  71  45  41  71  45  53  41  29  53  41  29  157 125 174 157 125 174 53  41  29  53  41  29  157 125 174 157 125 174 53  41  29  53  41  29  41  71  45  41  71  45  41  71  45  
41  71  45  41  71  45  53  41  29  157 125 174 118 68  110 118 68  110 157 125 174 53  41  29  53  41  29  157 125 174 118 68  110 118 68  110 157 125 174 53  41  29  41  71  45  41  71  45  
41  71  45  53  41  29  157 125 174 118 68  110 157 125 174 118 68  110 118 68  110 53  41  29  53  41  29  118 68  110 118 68  110 157 125 174 118 68  110 157 125 174 53  41  29  41  71  45  
41  71  45  53  41  29  118 68  110 118 68  110 157 125 174 118 68  110 118 68  110 53  41  29  53  41  29  118 68  110 118 68  110 157 125 174 118 68  110 118 68  110 53  41  29  41  71  45  
53  41  29  157 125 174 118 68  110 118 68  110 118 68  110 157 125 174 118 68  110 53  41  29  53  41  29  118 68  110 157 125 174 118 68  110 118 68  110 118 68  110 157 125 174 53  41  29  
53  41  29  157 125 174 118 68  110 157 125 174 118 68  110 157 125 174 118 68  110 53  41  29  53  41  29  118 68  110 157 125 174 118 68  110 157 125 174 118 68  110 157 125 174 53  41  29  
53  41  29  157 125 174 118 68  110 157 125 174 118 68  110 118 68  110 118 68  110 53  41  29  53  41  29  118 68  110 118 68  110 118 68  110 157 125 174 118 68  110 157 125 174 53  41  29  
53  41  29  157 125 174 118 68  110 157 125 174 118 68  110 82  60  32  118 68  110 53  41  29  53  41  29  118 68  110 82  60  32  118 68  110 157 125 174 118 68  110 157 125 174 53  41  29  
53  41  29  157 125 174 118 68  110 157 125 174 118 68  110 82  60  32  118 68  110 53  41  29  53  41  29  118 68  110 82  60  32  118 68  110 157 125 174 118 68  110 157 125 174 53  41  29  
53  41  29  157 125 174 118 68  110 118 68  110 118 68  110 157 125 174 118 68  110 53  41  29  53  41  29  118 68  110 157 125 174 118 68  110 118 68  110 118 68  110 157 125 174 53  41  29  
53  41  29  157 125 174 118 68  110 118 68  110 118 68  110 157 125 174 118 68  110 53  41  29  53  41  29  118 68  110 157 125 174 118 68  110 118 68  110 118 68  110 157 125 174 53  41  29  
53  41  29  157 125 174 118 68  110 118 68  110 118 68  110 157 125 174 118 68  110 53  41  29  53  41  29  118 68  110 157 125 174 118 68  110 118 68  110 118 68  110 157 125 174 53  41  29  
53  41  29  157 125 174 118 68  110 157 125 174 118 68  110 118 68  110 118 68  110 53  41  29  53  41  29  118 68  110 118 68  110 118 68  110 157 125 174 118 68  110 157 125 174 53  41  29  
53  41  29  157 125 174 118 68  110 157 125 174 118 68  110 118 68  110 157 125 174 53  41  29  53  41  29  157 125 174 118 68  110 118 68  110 157 125 174 118 68  110 157 125 174 53  41  29  
53  41  29  157 125 174 118 68  110 118 68  110 118 68  110 118 68  110 157 125 174 53  41  29  53  41  29  157 125 174 118 68  110 118 68  110 118 68  110 118 68  110 157 125 174 53  41  29  
