P3
27 32
255
0   0   0   0   0   0   0   0   0   0   0   0   214 226 219 224 231 227 217 226 222 190 211 203 0   0   0   0   0   0   0   0   0   0   0   0   0   0   0   0   0   0   0   0   0   0   0   0   0   0   0   0   0   0   0   0   0   0   0   0   0   0   0   0   0   0   0   0   0   0   0   0   0   0   0   0   0   0   0   0   0   
0   0   0   0   0   0   0   0   0   225 206 182 213 212 214 198 198 198 234 236 235 236 235 235 232 236 236 189 211 202 0   0   0   0   0   0   0   0   0   0   0   0   0   0   0   0   0   0   0   0   0   0   0   0   0   0   0   0   0   0   0   0   0   0   0   0   0   0   0   0   0   0   0   0   0   0   0   0   0   0   0   
0   0   0   0   0   0   220 137 64  244 144 71  228 225 221 223 223 223 235 235 235 235 235 235 235 235 235 236 235 235 221 227 225 0   0   0   0   0   0   0   0   0   0   0   0   0   0   0   0   0   0   0   0   0   0   0   0   0   0   0   0   0   0   0   0   0   0   0   0   0   0   0   0   0   0   0   0   0   0   0   0   
0   0   0   203 142 81  252 129 43  249 130 44  237 216 199 234 236 235 234 235 235 235 235 235 235 235 235 235 235 235 235 235 235 219 228 223 0   0   0   0   0   0   0   0   0   0   0   0   0   0   0   0   0   0   0   0   0   0   0   0   0   0   0   0   0   0   0   0   0   0   0   0   0   0   0   0   0   0   0   0   0   
175 149 96  252 130 45  250 129 45  210 140 71  146 170 142 157 190 177 181 205 196 225 231 230 235 235 235 235 235 235 235 235 235 235 236 235 0   0   0   0   0   0   0   0   0   0   0   0   0   0   0   0   0   0   0   0   0   0   0   0   0   0   0   0   0   0   0   0   0   0   0   0   0   0   0   0   0   0   0   0   0   
176 149 99  212 141 71  0   0   0   0   0   0   0   0   0   0   0   0   0   0   0   0   0   0   185 207 197 236 237 236 235 235 235 235 235 235 0   0   0   0   0   0   0   0   0   0   0   0   0   0   0   0   0   0   0   0   0   0   0   0   0   0   0   0   0   0   0   0   0   0   0   0   0   0   0   0   0   0   0   0   0   
0   0   0   0   0   0   0   0   0   0   0   0   0   0   0   0   0   0   0   0   0   0   0   0   0   0   0   223 230 226 236 236 236 235 235 235 227 235 232 0   0   0   0   0   0   0   0   0   0   0   0   0   0   0   0   0   0   0   0   0   0   0   0   0   0   0   0   0   0   0   0   0   0   0   0   0   0   0   0   0   0   
0   0   0   0   0   0   0   0   0   0   0   0   0   0   0   0   0   0   0   0   0   0   0   0   0   0   0   0   0   0   238 238 238 235 235 235 236 240 238 0   0   0   0   0   0   0   0   0   0   0   0   0   0   0   0   0   0   0   0   0   0   0   0   0   0   0   0   0   0   0   0   0   0   0   0   0   0   0   0   0   0   
0   0   0   0   0   0   0   0   0   0   0   0   0   0   0   0   0   0   0   0   0   0   0   0   0   0   0   0   0   0   238 238 238 235 235 235 237 237 237 0   0   0   0   0   0   0   0   0   0   0   0   0   0   0   0   0   0   0   0   0   0   0   0   0   0   0   0   0   0   0   0   0   0   0   0   0   0   0   0   0   0   
0   0   0   0   0   0   0   0   0   0   0   0   0   0   0   0   0   0   0   0   0   0   0   0   0   0   0   0   0   0   238 238 238 236 236 236 236 236 236 222 231 228 0   0   0   0   0   0   0   0   0   0   0   0   0   0   0   0   0   0   0   0   0   0   0   0   0   0   0   0   0   0   0   0   0   0   0   0   0   0   0   
0   0   0   0   0   0   0   0   0   0   0   0   0   0   0   0   0   0   0   0   0   0   0   0   0   0   0   219 229 224 239 239 239 236 236 236 236 236 236 239 239 239 223 230 227 208 222 217 0   0   0   0   0   0   0   0   0   0   0   0   0   0   0   0   0   0   0   0   0   0   0   0   0   0   0   0   0   0   0   0   0   
0   0   0   0   0   0   0   0   0   0   0   0   0   0   0   0   0   0   0   0   0   0   0   0   0   0   0   237 241 239 238 238 238 236 236 236 235 235 235 238 239 239 240 240 240 241 241 241 242 242 242 243 242 242 242 242 242 240 243 241 222 231 227 0   0   0   0   0   0   0   0   0   0   0   0   226 233 230 237 237 237 
0   0   0   0   0   0   0   0   0   0   0   0   0   0   0   0   0   0   0   0   0   0   0   0   0   0   0   239 240 239 238 238 238 235 235 235 235 235 235 238 238 238 240 240 240 240 240 240 241 241 241 242 242 242 242 242 242 242 242 242 242 242 242 241 242 242 239 238 238 232 235 232 238 237 237 237 237 237 237 237 237 
0   0   0   0   0   0   0   0   0   0   0   0   0   0   0   0   0   0   0   0   0   0   0   0   192 213 205 239 239 239 237 237 237 235 235 235 235 235 235 237 237 237 240 240 240 240 240 240 240 240 240 241 241 241 241 241 241 242 242 242 242 242 242 239 240 240 238 238 238 237 237 237 237 237 237 237 237 237 236 235 236 
0   0   0   0   0   0   0   0   0   0   0   0   0   0   0   0   0   0   0   0   0   0   0   0   229 237 233 238 238 238 237 237 237 235 235 235 235 235 235 235 235 235 239 239 239 240 240 240 240 240 240 240 240 240 240 240 240 241 241 241 241 241 241 239 239 239 238 238 238 237 237 237 237 237 237 235 236 235 234 236 235 
0   0   0   0   0   0   0   0   0   0   0   0   0   0   0   0   0   0   0   0   0   0   0   0   239 241 239 237 237 237 237 237 237 235 235 235 235 235 235 235 235 235 237 237 237 239 239 239 240 240 240 240 240 240 240 240 240 240 240 240 241 241 241 239 239 239 238 238 238 237 237 237 236 236 236 235 235 235 214 225 219 
0   0   0   0   0   0   0   0   0   0   0   0   0   0   0   0   0   0   0   0   0   0   0   0   236 239 237 236 236 236 235 235 235 235 235 235 235 235 235 236 236 236 236 236 236 238 238 238 239 239 239 240 240 240 240 240 240 240 240 240 239 239 239 239 239 239 238 238 238 235 235 235 235 235 235 235 235 235 0   0   0   
0   0   0   0   0   0   0   0   0   0   0   0   0   0   0   0   0   0   0   0   0   0   0   0   213 226 221 235 236 235 235 235 235 235 235 235 235 235 235 236 236 236 236 236 236 238 238 238 240 240 240 240 240 240 240 240 240 240 240 240 239 239 239 239 239 239 236 236 236 235 235 235 235 235 235 217 227 223 0   0   0   
0   0   0   0   0   0   0   0   0   0   0   0   0   0   0   0   0   0   0   0   0   0   0   0   0   0   0   235 235 234 235 235 235 235 235 235 235 235 235 235 235 235 236 236 236 237 237 237 238 238 238 239 239 239 239 239 239 239 239 239 238 238 238 236 236 236 235 235 235 235 235 235 235 234 234 0   0   0   0   0   0   
0   0   0   0   0   0   0   0   0   0   0   0   0   0   0   0   0   0   0   0   0   0   0   0   0   0   0   217 225 221 235 235 235 236 235 235 235 235 235 235 235 235 235 235 235 237 237 237 237 237 237 238 238 238 237 237 237 237 237 237 237 237 237 236 236 236 235 235 235 235 235 235 231 234 232 0   0   0   0   0   0   
0   0   0   0   0   0   0   0   0   0   0   0   0   0   0   0   0   0   0   0   0   0   0   0   0   0   0   0   0   0   231 234 233 235 235 235 235 235 235 235 235 235 235 235 235 235 235 235 236 236 236 237 237 237 236 236 236 236 236 236 236 236 236 235 235 235 235 235 235 235 235 235 195 213 206 0   0   0   0   0   0   
0   0   0   0   0   0   0   0   0   0   0   0   0   0   0   0   0   0   0   0   0   0   0   0   0   0   0   0   0   0   0   0   0   235 235 234 235 235 235 235 235 235 235 235 235 235 235 235 235 235 235 235 235 235 235 235 235 235 235 235 235 235 235 235 235 235 235 235 235 235 235 235 0   0   0   0   0   0   0   0   0   
0   0   0   0   0   0   0   0   0   0   0   0   0   0   0   0   0   0   0   0   0   0   0   0   0   0   0   0   0   0   0   0   0   219 227 223 235 235 234 235 235 235 235 235 235 235 235 235 235 235 235 235 235 235 235 235 235 235 235 235 235 235 235 235 235 235 235 235 235 233 237 236 0   0   0   0   0   0   0   0   0   
0   0   0   0   0   0   0   0   0   0   0   0   0   0   0   0   0   0   0   0   0   0   0   0   0   0   0   0   0   0   0   0   0   0   0   0   234 236 233 235 235 235 235 235 235 236 234 235 235 235 235 235 235 235 235 235 235 235 235 235 235 235 235 235 235 235 235 235 236 231 235 233 0   0   0   0   0   0   0   0   0   
0   0   0   0   0   0   0   0   0   0   0   0   0   0   0   0   0   0   0   0   0   0   0   0   0   0   0   0   0   0   0   0   0   0   0   0   200 211 202 230 223 217 198 216 208 0   0   0   0   0   0   227 231 229 236 235 234 235 235 235 235 235 235 235 235 235 235 235 235 224 232 227 0   0   0   0   0   0   0   0   0   
0   0   0   0   0   0   0   0   0   0   0   0   0   0   0   0   0   0   0   0   0   0   0   0   0   0   0   0   0   0   0   0   0   0   0   0   161 153 113 199 144 88  0   0   0   0   0   0   0   0   0   0   0   0   0   0   0   235 235 234 235 235 235 235 235 235 236 234 235 201 216 208 0   0   0   0   0   0   0   0   0   
0   0   0   0   0   0   0   0   0   0   0   0   0   0   0   0   0   0   0   0   0   0   0   0   0   0   0   0   0   0   0   0   0   0   0   0   172 151 104 190 147 90  0   0   0   0   0   0   0   0   0   0   0   0   0   0   0   0   0   0   222 228 226 239 230 225 205 214 204 0   0   0   0   0   0   0   0   0   0   0   0   
0   0   0   0   0   0   0   0   0   0   0   0   0   0   0   0   0   0   0   0   0   0   0   0   0   0   0   0   0   0   0   0   0   0   0   0   186 148 94  176 150 98  0   0   0   0   0   0   0   0   0   0   0   0   0   0   0   0   0   0   141 159 123 206 146 87  0   0   0   0   0   0   0   0   0   0   0   0   0   0   0   
0   0   0   0   0   0   0   0   0   0   0   0   0   0   0   0   0   0   0   0   0   0   0   0   0   0   0   0   0   0   0   0   0   0   0   0   237 139 66  196 144 86  0   0   0   0   0   0   0   0   0   0   0   0   0   0   0   152 157 118 220 143 74  139 159 125 0   0   0   0   0   0   0   0   0   0   0   0   0   0   0   
0   0   0   0   0   0   0   0   0   0   0   0   0   0   0   0   0   0   0   0   0   0   0   0   0   0   0   0   0   0   0   0   0   250 138 59  253 137 57  198 126 73  0   0   0   0   0   0   0   0   0   0   0   0   192 139 84  242 140 63  245 138 62  0   0   0   0   0   0   0   0   0   0   0   0   0   0   0   0   0   0   
0   0   0   0   0   0   0   0   0   0   0   0   0   0   0   0   0   0   0   0   0   0   0   0   0   0   0   0   0   0   243 137 61  252 137 59  251 138 60  208 129 72  0   0   0   0   0   0   0   0   0   246 138 62  252 138 58  251 138 59  252 138 59  0   0   0   0   0   0   0   0   0   0   0   0   0   0   0   0   0   0   
0   0   0   0   0   0   0   0   0   0   0   0   0   0   0   0   0   0   0   0   0   0   0   0   0   0   0   0   0   0   0   0   0   0   0   0   164 118 87  197 128 75  0   0   0   0   0   0   0   0   0   0   0   0   248 139 60  217 132 71  220 134 71  0   0   0   0   0   0   0   0   0   0   0   0   0   0   0   0   0   0   
