P3
8 8
255
0   0   0   33  36  43  33  36  43  32  36  45  32  36  48  32  36  47  0   0   0   0   0   0   
33  36  41  5   9   12  5   9   12  5   8   13  32  36  47  32  36  47  33  36  41  0   0   0   
32  38  36  196 215 164 5   10  4   196 215 164 5   8   13  33  36  43  33  36  41  33  36  41  
32  38  36  4   10  6   5   10  4   5   10  6   5   8   13  32  36  45  0   0   0   0   0   0   
0   1   7   32  37  41  5   9   12  5   8   13  30  37  47  30  36  48  32  36  47  0   0   0   
0   0   0   72  76  85  32  36  45  32  36  47  30  36  50  70  76  90  32  36  47  32  36  45  
0   0   0   33  36  43  70  76  88  30  36  50  70  76  90  70  77  87  33  36  43  0   0   0   
0   0   0   0   0   0   30  36  50  69  76  92  30  36  50  0   0   0   0   0   0   0   0   0   
