P3
25 25
255
0   0   0   0   0   0   0   0   0   0   0   0   0   0   0   49  28  38  54  31  42  57  32  44  61  33  46  65  36  47  67  35  49  69  36  49  71  36  50  75  36  51  78  36  52  79  36  53  81  35  54  81  36  55  82  36  55  81  36  54  0   0   0   0   0   0   0   0   0   0   0   0   0   0   0   
0   0   0   0   0   0   0   0   0   38  19  30  41  23  30  48  26  37  52  29  39  56  30  41  59  31  43  63  33  45  65  34  45  67  34  46  69  33  47  73  33  49  76  34  49  77  34  50  79  33  51  79  33  51  80  33  52  79  33  52  77  31  50  78  32  52  0   0   0   0   0   0   0   0   0   
0   0   0   0   0   0   31  19  25  37  21  28  40  23  29  46  25  34  50  27  37  54  28  38  58  29  40  61  31  43  65  32  43  67  31  44  70  31  45  73  31  46  75  32  47  76  32  48  77  31  49  78  31  49  79  30  49  77  31  49  77  31  49  77  30  48  75  26  46  0   0   0   0   0   0   
0   0   0   26  17  19  33  18  24  36  20  27  39  22  28  45  24  31  49  26  34  53  27  36  57  28  38  60  30  41  65  29  41  68  29  42  72  30  43  74  30  44  76  31  46  76  31  46  78  29  46  79  29  45  80  28  46  78  29  46  77  29  46  76  28  46  72  26  44  67  25  43  0   0   0   
0   0   0   26  15  19  31  18  22  35  19  24  38  21  27  43  23  29  46  24  31  50  26  33  55  27  36  58  27  38  66  27  39  69  26  40  73  27  41  76  27  42  78  28  43  78  28  43  78  26  43  77  26  43  78  27  44  77  27  46  75  27  46  73  27  44  68  26  42  63  24  40  0   0   0   
26  15  18  28  17  21  30  18  22  33  20  24  36  21  27  40  22  28  43  23  31  46  25  33  50  26  35  54  26  37  59  26  38  61  26  39  65  26  40  68  26  42  71  25  43  71  25  43  72  25  43  72  25  43  71  26  45  69  28  47  66  27  46  63  27  44  58  26  41  55  25  39  50  23  37  
26  15  19  26  16  20  28  17  21  30  19  23  33  21  26  38  22  28  41  23  30  44  24  32  47  26  35  49  26  36  52  26  37  54  27  38  57  27  40  60  26  41  63  26  42  63  26  43  64  27  45  65  26  45  65  27  46  63  27  47  59  28  46  56  26  43  51  25  39  48  24  37  46  22  34  
24  14  17  27  15  19  28  17  20  29  18  22  30  22  27  57  46  58  69  40  55  75  32  47  70  30  42  53  28  37  48  27  38  50  28  39  52  28  41  55  27  42  58  27  43  59  27  44  66  28  47  84  29  54  99  33  64  107 38  72  75  32  58  50  26  43  45  24  37  42  22  33  40  21  31  
23  14  17  26  16  19  27  17  20  29  18  22  26  18  21  59  65  81  75  71  93  71  37  54  94  30  44  82  32  44  50  28  39  51  29  41  52  30  45  55  29  46  57  29  46  67  29  47  94  30  54  98  28  57  130 42  88  164 58  114 79  33  61  46  25  40  42  23  35  39  21  31  36  20  29  
23  14  17  25  16  19  26  17  20  29  19  22  27  16  20  34  42  51  58  92  111 52  59  75  65  22  32  117 36  51  67  29  43  55  30  44  55  31  48  57  32  49  58  32  49  97  31  54  112 29  54  94  32  64  149 59  116 133 50  99  57  26  46  45  25  38  39  22  33  36  21  30  33  19  27  
22  14  16  24  16  19  26  17  20  28  19  24  30  21  27  19  16  21  35  62  73  67  107 125 61  56  66  62  23  28  137 42  57  95  38  52  69  36  51  74  37  54  105 40  60  129 37  57  101 40  48  163 74  104 141 58  104 55  22  41  40  24  37  41  26  38  36  22  33  34  20  29  31  19  26  
21  14  16  24  15  18  25  17  20  27  20  24  30  23  29  25  19  24  22  26  32  66  84  89  130 111 88  98  59  41  99  28  35  132 45  58  108 46  64  122 50  72  137 45  66  94  42  43  153 101 81  176 99  100 88  38  57  43  24  37  40  31  45  38  29  39  34  23  31  31  20  27  29  17  24  
21  14  15  22  16  18  24  17  20  26  20  24  29  23  28  30  24  30  25  19  25  44  44  38  144 133 67  186 159 88  95  50  45  108 37  46  145 61  83  133 59  82  95  33  46  146 92  73  189 144 115 116 77  76  50  30  42  42  34  47  39  34  48  36  29  39  32  24  30  29  19  26  29  16  23  
21  13  16  22  16  19  23  18  21  25  20  24  28  23  29  30  26  34  31  26  34  30  25  29  76  76  49  173 177 111 161 141 127 92  51  55  93  36  50  90  36  49  120 46  54  206 116 111 148 96  90  63  42  49  44  37  50  42  40  53  37  35  47  34  29  38  30  23  29  28  20  25  28  17  23  
21  14  18  22  17  21  23  19  23  25  21  25  27  24  29  28  27  35  31  29  37  32  26  33  36  30  31  88  97  77  165 188 181 128 117 124 76  39  49  104 42  52  192 85  94  186 94  99  85  49  55  48  36  45  42  41  54  39  39  54  35  33  44  32  28  36  29  23  29  27  19  24  26  16  22  
22  15  19  22  17  21  23  19  23  25  22  25  27  24  29  28  27  34  30  27  35  33  27  34  34  25  29  27  21  25  104 111 116 156 174 187 148 116 133 187 94  111 213 102 115 69  35  39  41  28  35  41  35  44  39  38  49  36  37  48  32  31  41  30  27  34  27  22  28  25  19  24  24  16  21  
21  14  18  22  17  21  22  19  22  24  21  24  25  23  27  26  26  32  28  26  32  30  26  32  33  26  31  32  24  27  47  49  55  105 129 144 166 148 163 205 114 112 143 68  65  40  24  28  38  29  35  38  32  41  36  35  45  33  34  44  30  28  37  27  24  31  25  21  25  24  18  23  22  16  20  
20  15  17  21  16  20  21  18  21  22  20  23  23  22  25  24  24  28  26  25  29  27  24  30  29  24  29  31  24  27  29  24  28  49  63  74  111 108 119 134 82  76  72  36  33  37  24  28  34  27  32  33  29  35  32  31  38  31  29  37  28  26  32  25  22  27  24  19  23  23  18  21  21  15  18  
19  15  16  20  16  19  21  17  20  22  19  22  22  21  24  23  22  25  25  23  27  25  23  27  27  22  26  29  22  25  27  19  22  25  26  32  49  53  64  51  37  41  36  21  23  32  22  26  30  25  28  30  27  30  30  27  31  29  26  31  27  24  27  24  21  24  23  18  22  22  17  20  20  15  17  
17  13  13  20  15  16  21  15  17  21  17  19  21  19  21  23  20  23  23  20  24  24  21  24  25  20  23  26  20  22  25  19  21  20  15  18  21  17  23  25  19  23  29  20  22  28  20  23  27  22  25  27  24  27  27  24  27  26  23  27  24  21  24  22  18  21  21  16  19  20  15  17  16  14  13  
0   0   0   17  13  13  20  16  16  21  16  17  20  17  19  21  19  20  22  18  21  23  18  21  23  18  20  25  18  20  25  18  20  23  16  19  21  14  16  23  16  18  26  18  21  26  19  21  25  19  21  25  20  22  25  20  22  24  19  22  23  18  21  21  17  18  20  16  17  17  13  14  0   0   0   
0   0   0   17  14  14  18  14  14  18  15  15  19  16  16  20  16  17  20  16  18  20  16  18  20  16  18  22  16  18  23  16  18  22  15  17  21  15  17  21  14  16  23  15  18  23  16  18  22  16  18  23  17  19  22  17  19  22  17  19  21  16  18  20  15  17  18  14  15  17  14  15  0   0   0   
0   0   0   0   0   0   17  14  15  17  14  14  18  14  14  18  14  15  18  15  15  19  15  15  19  14  15  20  14  16  21  14  16  21  14  16  20  13  15  20  13  15  21  13  15  21  13  16  21  14  16  21  14  16  21  15  16  20  15  16  19  15  15  18  14  15  18  14  15  0   0   0   0   0   0   
0   0   0   0   0   0   0   0   0   17  14  15  16  13  14  17  14  15  17  14  15  18  14  15  18  14  15  19  14  15  19  14  15  20  13  15  19  13  14  19  13  14  20  12  14  20  13  15  20  13  15  20  13  15  20  14  15  19  14  15  16  12  12  17  14  15  0   0   0   0   0   0   0   0   0   
0   0   0   0   0   0   0   0   0   0   0   0   0   0   0   16  13  14  17  14  15  17  14  15  17  14  14  17  14  14  19  14  15  19  12  14  19  13  14  19  12  14  19  12  14  20  13  14  19  12  14  19  12  14  18  12  14  15  11  12  0   0   0   0   0   0   0   0   0   0   0   0   0   0   0   
