P3
5 5
255
0   0   0   158 21  21  158 21  21  158 21  21  0   0   0   
158 21  21  189 42  42  189 42  42  189 42  42  158 21  21  
158 21  21  189 42  42  189 42  42  189 42  42  158 21  21  
158 21  21  189 42  42  189 42  42  189 42  42  158 21  21  
0   0   0   158 21  21  158 21  21  158 21  21  0   0   0   
