P3
4 4
255
0   0   0   150 150 150 150 150 150 0   0   0   
150 150 150 184 184 184 184 184 184 150 150 150 
150 150 150 184 184 184 184 184 184 150 150 150 
0   0   0   150 150 150 150 150 150 0   0   0   
