P3
8 8
255
228 28  28  228 28  28  228 28  28  228 28  28  228 28  28  228 28  28  228 28  28  228 28  28  
228 28  28  153 229 80  0   0   0   0   0   0   0   0   0   0   0   0   153 229 80  228 28  28  
228 28  28  0   0   0   153 229 80  0   0   0   0   0   0   153 229 80  0   0   0   228 28  28  
228 28  28  0   0   0   0   0   0   153 229 80  153 229 80  0   0   0   0   0   0   228 28  28  
228 28  28  0   0   0   0   0   0   153 229 80  153 229 80  0   0   0   0   0   0   228 28  28  
228 28  28  0   0   0   153 229 80  0   0   0   0   0   0   153 229 80  0   0   0   228 28  28  
228 28  28  153 229 80  0   0   0   0   0   0   0   0   0   0   0   0   153 229 80  228 28  28  
228 28  28  228 28  28  228 28  28  228 28  28  228 28  28  228 28  28  228 28  28  228 28  28  
