P3
96 40
255
128 128 255 128 128 255 128 128 255 128 128 255 128 128 255 128 128 255 128 128 255 128 128 255 128 128 255 128 128 255 128 128 255 128 128 255 128 128 255 128 128 255 128 128 255 128 128 255 128 128 255 128 128 255 128 128 255 128 128 255 128 128 255 128 128 255 128 128 255 128 128 255 241 129 112 232 128 144 226 128 160 204 128 203 128 127 255 128 127 255 128 127 255 128 127 255 128 127 255 128 127 255 128 127 255 128 127 255 128 127 255 128 127 255 128 127 255 128 127 255 127 13  111 127 13  111 133 19  134 127 13  111 127 13  111 127 13  111 127 13  111 127 13  111 127 13  111 127 13  111 127 13  111 133 19  134 133 19  134 148 14  110 148 14  110 127 13  111 127 13  111 127 13  111 127 13  111 127 13  111 127 13  111 127 13  111 127 13  111 127 13  111 127 13  111 127 13  111 127 13  111 127 13  111 121 19  134 121 19  134 121 19  134 127 13  111 127 13  111 127 13  111 127 13  111 127 13  111 127 13  111 127 13  111 127 13  111 127 13  111 127 13  111 127 13  111 127 13  111 127 13  111 127 13  111 127 13  111 127 13  111 127 13  111 127 13  111 127 13  111 127 13  111 148 14  110 148 14  110 148 14  110 148 14  110 148 14  110 
128 128 255 128 128 255 128 128 255 128 128 255 128 128 255 128 128 255 128 128 255 128 128 255 128 128 255 128 128 255 128 128 255 128 128 255 128 128 255 128 128 255 128 128 255 128 128 255 128 128 255 128 128 255 128 128 255 128 128 255 128 128 255 128 128 255 128 128 255 128 128 255 237 128 126 232 128 144 226 128 160 204 128 203 128 127 255 128 127 255 128 127 255 128 127 255 128 127 255 128 127 255 128 127 255 128 127 255 128 127 255 128 127 255 128 127 255 128 127 255 127 13  111 121 19  134 133 19  134 133 19  134 127 13  111 127 13  111 127 13  111 127 13  111 127 13  111 127 13  111 133 19  134 133 19  134 133 19  134 127 13  111 127 13  111 127 13  111 127 13  111 127 13  111 127 13  111 127 13  111 127 13  111 127 13  111 127 13  111 127 13  111 121 19  134 121 19  134 127 13  111 127 13  111 121 19  134 121 19  134 121 19  134 127 13  111 127 13  111 127 13  111 127 13  111 127 13  111 127 13  111 127 13  111 127 13  111 127 13  111 127 13  111 127 13  111 127 13  111 127 13  111 127 13  111 127 13  111 127 13  111 127 13  111 127 13  111 127 13  111 127 13  111 148 14  110 148 14  110 127 13  111 148 14  110 148 14  110 
128 128 255 128 128 255 128 128 255 128 128 255 128 128 255 128 128 255 128 128 255 128 128 255 128 128 255 128 128 255 128 128 255 128 128 255 128 128 255 128 128 255 128 128 255 128 128 255 128 128 255 128 128 255 128 128 255 128 128 255 128 128 255 128 128 255 128 128 255 128 128 255 241 129 111 232 128 144 226 128 160 204 128 203 128 127 255 128 127 255 128 127 255 128 127 255 128 127 255 128 127 255 128 127 255 128 127 255 128 127 255 128 127 255 128 127 255 128 127 255 121 19  134 121 19  134 127 13  111 133 19  134 133 19  134 127 13  111 127 13  111 127 13  111 127 13  111 133 19  134 133 19  134 127 13  111 133 19  134 127 13  111 127 13  111 127 13  111 127 13  111 121 19  134 121 19  134 127 13  111 127 13  111 127 13  111 127 13  111 127 13  111 121 19  134 121 19  134 127 13  111 127 13  111 127 13  111 127 13  111 127 13  111 127 13  111 127 13  111 127 13  111 127 13  111 127 13  111 127 13  111 127 13  111 127 13  111 127 13  111 121 19  134 121 19  134 127 13  111 127 13  111 127 13  111 127 13  111 127 13  111 127 13  111 127 13  111 127 13  111 127 13  111 127 13  111 127 13  111 127 13  111 127 13  111 148 14  110 
128 128 255 128 128 255 128 128 255 128 128 255 128 128 255 128 128 255 128 128 255 128 128 255 128 128 255 128 128 255 128 128 255 128 128 255 128 128 255 128 128 255 128 128 255 128 128 255 128 128 255 128 128 255 128 128 255 128 128 255 128 128 255 128 128 255 128 128 255 128 128 255 241 129 111 232 127 144 226 128 160 204 128 203 128 127 255 128 127 255 128 127 255 128 127 255 128 127 255 128 127 255 128 127 255 128 127 255 128 127 255 128 127 255 128 127 255 128 127 255 121 19  134 121 19  134 133 19  134 133 19  134 133 19  134 133 19  134 133 19  134 133 19  134 133 19  134 133 19  134 133 19  134 127 13  111 127 13  111 133 19  134 127 13  111 127 13  111 127 13  111 121 19  134 121 19  134 127 13  111 127 13  111 127 13  111 127 13  111 127 13  111 127 13  111 133 19  134 133 19  134 133 19  134 127 13  111 127 13  111 133 19  134 127 13  111 127 13  111 127 13  111 127 13  111 127 13  111 127 13  111 127 13  111 127 13  111 127 13  111 121 19  134 121 19  134 127 13  111 127 13  111 121 19  134 121 19  134 121 19  134 127 13  111 127 13  111 127 13  111 127 13  111 127 13  111 127 13  111 127 13  111 127 13  111 127 13  111 
128 128 255 128 128 255 128 128 255 128 128 255 128 128 255 128 128 255 128 128 255 128 128 255 128 128 255 128 128 255 128 128 255 128 128 255 128 128 255 128 128 255 128 128 255 128 128 255 128 105 251 128 105 251 128 105 251 128 105 251 128 105 251 128 105 251 128 105 251 128 105 251 237 126 126 232 125 144 226 127 160 204 128 203 128 127 255 128 127 255 128 127 255 128 127 255 128 127 255 128 127 255 128 127 255 128 127 255 128 127 255 128 127 255 128 127 255 128 127 255 127 13  111 133 19  134 148 14  110 148 14  110 127 13  111 133 19  134 133 19  134 127 13  111 133 19  134 127 13  111 133 19  134 127 13  111 127 13  111 127 13  111 127 13  111 127 13  111 127 13  111 127 13  111 127 13  111 127 13  111 127 13  111 127 13  111 127 13  111 127 13  111 127 13  111 133 19  134 127 13  111 133 19  134 127 13  111 127 13  111 127 13  111 127 13  111 127 13  111 127 13  111 127 13  111 127 13  111 127 13  111 133 19  134 127 13  111 127 13  111 127 13  111 127 13  111 127 13  111 127 13  111 121 19  134 121 19  134 121 19  134 127 13  111 127 13  111 127 13  111 127 13  111 127 13  111 127 13  111 127 13  111 127 13  111 127 13  111 
128 128 255 128 128 255 128 128 255 128 128 255 128 128 255 128 128 255 128 128 255 128 128 255 128 128 255 128 128 255 128 128 255 128 128 255 128 128 255 128 128 255 128 128 255 128 128 255 132 62  219 132 62  219 132 62  219 132 62  219 132 62  219 132 62  219 132 62  219 132 62  219 240 127 117 230 122 148 224 126 164 202 128 206 164 127 244 128 127 255 128 127 255 128 127 255 128 127 255 128 127 255 128 127 255 128 127 255 128 127 255 128 127 255 128 127 255 128 127 255 133 19  134 148 14  110 127 13  111 127 13  111 127 13  111 121 19  134 121 19  134 133 19  134 133 19  134 133 19  134 133 19  134 133 19  134 133 19  134 127 13  111 133 19  134 133 19  134 133 19  134 127 13  111 127 13  111 127 13  111 127 13  111 127 13  111 127 13  111 133 19  134 133 19  134 133 19  134 133 19  134 133 19  134 133 19  134 133 19  134 133 19  134 133 19  134 133 19  134 133 19  134 133 19  134 127 13  111 133 19  134 133 19  134 133 19  134 133 19  134 133 19  134 133 19  134 127 13  111 133 19  134 127 13  111 127 13  111 133 19  134 133 19  134 133 19  134 133 19  134 127 13  111 133 19  134 127 13  111 127 13  111 133 19  134 133 19  134 
128 128 255 128 128 255 128 128 255 128 128 255 128 128 255 128 128 255 128 128 255 128 128 255 128 128 255 128 128 255 128 128 255 128 128 255 128 128 255 128 128 255 128 128 255 128 128 255 127 43  191 127 43  191 127 43  191 127 43  191 127 43  191 127 43  191 127 43  191 127 43  191 241 129 111 226 119 159 219 126 175 196 128 214 160 127 246 128 127 255 128 127 255 128 127 255 128 127 255 128 127 255 128 127 255 128 127 255 128 127 255 128 127 255 128 127 255 128 127 255 127 13  111 127 13  111 127 13  111 127 13  111 121 19  134 121 19  134 121 19  134 127 13  111 148 14  110 148 14  110 148 14  110 127 13  111 127 13  111 127 13  111 127 13  111 127 13  111 127 13  111 127 13  111 127 13  111 127 13  111 127 13  111 127 13  111 121 19  134 121 19  134 148 14  110 148 14  110 148 14  110 148 14  110 148 14  110 148 14  110 148 14  110 148 14  110 127 13  111 148 14  110 148 14  110 127 13  111 148 14  110 127 13  111 148 14  110 127 13  111 127 13  111 148 14  110 148 14  110 127 13  111 127 13  111 148 14  110 148 14  110 148 14  110 127 13  111 148 14  110 148 14  110 127 13  111 127 13  111 148 14  110 148 14  110 148 14  110 
128 128 255 128 128 255 128 128 255 128 128 255 128 128 255 128 128 255 128 128 255 128 128 255 128 128 255 128 128 255 128 128 255 128 128 255 128 128 255 128 128 255 128 128 255 128 128 255 127 13  111 127 13  111 127 13  111 127 13  111 127 13  111 127 13  111 127 13  111 127 13  111 241 129 111 214 117 185 206 125 200 183 128 229 144 127 253 128 127 255 128 127 255 128 127 255 128 127 255 128 127 255 128 127 255 128 127 255 128 127 255 128 127 255 128 127 255 128 127 255 127 13  111 127 13  111 127 13  111 127 13  111 127 13  111 127 13  111 127 13  111 127 13  111 127 13  111 127 13  111 127 13  111 127 13  111 127 13  111 127 13  111 127 13  111 127 13  111 127 13  111 127 13  111 127 13  111 127 13  111 127 13  111 127 13  111 121 19  134 121 19  134 127 13  111 127 13  111 127 13  111 127 13  111 127 13  111 127 13  111 127 13  111 127 13  111 127 13  111 127 13  111 127 13  111 127 13  111 127 13  111 127 13  111 127 13  111 127 13  111 127 13  111 127 13  111 127 13  111 127 13  111 127 13  111 127 13  111 127 13  111 127 13  111 127 13  111 127 13  111 127 13  111 127 13  111 127 13  111 127 13  111 127 13  111 127 13  111 
128 127 255 128 127 255 128 127 255 128 127 255 128 127 255 128 127 255 128 127 255 128 127 255 128 127 255 128 127 255 128 127 255 128 127 255 128 127 255 128 127 255 128 127 255 128 127 255 128 127 255 128 127 255 128 127 255 128 127 255 128 127 255 128 127 255 128 127 255 128 127 255 128 127 255 128 127 255 128 127 255 128 127 255 128 127 255 128 127 255 128 127 255 128 127 255 128 127 255 128 127 255 128 127 255 128 127 255 128 127 255 128 127 255 128 127 255 128 127 255 128 127 255 128 127 255 128 127 255 128 127 255 128 127 255 128 127 255 128 127 255 128 127 255 128 127 255 128 127 255 128 127 255 128 127 255 128 127 255 128 127 255 128 127 255 128 127 255 128 127 255 128 127 255 128 127 255 128 127 255 128 127 255 128 127 255 128 127 255 128 127 255 128 127 255 128 127 255 128 127 255 128 127 255 128 127 255 128 127 255 128 127 255 128 127 255 128 127 255 128 127 255 128 127 255 128 127 255 128 127 255 129 127 255 129 127 255 129 127 255 129 127 255 129 127 255 129 127 255 129 127 255 129 127 255 129 127 255 129 127 255 129 127 255 129 127 255 128 127 255 128 127 255 128 127 255 128 127 255 128 127 255 128 127 255 128 127 255 
128 127 255 128 127 255 128 127 255 128 127 255 128 127 255 128 127 255 128 127 255 128 127 255 128 127 255 128 127 255 128 127 255 128 127 255 128 127 255 128 127 255 128 127 255 128 127 255 128 127 255 128 127 255 128 127 255 128 127 255 128 127 255 128 127 255 128 127 255 128 127 255 128 127 255 128 127 255 128 127 255 128 127 255 128 127 255 128 127 255 128 127 255 128 127 255 128 127 255 128 127 255 128 127 255 128 127 255 128 127 255 128 127 255 128 127 255 128 127 255 128 127 255 128 127 255 128 127 255 128 127 255 128 127 255 128 127 255 128 127 255 128 127 255 128 127 255 128 127 255 128 127 255 128 127 255 128 127 255 128 127 255 128 127 255 128 127 255 128 127 255 128 127 255 128 127 255 128 127 255 128 127 255 128 127 255 128 127 255 128 127 255 128 127 255 128 127 255 128 127 255 128 127 255 128 127 255 128 127 255 128 127 255 128 127 255 128 127 255 128 127 255 128 127 255 128 127 255 128 127 255 128 127 255 129 127 255 129 127 255 129 127 255 129 127 255 129 127 255 129 127 255 129 127 255 129 127 255 129 127 255 129 127 255 129 127 255 128 127 255 128 127 255 128 127 255 128 127 255 128 127 255 128 127 255 128 127 255 
128 38  181 128 51  204 128 85  241 128 127 255 128 127 255 128 73  231 128 68  226 128 71  229 128 127 255 128 127 255 128 127 255 128 127 255 128 127 255 128 127 255 128 127 255 128 127 255 128 127 255 128 127 255 128 127 255 128 127 255 128 127 255 128 127 255 128 127 255 128 127 255 128 127 255 128 127 255 128 127 255 128 127 255 128 127 255 128 127 255 128 127 255 128 127 255 128 127 255 128 127 255 128 127 255 128 127 255 128 127 255 128 127 255 128 127 255 128 127 255 128 127 255 128 127 255 128 127 255 128 127 255 128 127 255 128 127 255 128 127 255 128 127 255 128 127 255 128 127 255 128 127 255 128 127 255 128 127 255 128 127 255 128 127 255 128 127 255 128 127 255 128 127 255 128 127 255 128 127 255 128 127 255 128 127 255 128 127 255 128 127 255 128 127 255 128 127 255 128 127 255 128 127 255 128 127 255 128 127 255 128 127 255 128 127 255 128 127 255 128 127 255 128 127 255 128 127 255 128 127 255 128 127 255 129 127 255 129 127 255 129 127 255 129 127 255 129 127 255 129 127 255 129 127 255 129 127 255 129 127 255 129 127 255 129 127 255 128 127 255 128 127 255 128 127 255 128 127 255 128 127 255 128 127 255 128 127 255 
127 24  148 127 32  168 128 41  188 128 48  200 128 49  201 128 46  197 128 45  195 128 51  205 128 127 255 128 127 255 128 127 255 128 127 255 128 127 255 128 127 255 128 127 255 128 127 255 128 127 255 128 127 255 128 127 255 128 127 255 128 127 255 128 127 255 128 127 255 128 127 255 128 127 255 128 127 255 128 127 255 128 127 255 128 127 255 128 127 255 128 127 255 128 127 255 128 127 255 128 127 255 128 127 255 128 127 255 128 127 255 128 127 255 128 127 255 128 127 255 128 127 255 128 127 255 128 127 255 128 127 255 128 127 255 128 127 255 128 127 255 128 127 255 128 127 255 128 127 255 128 127 255 128 127 255 128 127 255 128 127 255 128 127 255 128 127 255 128 127 255 128 127 255 128 127 255 128 127 255 128 127 255 128 127 255 128 127 255 128 127 255 128 127 255 128 127 255 128 127 255 128 127 255 128 127 255 128 127 255 128 127 255 128 127 255 128 127 255 128 127 255 128 127 255 128 127 255 128 127 255 128 127 255 129 127 255 129 127 255 129 127 255 129 127 255 129 127 255 129 127 255 129 127 255 129 127 255 129 127 255 129 127 255 129 127 255 128 127 255 128 127 255 128 127 255 128 127 255 128 127 255 128 127 255 128 127 255 
127 18  132 127 22  144 127 27  156 127 30  164 127 30  164 127 30  164 127 31  167 128 40  186 128 127 255 128 127 255 128 127 255 128 127 255 128 127 255 128 127 255 128 127 255 128 127 255 128 127 255 128 127 255 128 127 255 128 127 255 128 127 255 128 127 255 128 127 255 128 127 255 128 127 255 128 127 255 128 127 255 128 127 255 128 127 255 128 127 255 128 127 255 128 127 255 128 127 255 128 127 255 128 127 255 128 127 255 128 127 255 128 127 255 128 127 255 128 127 255 128 127 255 128 127 255 128 127 255 128 127 255 128 127 255 128 127 255 128 127 255 128 127 255 128 127 255 128 127 255 128 127 255 128 127 255 128 127 255 128 127 255 128 127 255 128 127 255 128 127 255 128 127 255 128 127 255 128 127 255 128 127 255 128 127 255 128 127 255 128 127 255 128 127 255 128 127 255 128 127 255 128 127 255 128 127 255 128 127 255 128 127 255 128 127 255 128 127 255 128 127 255 128 127 255 128 127 255 128 127 255 128 127 255 128 127 255 128 127 255 128 127 255 128 127 255 128 127 255 128 127 255 128 127 255 128 127 255 128 127 255 128 127 255 128 127 255 128 127 255 128 127 255 128 127 255 128 127 255 128 127 255 128 127 255 128 127 255 
127 13  111 127 13  111 127 22  144 127 19  134 127 22  143 127 23  145 127 14  117 127 13  111 128 127 255 128 127 255 128 127 255 128 127 255 128 127 255 128 127 255 128 127 255 128 127 255 128 127 255 128 127 255 128 127 255 128 127 255 128 127 255 128 127 255 128 127 255 128 127 255 128 127 255 128 127 255 128 127 255 128 127 255 128 127 255 128 127 255 128 127 255 128 127 255 128 127 255 128 127 255 128 127 255 128 127 255 128 127 255 128 127 255 128 127 255 128 127 255 128 127 255 128 127 255 128 127 255 128 127 255 128 127 255 128 127 255 128 127 255 128 127 255 128 127 255 128 127 255 128 127 255 128 127 255 128 127 255 128 127 255 128 127 255 128 127 255 128 127 255 128 127 255 128 127 255 128 127 255 128 127 255 128 127 255 128 127 255 128 127 255 128 127 255 128 127 255 128 127 255 128 127 255 128 127 255 128 127 255 128 127 255 128 127 255 128 127 255 128 127 255 128 127 255 128 127 255 128 127 255 128 127 255 129 127 255 129 127 255 128 127 255 128 127 255 128 127 255 128 127 255 128 127 255 128 127 255 128 127 255 128 127 255 128 127 255 128 127 255 128 127 255 128 127 255 128 127 255 128 127 255 128 127 255 128 127 255 
128 128 255 127 13  111 127 13  111 127 13  111 127 13  114 127 13  111 127 13  111 128 128 255 128 127 255 128 127 255 128 127 255 128 127 255 128 127 255 128 127 255 128 127 255 128 127 255 128 127 255 128 127 255 128 127 255 128 127 255 128 127 255 128 127 255 128 127 255 128 127 255 128 127 255 128 127 255 128 127 255 128 127 255 128 127 255 128 127 255 128 127 255 128 127 255 128 127 255 128 127 255 128 127 255 128 127 255 128 127 255 128 127 255 128 127 255 128 127 255 128 127 255 128 127 255 128 127 255 128 127 255 128 127 255 128 127 255 128 127 255 128 127 255 128 127 255 128 127 255 128 127 255 128 127 255 128 127 255 128 127 255 128 127 255 128 127 255 128 127 255 128 127 255 128 127 255 128 127 255 128 127 255 128 127 255 128 127 255 128 127 255 128 127 255 128 127 255 128 127 255 128 127 255 128 127 255 128 127 255 128 127 255 128 127 255 128 127 255 128 127 255 128 127 255 128 127 255 128 127 255 128 127 255 128 127 255 128 127 255 128 127 255 128 127 255 128 127 255 128 127 255 128 127 255 128 127 255 128 127 255 128 127 255 128 127 255 128 127 255 128 127 255 128 127 255 128 127 255 128 127 255 128 127 255 128 127 255 
128 128 255 128 128 255 127 13  111 127 13  111 127 13  111 127 13  111 128 128 255 128 127 255 128 127 255 128 127 255 128 127 255 128 127 255 128 127 255 128 127 255 128 127 255 128 127 255 128 127 255 128 127 255 128 127 255 128 127 255 128 127 255 128 127 255 128 127 255 128 127 255 128 127 255 128 127 255 128 127 255 128 127 255 128 127 255 128 127 255 128 127 255 128 127 255 128 127 255 128 127 255 128 127 255 128 127 255 128 127 255 128 127 255 128 127 255 128 127 255 128 127 255 128 127 255 128 127 255 128 127 255 128 127 255 128 127 255 128 127 255 128 127 255 128 127 255 128 127 255 128 127 255 128 127 255 128 127 255 128 127 255 128 127 255 128 127 255 128 127 255 128 127 255 128 127 255 128 127 255 128 127 255 128 127 255 128 127 255 128 127 255 128 127 255 128 127 255 128 127 255 128 127 255 128 127 255 128 127 255 128 127 255 128 127 255 128 127 255 128 127 255 128 127 255 128 127 255 128 127 255 128 127 255 128 127 255 128 127 255 128 127 255 128 127 255 128 127 255 128 127 255 128 127 255 128 127 255 128 127 255 128 127 255 128 127 255 128 127 255 128 127 255 128 127 255 128 127 255 128 127 255 128 127 255 128 127 255 
128 127 255 128 127 255 128 127 255 128 127 255 128 127 255 128 127 255 128 127 255 128 127 255 128 127 255 128 127 255 128 127 255 128 127 255 128 127 255 128 127 255 128 98  248 128 98  248 128 127 255 139 127 254 146 127 252 166 127 243 128 127 255 128 127 255 128 127 255 128 127 255 128 127 255 128 127 255 128 127 255 128 127 255 128 127 255 128 127 255 128 127 255 128 127 255 128 127 255 128 127 255 128 127 255 128 127 255 128 127 255 128 127 255 128 127 255 128 127 255 128 127 255 128 127 255 128 127 255 128 127 255 128 127 255 128 127 255 119 127 254 26  123 154 128 127 255 128 127 255 128 127 255 128 127 255 128 127 255 128 127 255 128 127 255 128 127 255 127 28  160 128 44  193 128 39  183 128 33  172 128 37  180 128 39  183 128 44  193 127 36  178 128 127 255 128 127 255 128 127 255 128 127 255 128 127 255 128 127 255 128 127 255 128 127 255 128 127 255 128 127 255 128 127 255 128 127 255 128 127 255 128 127 255 129 127 255 129 127 255 129 127 255 123 48  199 120 26  154 113 32  166 106 46  192 104 64  216 113 75  231 129 80  237 148 81  234 165 81  225 173 73  211 170 56  192 158 38  171 144 29  159 135 33  171 128 127 255 
128 127 255 128 127 255 128 127 255 128 127 255 128 127 255 128 127 255 128 127 255 128 127 255 128 127 255 128 127 255 128 127 255 128 127 255 128 127 255 128 68  226 129 71  228 128 98  248 129 127 255 143 127 253 153 127 250 161 128 245 164 128 244 128 127 255 128 127 255 128 127 255 128 127 255 128 127 255 128 119 254 128 123 255 128 125 255 128 127 255 128 127 255 128 127 255 128 127 255 128 127 255 128 127 255 128 125 255 128 124 255 128 123 255 128 122 255 128 127 255 128 127 255 128 127 255 128 127 255 128 127 255 128 127 255 90  126 244 84  125 240 14  122 117 128 127 255 128 127 255 128 127 255 128 127 255 128 127 255 128 127 255 128 127 255 128 127 255 128 58  215 128 44  193 128 39  183 128 37  180 128 37  180 128 39  183 128 44  193 128 58  215 128 127 255 128 127 255 128 127 255 128 127 255 128 127 255 128 127 255 128 127 255 128 127 255 128 127 255 128 127 255 128 127 255 128 127 255 128 127 255 128 127 255 129 127 255 129 127 255 129 127 255 123 46  196 121 24  148 114 28  159 106 42  185 101 62  213 108 74  229 127 80  237 150 81  233 170 80  221 177 71  206 171 53  187 156 35  166 142 27  155 134 32  168 128 127 255 
128 127 255 128 127 255 128 127 255 128 127 255 128 127 255 128 127 255 128 127 255 128 127 255 128 127 255 128 100 249 129 98  248 128 127 255 128 127 255 128 63  220 129 60  217 128 127 255 133 127 255 145 127 253 158 128 247 170 128 240 177 129 235 187 131 224 174 129 237 128 127 255 128 127 255 130 109 252 128 105 251 128 113 253 128 122 255 128 126 255 127 18  130 128 52  206 128 56  212 127 27  158 128 127 255 128 119 254 128 116 254 128 115 254 128 116 254 128 127 255 128 127 255 128 127 255 128 127 255 128 127 255 128 127 255 47  124 197 29  123 163 13  122 111 128 127 255 128 127 255 128 127 255 128 127 255 128 127 255 128 127 255 128 127 255 128 127 255 128 127 255 128 127 255 128 127 255 128 127 255 128 127 255 128 127 255 128 127 255 128 127 255 128 127 255 128 127 255 128 127 255 128 127 255 128 127 255 128 127 255 128 127 255 128 127 255 128 127 255 128 127 255 128 127 255 128 127 255 128 127 255 129 127 255 129 127 255 129 127 255 129 127 255 126 29  162 124 20  139 117 24  149 109 35  173 91  72  218 107 67  221 124 72  230 148 74  228 168 73  215 174 63  198 166 44  178 150 30  157 138 24  149 129 21  140 128 127 255 
128 127 255 128 127 255 128 127 255 128 127 255 128 127 255 128 127 255 128 127 255 128 127 255 128 127 255 129 92  245 130 80  237 131 56  212 128 127 255 128 71  228 128 127 255 128 127 255 133 127 255 146 127 252 160 128 246 174 129 237 184 130 227 189 130 223 184 130 227 128 127 255 128 127 255 132 80  237 129 81  238 128 97  248 128 111 253 128 38  181 128 45  194 128 40  186 128 41  187 128 67  225 127 18  132 128 107 252 128 101 250 128 100 249 128 101 250 128 127 255 128 127 255 128 127 255 128 127 255 128 127 255 128 127 255 39  123 183 30  123 164 13  122 111 128 127 255 128 127 255 128 127 255 128 127 255 128 127 255 128 127 255 128 127 255 128 127 255 128 127 255 128 127 255 128 127 255 128 127 255 128 127 255 128 127 255 128 127 255 128 127 255 128 127 255 128 127 255 128 127 255 128 127 255 128 127 255 128 127 255 128 127 255 128 127 255 128 127 255 128 127 255 128 127 255 128 127 255 128 127 255 129 127 255 129 127 255 129 127 255 129 127 255 127 30  164 124 23  145 120 21  140 113 28  158 107 40  182 109 51  201 96  72  221 143 58  211 161 57  201 167 51  187 157 35  166 145 25  149 135 24  147 127 13  111 128 127 255 
128 127 255 128 127 255 128 127 255 128 127 255 128 127 255 128 127 255 128 127 255 128 127 255 128 127 255 130 83  239 128 69  227 128 44  193 128 127 255 128 127 255 128 127 255 128 127 255 128 128 255 145 120 252 160 120 246 175 123 236 188 127 224 195 130 216 193 130 218 181 130 231 128 127 255 134 58  214 129 56  211 128 68  226 128 89  243 129 198 211 128 83  239 128 75  233 128 76  233 128 86  241 129 200 209 128 103 250 128 87  242 128 76  233 128 76  234 128 127 255 128 127 255 128 127 255 128 127 255 128 127 255 128 127 255 40  123 186 31  123 167 13  122 111 128 127 255 128 127 255 128 127 255 128 127 255 128 127 255 128 127 255 128 127 255 128 127 255 128 127 255 128 127 255 128 127 255 128 127 255 128 127 255 128 127 255 128 127 255 128 127 255 128 127 255 128 127 255 128 127 255 128 127 255 128 127 255 128 127 255 128 127 255 128 127 255 128 127 255 128 127 255 128 127 255 128 127 255 129 127 255 129 127 255 129 127 255 129 127 255 129 127 255 126 72  229 124 37  181 123 20  136 119 22  143 115 28  157 115 33  170 123 36  177 136 37  178 148 36  173 152 33  164 147 27  152 139 23  146 132 26  153 130 31  166 128 127 255 
128 127 255 128 127 255 128 127 255 128 127 255 128 127 255 128 127 255 128 127 255 128 127 255 128 127 255 128 127 255 128 42  189 128 37  180 128 127 255 128 127 255 128 127 255 128 127 255 128 128 255 143 104 249 156 105 244 172 112 236 187 121 225 196 127 215 196 130 214 185 130 227 128 127 255 134 43  191 129 48  200 126 65  222 125 68  226 129 188 223 129 176 235 129 134 255 129 172 238 129 195 215 129 210 194 128 74  232 128 57  213 128 49  201 130 67  224 128 127 255 128 127 255 128 127 255 128 127 255 128 127 255 104 126 251 48  124 199 37  123 179 13  122 111 128 127 255 128 127 255 128 127 255 128 127 255 128 127 255 128 127 255 128 127 255 128 127 255 128 127 255 128 127 255 128 127 255 128 127 255 128 127 255 128 127 255 128 127 255 128 127 255 128 127 255 128 127 255 128 127 255 128 127 255 128 127 255 128 127 255 128 127 255 128 127 255 128 127 255 128 127 255 128 127 255 129 127 255 129 127 255 129 127 255 129 127 255 129 127 255 129 127 255 129 127 255 126 43  192 125 24  150 123 20  136 121 21  140 121 23  145 125 24  148 131 24  149 137 24  148 139 23  145 138 23  145 134 25  151 131 33  171 128 127 255 128 127 255 
128 127 255 128 127 255 128 127 255 128 127 255 128 127 255 128 127 255 128 127 255 128 127 255 128 127 255 128 127 255 128 46  196 128 39  184 128 48  199 128 127 255 128 127 255 128 127 255 128 127 255 128 128 255 150 85  236 165 95  235 180 111 229 190 123 221 192 129 220 182 130 229 128 127 255 135 58  213 129 56  212 126 58  214 125 80  237 125 111 253 129 241 111 129 212 190 129 179 233 129 230 150 158 92  237 149 76  229 139 51  202 135 62  218 132 59  215 128 127 255 128 127 255 128 127 255 128 127 255 128 127 255 128 127 255 61  124 218 45  124 195 13  122 111 128 127 255 128 127 255 128 127 255 128 127 255 128 127 255 128 127 255 128 127 255 128 127 255 128 127 255 128 127 255 128 127 255 128 127 255 128 127 255 128 127 255 128 127 255 128 127 255 128 127 255 128 127 255 128 127 255 128 127 255 128 127 255 128 127 255 128 127 255 128 127 255 128 127 255 128 127 255 129 127 255 129 127 255 129 127 255 129 127 255 129 127 255 129 127 255 129 127 255 128 120 255 127 60  217 127 25  152 126 22  144 125 28  159 126 16  123 126 21  140 129 21  140 131 21  141 133 29  162 133 33  170 133 42  190 128 127 255 128 127 255 128 127 255 
128 127 255 128 127 255 128 127 255 128 127 255 128 127 255 128 127 255 128 127 255 128 127 255 128 127 255 128 127 255 128 127 255 128 52  206 128 95  247 128 127 255 128 127 255 128 127 255 127 13  111 127 13  111 127 13  111 133 27  156 167 105 238 177 120 234 179 127 233 176 130 236 128 127 255 132 65  223 127 55  211 125 59  215 124 74  232 123 99  249 121 119 254 131 111 253 127 31  167 150 103 246 155 88  236 154 69  220 140 54  207 137 54  208 133 52  205 128 127 255 128 127 255 128 127 255 128 127 255 128 127 255 121 127 255 81  125 237 67  124 225 13  122 111 128 127 255 128 127 255 128 127 255 128 127 255 128 127 255 128 127 255 128 127 255 128 127 255 128 127 255 128 127 255 128 127 255 128 127 255 128 127 255 128 127 255 128 127 255 128 127 255 128 127 255 128 127 255 128 127 255 128 127 255 128 127 255 128 127 255 128 127 255 128 127 255 128 127 255 129 127 255 129 127 255 129 127 255 129 127 255 129 127 255 129 127 255 129 127 255 129 127 255 129 127 255 129 127 255 129 127 255 127 35  175 127 30  164 127 28  160 127 19  136 129 40  185 130 38  182 131 39  184 130 46  196 128 127 255 128 127 255 128 127 255 128 127 255 
128 124 255 128 125 255 128 125 255 128 127 255 128 124 255 128 127 255 128 121 255 128 122 255 128 127 255 128 127 255 128 127 255 128 127 255 128 127 255 128 127 255 128 127 255 128 127 255 128 127 255 128 127 255 128 127 255 128 127 255 128 127 255 128 127 255 128 127 255 128 127 255 128 127 255 128 127 255 128 127 255 128 127 255 128 127 255 128 127 255 128 127 255 128 127 255 128 127 255 128 127 255 128 127 255 128 127 255 128 127 255 128 127 255 128 127 255 128 127 255 128 127 255 128 127 255 128 127 255 128 127 255 128 127 255 128 127 255 128 127 255 128 127 255 128 127 255 128 127 255 128 127 255 128 127 255 128 127 255 128 127 255 128 127 255 128 127 255 128 127 255 128 127 255 128 127 255 128 127 255 128 127 255 128 127 255 128 127 255 128 127 255 128 127 255 128 127 255 128 127 255 128 127 255 128 127 255 128 127 255 128 127 255 128 127 255 129 121 255 129 120 255 129 122 255 129 127 255 129 127 255 129 126 255 129 126 255 129 127 255 129 127 255 129 116 254 128 105 251 129 127 255 129 127 255 129 127 255 129 127 255 129 127 255 129 127 255 128 127 255 128 127 255 128 127 255 128 127 255 128 127 255 128 127 255 128 127 255 
129 118 254 129 119 254 128 119 254 128 122 255 129 120 255 129 115 254 129 115 254 129 117 254 128 127 255 128 127 255 128 127 255 128 127 255 128 127 255 128 127 255 128 127 255 128 127 255 128 127 255 128 127 255 128 127 255 128 127 255 128 127 255 128 127 255 128 127 255 128 127 255 128 127 255 128 127 255 128 127 255 128 127 255 128 127 255 128 127 255 128 127 255 128 127 255 128 127 255 128 127 255 128 127 255 128 127 255 128 127 255 128 127 255 128 127 255 128 127 255 128 127 255 128 127 255 128 127 255 128 127 255 128 127 255 128 127 255 128 127 255 128 127 255 128 127 255 128 127 255 128 127 255 128 127 255 128 127 255 128 127 255 128 127 255 128 127 255 128 127 255 128 127 255 128 127 255 128 127 255 128 127 255 128 127 255 128 127 255 128 127 255 128 127 255 128 127 255 128 127 255 128 127 255 128 127 255 128 127 255 128 127 255 128 127 255 129 111 253 129 107 252 129 111 253 129 111 253 129 115 254 129 117 254 129 117 254 129 117 254 129 124 255 129 127 255 129 127 255 129 113 253 129 91  245 129 89  243 129 127 255 129 94  246 129 127 255 129 127 255 128 127 255 128 127 255 128 127 255 128 127 255 128 127 255 128 127 255 
129 109 252 129 107 252 129 115 254 129 109 252 128 121 255 129 104 251 129 104 251 129 108 252 128 127 255 128 127 255 128 127 255 128 127 255 128 127 255 128 127 255 128 127 255 128 127 255 128 127 255 128 127 255 128 127 255 128 127 255 128 127 255 128 127 255 128 127 255 128 127 255 128 127 255 128 127 255 128 127 255 128 127 255 128 127 255 128 127 255 128 127 255 128 127 255 128 127 255 128 127 255 128 127 255 128 127 255 128 127 255 128 127 255 128 127 255 128 127 255 128 127 255 128 127 255 128 127 255 128 127 255 128 127 255 128 127 255 128 127 255 128 127 255 128 127 255 128 127 255 128 127 255 128 127 255 128 127 255 128 127 255 128 127 255 128 127 255 128 127 255 128 127 255 128 127 255 128 127 255 128 127 255 128 127 255 128 127 255 128 127 255 128 127 255 128 127 255 128 127 255 128 127 255 128 127 255 128 127 255 128 127 255 129 127 255 130 66  224 129 91  244 129 90  244 129 94  246 129 98  248 129 100 249 129 101 249 129 101 249 129 100 249 129 127 255 129 95  247 129 90  244 130 73  231 129 83  239 129 92  245 129 113 253 129 127 255 129 127 255 128 127 255 128 127 255 128 127 255 128 127 255 128 127 255 128 127 255 
129 91  245 129 88  243 129 93  245 129 89  243 129 97  248 129 88  243 129 90  244 131 67  225 128 127 255 128 127 255 128 127 255 128 127 255 128 127 255 128 127 255 128 127 255 128 127 255 128 127 255 128 127 255 128 127 255 128 127 255 128 127 255 128 127 255 128 127 255 128 127 255 128 127 255 128 127 255 128 127 255 128 127 255 128 127 255 128 127 255 128 127 255 128 127 255 128 127 255 128 127 255 128 127 255 128 127 255 128 127 255 128 127 255 128 127 255 128 127 255 128 127 255 128 127 255 128 127 255 128 127 255 128 127 255 128 127 255 128 127 255 128 127 255 128 127 255 128 127 255 128 127 255 128 127 255 128 127 255 128 127 255 128 127 255 128 127 255 128 127 255 128 127 255 128 127 255 128 127 255 128 127 255 128 127 255 128 127 255 128 127 255 128 127 255 128 127 255 128 127 255 128 127 255 128 127 255 128 127 255 129 127 255 129 127 255 129 88  243 129 77  234 130 72  230 130 71  229 130 72  230 130 74  232 130 79  236 130 79  236 130 79  236 130 70  227 130 69  227 130 75  233 130 73  231 130 74  232 130 79  236 129 90  244 129 127 255 129 127 255 128 127 255 128 127 255 128 127 255 128 127 255 128 127 255 128 127 255 
130 68  226 130 71  229 129 75  232 129 76  233 129 73  231 130 70  227 130 70  228 129 79  236 128 127 255 128 127 255 128 127 255 128 127 255 128 127 255 128 127 255 128 127 255 128 127 255 128 127 255 128 127 255 128 127 255 128 127 255 128 127 255 128 127 255 128 127 255 128 127 255 128 127 255 128 127 255 128 127 255 128 127 255 128 127 255 128 127 255 128 127 255 128 127 255 128 127 255 128 127 255 128 127 255 128 127 255 128 127 255 128 127 255 128 127 255 128 127 255 128 127 255 128 127 255 128 127 255 128 127 255 128 127 255 128 127 255 128 127 255 128 127 255 128 127 255 128 127 255 128 127 255 128 127 255 128 127 255 128 127 255 128 127 255 128 127 255 128 127 255 128 127 255 128 127 255 128 127 255 128 127 255 128 127 255 128 127 255 128 127 255 128 127 255 128 127 255 128 127 255 128 127 255 128 127 255 129 127 255 129 127 255 129 127 255 129 71  229 129 58  214 129 52  205 129 50  202 130 60  216 130 59  215 129 51  205 129 50  202 130 60  217 130 61  217 130 61  218 130 62  218 130 61  218 130 61  217 130 64  221 130 75  233 129 127 255 129 127 255 129 127 255 128 127 255 128 127 255 128 127 255 128 127 255 128 127 255 
132 61  218 129 47  198 132 62  218 129 51  204 129 50  203 129 50  203 129 51  204 128 62  220 128 127 255 128 127 255 128 127 255 128 127 255 128 127 255 128 127 255 128 127 255 128 127 255 128 127 255 128 127 255 128 127 255 128 127 255 128 127 255 128 127 255 128 127 255 128 127 255 128 127 255 128 127 255 128 127 255 128 127 255 128 127 255 128 127 255 128 127 255 128 127 255 128 127 255 128 127 255 128 127 255 128 127 255 128 127 255 128 127 255 128 127 255 128 127 255 128 127 255 128 127 255 128 127 255 128 127 255 128 127 255 128 127 255 128 127 255 128 127 255 128 127 255 128 127 255 128 127 255 128 127 255 128 127 255 128 127 255 128 127 255 128 127 255 128 127 255 128 127 255 128 127 255 128 127 255 128 127 255 128 127 255 128 127 255 128 127 255 128 127 255 128 127 255 128 127 255 128 127 255 128 127 255 129 127 255 129 127 255 129 127 255 128 40  185 128 40  186 128 40  185 128 38  181 128 36  178 128 35  176 128 34  174 129 35  175 129 36  179 130 42  189 130 52  205 129 42  190 129 37  180 129 37  180 128 37  179 129 34  174 129 127 255 129 127 255 129 127 255 128 127 255 128 127 255 128 127 255 128 127 255 128 127 255 
128 24  149 128 26  156 127 35  176 128 35  176 128 32  170 128 34  174 128 40  185 128 43  191 128 127 255 128 127 255 128 127 255 128 127 255 128 127 255 128 127 255 128 127 255 128 127 255 128 127 255 128 127 255 128 127 255 128 127 255 128 127 255 128 127 255 128 127 255 128 127 255 128 127 255 128 127 255 128 127 255 128 127 255 128 127 255 128 127 255 128 127 255 128 127 255 128 127 255 128 127 255 128 127 255 128 127 255 128 127 255 128 127 255 128 127 255 128 127 255 128 127 255 128 127 255 128 127 255 128 127 255 128 127 255 128 127 255 128 127 255 128 127 255 128 127 255 128 127 255 128 127 255 128 127 255 128 127 255 128 127 255 128 127 255 128 127 255 128 127 255 128 127 255 128 127 255 128 127 255 128 127 255 128 127 255 128 127 255 128 127 255 128 127 255 128 127 255 128 127 255 128 127 255 128 127 255 129 127 255 129 127 255 129 127 255 128 34  174 128 35  176 128 34  173 128 30  164 128 28  159 128 25  153 128 24  149 128 24  148 128 24  148 128 24  150 128 25  151 128 25  152 128 25  152 128 26  153 128 26  156 128 27  158 129 127 255 129 127 255 129 127 255 128 127 255 128 127 255 128 127 255 128 127 255 128 127 255 
127 17  126 128 18  130 127 19  134 127 17  129 127 19  135 127 20  137 127 23  146 128 37  180 128 127 255 128 127 255 128 127 255 128 127 255 128 127 255 128 127 255 128 127 255 128 127 255 128 127 255 128 127 255 128 127 255 128 127 255 128 127 255 128 127 255 128 127 255 128 127 255 128 127 255 128 127 255 128 127 255 128 127 255 128 127 255 128 127 255 128 127 255 128 127 255 128 127 255 128 127 255 128 127 255 128 127 255 128 127 255 128 127 255 128 127 255 128 127 255 128 127 255 128 127 255 128 127 255 128 127 255 128 127 255 128 127 255 128 127 255 128 127 255 128 127 255 128 127 255 128 127 255 128 127 255 128 127 255 128 127 255 128 127 255 128 127 255 128 127 255 128 127 255 128 127 255 128 127 255 128 127 255 128 127 255 128 127 255 128 127 255 128 127 255 128 127 255 128 127 255 128 127 255 128 127 255 129 127 255 129 127 255 129 127 255 128 40  185 128 32  170 128 35  176 128 30  165 127 17  127 128 22  142 127 13  111 127 17  126 128 18  132 128 19  133 127 13  111 127 15  121 128 20  136 127 14  116 128 19  135 128 21  140 129 127 255 129 127 255 129 127 255 128 127 255 128 127 255 128 127 255 128 127 255 128 127 255 
127 127 255 127 127 255 127 127 255 127 127 255 127 127 255 127 127 255 127 109 253 127 127 255 128 128 255 128 128 255 128 128 255 128 128 255 128 128 255 128 128 255 128 128 255 128 128 255 128 128 255 128 128 255 128 128 255 128 128 255 128 128 255 128 128 255 128 128 255 128 128 255 128 128 255 128 128 255 128 128 255 128 128 255 128 128 255 128 128 255 128 128 255 128 128 255 128 128 255 128 128 255 128 128 255 128 128 255 128 128 255 128 128 255 128 128 255 128 128 255 128 128 255 128 128 255 128 128 255 128 128 255 128 128 255 128 128 255 128 128 255 128 128 255 128 128 255 128 128 255 128 128 255 128 128 255 128 128 255 128 128 255 128 128 255 128 128 255 128 128 255 128 128 255 128 128 255 128 128 255 128 128 255 128 128 255 128 128 255 128 128 255 128 128 255 128 128 255 128 128 255 128 128 255 128 128 255 128 128 255 128 128 255 128 128 255 128 128 255 128 128 255 128 128 255 128 128 255 128 128 255 128 128 255 128 128 255 128 128 255 128 128 255 128 128 255 128 128 255 128 128 255 128 128 255 128 128 255 128 128 255 128 128 255 128 128 255 128 128 255 128 128 255 128 128 255 128 128 255 128 128 255 128 128 255 128 128 255 
128 90  244 128 98  248 127 115 254 127 127 255 127 127 255 128 96  247 128 90  244 127 127 255 128 128 255 128 128 255 128 128 255 128 128 255 128 128 255 128 128 255 128 128 255 128 128 255 128 128 255 128 128 255 128 128 255 128 128 255 128 128 255 128 128 255 128 128 255 128 128 255 128 128 255 128 128 255 128 128 255 128 128 255 128 128 255 128 128 255 128 128 255 128 128 255 128 128 255 128 128 255 128 128 255 128 128 255 128 128 255 128 128 255 128 128 255 128 128 255 128 128 255 128 128 255 128 128 255 128 128 255 128 128 255 128 128 255 128 128 255 128 128 255 128 128 255 128 128 255 128 128 255 128 128 255 128 128 255 128 128 255 128 128 255 128 128 255 128 128 255 128 128 255 128 128 255 128 128 255 128 128 255 128 128 255 128 128 255 128 128 255 128 128 255 128 128 255 128 128 255 128 128 255 128 128 255 128 128 255 128 128 255 128 128 255 128 128 255 128 128 255 128 128 255 128 128 255 128 128 255 128 128 255 128 128 255 128 128 255 128 128 255 128 128 255 128 128 255 128 128 255 128 128 255 128 128 255 128 128 255 128 128 255 128 128 255 128 128 255 128 128 255 128 128 255 128 128 255 128 128 255 128 128 255 128 128 255 
129 73  231 129 75  233 129 80  237 129 85  241 128 100 249 129 86  241 129 85  241 130 70  228 128 128 255 128 128 255 128 128 255 128 128 255 128 128 255 128 128 255 128 128 255 128 128 255 128 128 255 128 128 255 128 128 255 128 128 255 128 128 255 128 128 255 128 128 255 128 128 255 128 128 255 128 128 255 128 128 255 128 128 255 128 128 255 128 128 255 128 128 255 128 128 255 128 128 255 128 128 255 128 128 255 128 128 255 128 128 255 128 128 255 128 128 255 128 128 255 128 128 255 128 128 255 128 128 255 128 128 255 128 128 255 128 128 255 128 128 255 128 128 255 128 128 255 128 128 255 128 128 255 128 128 255 128 128 255 128 128 255 128 128 255 128 128 255 128 128 255 128 128 255 128 128 255 128 128 255 128 128 255 128 128 255 128 128 255 128 128 255 128 128 255 128 128 255 128 128 255 128 128 255 128 128 255 128 128 255 128 128 255 128 128 255 128 128 255 128 128 255 128 128 255 128 128 255 128 128 255 128 128 255 128 128 255 128 128 255 128 128 255 128 128 255 128 128 255 128 128 255 128 128 255 128 128 255 128 128 255 128 128 255 128 128 255 128 128 255 128 128 255 128 128 255 128 128 255 128 128 255 128 128 255 128 128 255 
130 60  217 130 60  217 130 64  221 130 66  224 130 69  227 130 70  227 130 70  227 129 77  234 128 128 255 128 128 255 128 128 255 128 128 255 128 128 255 128 128 255 128 128 255 128 128 255 128 128 255 128 128 255 128 128 255 128 128 255 128 128 255 128 128 255 128 128 255 128 128 255 128 128 255 128 128 255 128 128 255 128 128 255 128 128 255 128 128 255 128 128 255 128 128 255 128 128 255 128 128 255 128 128 255 128 128 255 128 128 255 128 128 255 128 128 255 128 128 255 128 128 255 128 128 255 128 128 255 128 128 255 128 128 255 128 128 255 128 128 255 128 128 255 128 128 255 128 128 255 128 128 255 128 128 255 128 128 255 128 128 255 128 128 255 128 128 255 128 128 255 128 128 255 128 128 255 128 128 255 128 128 255 128 128 255 128 128 255 128 128 255 128 128 255 128 128 255 128 128 255 128 128 255 128 128 255 128 128 255 128 128 255 128 128 255 128 128 255 128 128 255 128 128 255 128 128 255 128 128 255 128 128 255 128 128 255 128 128 255 128 128 255 128 128 255 128 128 255 128 128 255 128 128 255 128 128 255 128 128 255 128 128 255 128 128 255 128 128 255 128 128 255 128 128 255 128 128 255 128 128 255 128 128 255 128 128 255 
130 43  192 130 48  199 130 50  202 130 51  205 130 53  208 130 56  212 130 54  209 130 64  222 128 128 255 128 128 255 128 128 255 128 128 255 128 128 255 128 128 255 128 128 255 128 128 255 128 128 255 128 128 255 128 128 255 128 128 255 128 128 255 128 128 255 128 128 255 128 128 255 128 128 255 128 128 255 128 128 255 128 128 255 128 128 255 128 128 255 128 128 255 128 128 255 128 128 255 128 128 255 128 128 255 128 128 255 128 128 255 128 128 255 128 128 255 128 128 255 128 128 255 128 128 255 128 128 255 128 128 255 128 128 255 128 128 255 128 128 255 128 128 255 128 128 255 128 128 255 128 128 255 128 128 255 128 128 255 128 128 255 128 128 255 128 128 255 128 128 255 128 128 255 128 128 255 128 128 255 128 128 255 128 128 255 128 128 255 128 128 255 128 128 255 128 128 255 128 128 255 128 128 255 128 128 255 128 128 255 128 128 255 128 128 255 128 128 255 128 128 255 128 128 255 128 128 255 128 128 255 128 128 255 128 128 255 128 128 255 128 128 255 128 128 255 128 128 255 128 128 255 128 128 255 128 128 255 128 128 255 128 128 255 128 128 255 128 128 255 128 128 255 128 128 255 128 128 255 128 128 255 128 128 255 128 128 255 
130 36  178 130 40  185 130 38  182 130 41  188 130 43  192 130 46  197 130 54  209 130 61  218 128 128 255 128 128 255 128 128 255 128 128 255 128 128 255 128 128 255 128 128 255 128 128 255 128 128 255 128 128 255 128 128 255 128 128 255 128 128 255 128 128 255 128 128 255 128 128 255 128 128 255 128 128 255 128 128 255 128 128 255 128 128 255 128 128 255 128 128 255 128 128 255 128 128 255 128 128 255 128 128 255 128 128 255 128 128 255 128 128 255 128 128 255 128 128 255 128 128 255 128 128 255 128 128 255 128 128 255 128 128 255 128 128 255 128 128 255 128 128 255 128 128 255 128 128 255 128 128 255 128 128 255 128 128 255 128 128 255 128 128 255 128 128 255 128 128 255 128 128 255 128 128 255 128 128 255 128 128 255 128 128 255 128 128 255 128 128 255 128 128 255 128 128 255 128 128 255 128 128 255 128 128 255 128 128 255 128 128 255 128 128 255 128 128 255 128 128 255 128 128 255 128 128 255 128 128 255 128 128 255 128 128 255 128 128 255 128 128 255 128 128 255 128 128 255 128 128 255 128 128 255 128 128 255 128 128 255 128 128 255 128 128 255 128 128 255 128 128 255 128 128 255 128 128 255 128 128 255 128 128 255 128 128 255 
130 32  169 130 33  172 130 36  177 130 36  179 130 37  180 130 39  183 130 47  198 130 63  220 128 128 255 128 128 255 128 128 255 128 128 255 128 128 255 128 128 255 128 128 255 128 128 255 128 128 255 128 128 255 128 128 255 128 128 255 128 128 255 128 128 255 128 128 255 128 128 255 128 128 255 128 128 255 128 128 255 128 128 255 128 128 255 128 128 255 128 128 255 128 128 255 128 128 255 128 128 255 128 128 255 128 128 255 128 128 255 128 128 255 128 128 255 128 128 255 128 128 255 128 128 255 128 128 255 128 128 255 128 128 255 128 128 255 128 128 255 128 128 255 128 128 255 128 128 255 128 128 255 128 128 255 128 128 255 128 128 255 128 128 255 128 128 255 128 128 255 128 128 255 128 128 255 128 128 255 128 128 255 128 128 255 128 128 255 128 128 255 128 128 255 128 128 255 128 128 255 128 128 255 128 128 255 128 128 255 128 128 255 128 128 255 128 128 255 128 128 255 128 128 255 128 128 255 128 128 255 128 128 255 128 128 255 128 128 255 128 128 255 128 128 255 128 128 255 128 128 255 128 128 255 128 128 255 128 128 255 128 128 255 128 128 255 128 128 255 128 128 255 128 128 255 128 128 255 128 128 255 128 128 255 128 128 255 
130 32  169 130 33  171 130 33  172 130 33  172 130 34  173 130 36  178 130 41  187 130 34  173 128 128 255 128 128 255 128 128 255 128 128 255 128 128 255 128 128 255 128 128 255 128 128 255 128 128 255 128 128 255 128 128 255 128 128 255 128 128 255 128 128 255 128 128 255 128 128 255 128 128 255 128 128 255 128 128 255 128 128 255 128 128 255 128 128 255 128 128 255 128 128 255 128 128 255 128 128 255 128 128 255 128 128 255 128 128 255 128 128 255 128 128 255 128 128 255 128 128 255 128 128 255 128 128 255 128 128 255 128 128 255 128 128 255 128 128 255 128 128 255 128 128 255 128 128 255 128 128 255 128 128 255 128 128 255 128 128 255 128 128 255 128 128 255 128 128 255 128 128 255 128 128 255 128 128 255 128 128 255 128 128 255 128 128 255 128 128 255 128 128 255 128 128 255 128 128 255 128 128 255 128 128 255 128 128 255 128 128 255 128 128 255 128 128 255 128 128 255 128 128 255 128 128 255 128 128 255 128 128 255 128 128 255 128 128 255 128 128 255 128 128 255 128 128 255 128 128 255 128 128 255 128 128 255 128 128 255 128 128 255 128 128 255 128 128 255 128 128 255 128 128 255 128 128 255 128 128 255 128 128 255 128 128 255 
