P3
96 40
255
128 128 255 128 128 255 128 128 255 128 128 255 128 128 255 128 128 255 128 128 255 128 128 255 128 128 255 128 128 255 128 128 255 128 128 255 128 128 255 128 128 255 128 128 255 128 128 255 128 128 255 128 128 255 128 128 255 128 128 255 128 128 255 128 128 255 128 128 255 128 128 255 63  38  128 63  35  119 84  47  179 116 82  238 127 117 254 128 127 255 128 127 255 128 127 255 128 127 255 128 127 255 128 127 255 128 127 255 128 127 255 128 127 255 128 127 255 128 127 255 127 13  111 121 19  134 133 19  134 133 19  134 127 13  111 127 13  111 127 13  111 127 13  111 127 13  111 127 13  111 133 19  134 133 19  134 133 19  134 127 13  111 127 13  111 127 13  111 127 13  111 127 13  111 127 13  111 127 13  111 127 13  111 127 13  111 127 13  111 127 13  111 121 19  134 121 19  134 127 13  111 127 13  111 121 19  134 121 19  134 121 19  134 127 13  111 127 13  111 127 13  111 127 13  111 127 13  111 127 13  111 127 13  111 127 13  111 127 13  111 127 13  111 127 13  111 127 13  111 127 13  111 127 13  111 127 13  111 127 13  111 127 13  111 127 13  111 127 13  111 127 13  111 148 14  110 148 14  110 127 13  111 148 14  110 148 14  110 
128 128 255 128 128 255 128 128 255 128 128 255 128 128 255 128 128 255 128 128 255 128 128 255 128 128 255 128 128 255 128 128 255 128 128 255 128 128 255 128 128 255 128 128 255 128 128 255 128 128 255 128 128 255 128 128 255 128 128 255 128 128 255 128 128 255 128 128 255 128 128 255 63  38  128 63  35  119 84  47  179 116 83  238 127 118 254 128 127 255 128 127 255 128 127 255 128 127 255 128 127 255 128 127 255 128 127 255 128 127 255 128 127 255 128 127 255 128 127 255 121 19  134 121 19  134 127 13  111 133 19  134 133 19  134 127 13  111 127 13  111 127 13  111 127 13  111 133 19  134 133 19  134 127 13  111 133 19  134 127 13  111 127 13  111 127 13  111 127 13  111 121 19  134 121 19  134 127 13  111 127 13  111 127 13  111 127 13  111 127 13  111 121 19  134 121 19  134 127 13  111 127 13  111 127 13  111 127 13  111 127 13  111 127 13  111 127 13  111 127 13  111 127 13  111 127 13  111 127 13  111 127 13  111 127 13  111 127 13  111 121 19  134 121 19  134 127 13  111 127 13  111 127 13  111 127 13  111 127 13  111 127 13  111 127 13  111 127 13  111 127 13  111 127 13  111 127 13  111 127 13  111 127 13  111 148 14  110 
128 128 255 128 128 255 128 128 255 128 128 255 128 128 255 128 128 255 128 128 255 128 128 255 128 128 255 128 128 255 128 128 255 128 128 255 128 128 255 128 128 255 128 128 255 128 128 255 128 128 255 128 128 255 128 128 255 128 128 255 128 128 255 128 128 255 128 128 255 128 128 255 63  38  128 63  35  119 84  47  179 116 83  238 127 118 254 128 127 255 128 127 255 128 127 255 128 127 255 128 127 255 128 127 255 128 127 255 128 127 255 128 127 255 128 127 255 128 127 255 121 19  134 121 19  134 133 19  134 133 19  134 133 19  134 133 19  134 133 19  134 133 19  134 133 19  134 133 19  134 133 19  134 127 13  111 127 13  111 133 19  134 127 13  111 127 13  111 127 13  111 121 19  134 121 19  134 127 13  111 127 13  111 127 13  111 127 13  111 127 13  111 127 13  111 133 19  134 133 19  134 133 19  134 127 13  111 127 13  111 133 19  134 127 13  111 127 13  111 127 13  111 127 13  111 127 13  111 127 13  111 127 13  111 127 13  111 127 13  111 121 19  134 121 19  134 127 13  111 127 13  111 121 19  134 121 19  134 121 19  134 127 13  111 127 13  111 127 13  111 127 13  111 127 13  111 127 13  111 127 13  111 127 13  111 127 13  111 
128 128 255 128 128 255 128 128 255 128 128 255 128 128 255 128 128 255 128 128 255 128 128 255 128 128 255 128 128 255 128 128 255 128 128 255 128 128 255 128 128 255 128 128 255 128 128 255 128 105 251 128 105 251 128 105 251 128 105 251 128 105 251 128 105 251 128 105 251 128 105 251 64  37  126 63  35  119 84  47  179 116 83  238 127 118 254 128 127 255 128 127 255 128 127 255 128 127 255 128 127 255 128 127 255 128 127 255 128 127 255 128 127 255 128 127 255 128 127 255 127 13  111 133 19  134 148 14  110 148 14  110 127 13  111 133 19  134 133 19  134 127 13  111 133 19  134 127 13  111 133 19  134 127 13  111 127 13  111 127 13  111 127 13  111 127 13  111 127 13  111 127 13  111 127 13  111 127 13  111 127 13  111 127 13  111 127 13  111 127 13  111 127 13  111 133 19  134 127 13  111 133 19  134 127 13  111 127 13  111 127 13  111 127 13  111 127 13  111 127 13  111 127 13  111 127 13  111 127 13  111 133 19  134 127 13  111 127 13  111 127 13  111 127 13  111 127 13  111 127 13  111 121 19  134 121 19  134 121 19  134 127 13  111 127 13  111 127 13  111 127 13  111 127 13  111 127 13  111 127 13  111 127 13  111 127 13  111 
128 128 255 128 128 255 128 128 255 128 128 255 128 128 255 128 128 255 128 128 255 128 128 255 128 128 255 128 128 255 128 128 255 128 128 255 128 128 255 128 128 255 128 128 255 128 128 255 132 62  219 132 62  219 132 62  219 132 62  219 132 62  219 132 62  219 132 62  219 132 62  219 65  35  123 63  35  119 84  47  179 116 83  238 127 118 254 128 127 255 128 127 255 128 127 255 128 127 255 128 127 255 128 127 255 128 127 255 128 127 255 128 127 255 128 127 255 128 127 255 133 19  134 148 14  110 127 13  111 127 13  111 127 13  111 121 19  134 121 19  134 133 19  134 133 19  134 133 19  134 133 19  134 133 19  134 133 19  134 127 13  111 133 19  134 133 19  134 133 19  134 127 13  111 127 13  111 127 13  111 127 13  111 127 13  111 127 13  111 133 19  134 133 19  134 133 19  134 133 19  134 133 19  134 133 19  134 133 19  134 133 19  134 133 19  134 133 19  134 133 19  134 133 19  134 127 13  111 133 19  134 133 19  134 133 19  134 133 19  134 133 19  134 133 19  134 127 13  111 133 19  134 127 13  111 127 13  111 133 19  134 133 19  134 133 19  134 133 19  134 127 13  111 133 19  134 127 13  111 127 13  111 133 19  134 133 19  134 
128 128 255 128 128 255 128 128 255 128 128 255 128 128 255 128 128 255 128 128 255 128 128 255 128 128 255 128 128 255 128 128 255 128 128 255 128 128 255 128 128 255 128 128 255 128 128 255 127 43  191 127 43  191 127 43  191 127 43  191 127 43  191 127 43  191 127 43  191 127 43  191 67  32  119 63  35  119 84  47  179 116 83  238 127 118 254 128 127 255 128 127 255 128 127 255 128 127 255 128 127 255 128 127 255 128 127 255 128 127 255 128 127 255 128 127 255 128 127 255 127 13  111 127 13  111 127 13  111 127 13  111 121 19  134 121 19  134 121 19  134 127 13  111 148 14  110 148 14  110 148 14  110 127 13  111 127 13  111 127 13  111 127 13  111 127 13  111 127 13  111 127 13  111 127 13  111 127 13  111 127 13  111 127 13  111 121 19  134 121 19  134 148 14  110 148 14  110 148 14  110 148 14  110 148 14  110 148 14  110 148 14  110 148 14  110 127 13  111 148 14  110 148 14  110 127 13  111 148 14  110 127 13  111 148 14  110 127 13  111 127 13  111 148 14  110 148 14  110 127 13  111 127 13  111 148 14  110 148 14  110 148 14  110 127 13  111 148 14  110 148 14  110 127 13  111 127 13  111 148 14  110 148 14  110 148 14  110 
128 128 255 128 128 255 128 128 255 128 128 255 128 128 255 128 128 255 128 128 255 128 128 255 128 128 255 128 128 255 128 128 255 128 128 255 128 128 255 128 128 255 128 128 255 128 128 255 127 43  191 127 43  191 127 43  191 127 43  191 127 43  191 127 43  191 127 43  191 127 43  191 67  32  119 63  35  119 84  47  179 116 83  238 127 118 254 128 127 255 128 127 255 128 127 255 128 127 255 128 127 255 128 127 255 128 127 255 128 127 255 128 127 255 128 127 255 128 127 255 127 13  111 127 13  111 127 13  111 127 13  111 121 19  134 121 19  134 121 19  134 127 13  111 148 14  110 148 14  110 148 14  110 127 13  111 127 13  111 127 13  111 127 13  111 127 13  111 127 13  111 127 13  111 127 13  111 127 13  111 127 13  111 127 13  111 121 19  134 121 19  134 148 14  110 148 14  110 148 14  110 148 14  110 148 14  110 148 14  110 148 14  110 148 14  110 127 13  111 148 14  110 148 14  110 127 13  111 148 14  110 127 13  111 148 14  110 127 13  111 127 13  111 148 14  110 148 14  110 127 13  111 127 13  111 148 14  110 148 14  110 148 14  110 127 13  111 148 14  110 148 14  110 127 13  111 127 13  111 148 14  110 148 14  110 148 14  110 
128 128 255 128 128 255 128 128 255 128 128 255 128 128 255 128 128 255 128 128 255 128 128 255 128 128 255 128 128 255 128 128 255 128 128 255 128 128 255 128 128 255 128 128 255 128 128 255 127 13  111 127 13  111 127 13  111 127 13  111 127 13  111 127 13  111 127 13  111 127 13  111 60  34  108 60  34  110 89  56  197 118 91  244 128 127 255 128 127 255 128 127 255 128 127 255 128 127 255 128 127 255 128 127 255 128 127 255 128 127 255 128 127 255 128 127 255 128 127 255 127 13  111 127 13  111 127 13  111 127 13  111 127 13  111 127 13  111 127 13  111 127 13  111 127 13  111 127 13  111 127 13  111 127 13  111 127 13  111 127 13  111 127 13  111 127 13  111 127 13  111 127 13  111 127 13  111 127 13  111 127 13  111 127 13  111 121 19  134 121 19  134 127 13  111 127 13  111 127 13  111 127 13  111 127 13  111 127 13  111 127 13  111 127 13  111 127 13  111 127 13  111 127 13  111 127 13  111 127 13  111 127 13  111 127 13  111 127 13  111 127 13  111 127 13  111 127 13  111 127 13  111 127 13  111 127 13  111 127 13  111 127 13  111 127 13  111 127 13  111 127 13  111 127 13  111 127 13  111 127 13  111 127 13  111 127 13  111 
128 127 255 128 127 255 128 127 255 128 127 255 128 127 255 128 127 255 128 127 255 128 127 255 128 127 255 128 127 255 128 127 255 128 127 255 128 127 255 128 127 255 128 127 255 128 127 255 128 127 255 128 127 255 128 127 255 128 127 255 128 127 255 128 127 255 128 127 255 128 127 255 128 127 255 128 127 255 128 127 255 128 127 255 128 127 255 128 127 255 128 127 255 128 127 255 128 127 255 128 127 255 128 127 255 128 127 255 128 127 255 128 127 255 128 127 255 128 127 255 128 127 255 128 127 255 128 127 255 128 127 255 128 127 255 128 127 255 128 127 255 128 127 255 128 127 255 128 127 255 128 127 255 128 127 255 128 127 255 128 127 255 128 127 255 128 127 255 128 127 255 128 127 255 128 127 255 128 127 255 128 127 255 128 127 255 128 127 255 128 127 255 128 127 255 128 127 255 128 127 255 128 127 255 128 127 255 128 127 255 128 127 255 128 127 255 128 127 255 128 127 255 128 127 255 128 127 255 128 127 255 129 127 255 129 127 255 129 127 255 129 127 255 129 127 255 129 127 255 129 127 255 129 127 255 129 127 255 129 127 255 129 127 255 129 127 255 128 127 255 128 127 255 128 127 255 128 127 255 128 127 255 128 127 255 128 127 255 
128 127 255 132 127 255 128 127 255 128 127 255 128 127 255 128 127 255 128 127 255 128 127 255 128 127 255 128 127 255 128 127 255 128 127 255 128 127 255 128 127 255 128 127 255 128 127 255 128 127 255 128 127 255 128 127 255 128 127 255 128 127 255 128 127 255 128 127 255 128 127 255 128 127 255 128 127 255 128 127 255 128 127 255 128 127 255 128 127 255 128 127 255 128 127 255 128 127 255 128 127 255 128 127 255 128 127 255 128 127 255 128 127 255 128 127 255 128 127 255 128 127 255 128 127 255 128 127 255 128 127 255 128 127 255 128 127 255 128 127 255 128 127 255 128 127 255 128 127 255 128 127 255 128 127 255 128 127 255 128 127 255 128 127 255 128 127 255 128 127 255 128 127 255 128 127 255 128 127 255 128 127 255 128 127 255 128 127 255 128 127 255 128 127 255 128 127 255 128 127 255 128 127 255 128 127 255 128 127 255 128 127 255 128 127 255 128 127 255 128 127 255 128 127 255 128 127 255 128 127 255 128 127 255 129 127 255 129 127 255 129 127 255 129 127 255 129 127 255 129 127 255 129 127 255 129 127 255 129 127 255 129 127 255 129 127 255 128 127 255 128 127 255 128 127 255 128 127 255 128 127 255 128 127 255 128 127 255 
180 118 231 160 122 246 139 125 254 128 127 255 128 127 255 122 126 255 85  121 240 39  116 182 128 127 255 128 127 255 128 127 255 128 127 255 128 127 255 128 127 255 128 127 255 128 127 255 128 127 255 128 127 255 128 127 255 128 127 255 128 127 255 128 127 255 128 127 255 128 127 255 128 127 255 128 127 255 128 127 255 128 127 255 128 127 255 128 127 255 128 127 255 128 127 255 128 127 255 128 127 255 128 127 255 128 127 255 128 127 255 128 127 255 128 127 255 128 127 255 128 127 255 128 127 255 128 127 255 128 127 255 128 127 255 128 127 255 128 127 255 128 127 255 128 127 255 128 127 255 128 127 255 128 127 255 128 127 255 128 127 255 128 127 255 128 127 255 128 127 255 128 127 255 128 127 255 128 127 255 128 127 255 128 127 255 128 127 255 128 127 255 128 127 255 128 127 255 128 127 255 128 127 255 128 127 255 128 127 255 128 127 255 128 127 255 128 127 255 128 127 255 128 127 255 128 127 255 128 127 255 128 127 255 129 127 255 129 127 255 129 127 255 129 127 255 129 127 255 129 127 255 129 127 255 129 127 255 129 127 255 129 127 255 129 127 255 128 127 255 128 127 255 128 127 255 128 127 255 128 127 255 128 127 255 128 127 255 
204 111 200 189 114 221 161 115 245 138 108 251 114 107 250 77  109 232 41  105 182 35  107 171 128 127 255 128 127 255 128 127 255 128 127 255 128 127 255 128 127 255 128 127 255 128 127 255 128 127 255 128 127 255 128 127 255 128 127 255 128 127 255 128 127 255 128 127 255 128 127 255 128 127 255 128 127 255 128 127 255 128 127 255 128 127 255 128 127 255 128 127 255 128 127 255 128 127 255 128 127 255 128 127 255 128 127 255 128 127 255 128 127 255 128 127 255 128 127 255 128 127 255 128 127 255 128 127 255 128 127 255 128 127 255 128 127 255 128 127 255 128 127 255 128 127 255 128 127 255 128 127 255 128 127 255 128 127 255 128 127 255 128 127 255 128 127 255 128 127 255 128 127 255 128 127 255 128 127 255 128 127 255 128 127 255 128 127 255 128 127 255 128 127 255 128 127 255 128 127 255 128 127 255 128 127 255 128 127 255 128 127 255 128 127 255 128 127 255 128 127 255 128 127 255 128 127 255 128 127 255 128 127 255 129 127 255 129 127 255 129 127 255 129 127 255 129 127 255 129 127 255 129 127 255 129 127 255 129 127 255 129 127 255 129 127 255 128 127 255 128 127 255 128 127 255 128 127 255 128 127 255 128 127 255 128 127 255 
220 102 167 210 106 188 191 94  210 150 78  231 99  79  229 51  86  187 34  88  155 29  85  140 128 127 255 128 127 255 128 127 255 128 127 255 128 127 255 128 127 255 128 127 255 128 127 255 128 127 255 128 127 255 128 127 255 128 127 255 128 127 255 128 127 255 128 127 255 128 127 255 128 127 255 128 127 255 128 127 255 128 127 255 128 127 255 128 127 255 128 127 255 128 127 255 128 127 255 128 127 255 128 127 255 128 127 255 128 127 255 128 127 255 128 127 255 128 127 255 128 127 255 128 127 255 128 127 255 128 127 255 128 127 255 128 127 255 128 127 255 128 127 255 128 127 255 128 127 255 128 127 255 128 127 255 128 127 255 128 127 255 128 127 255 128 127 255 128 127 255 128 127 255 128 127 255 128 127 255 128 127 255 128 127 255 128 127 255 128 127 255 128 127 255 128 127 255 128 127 255 128 127 255 128 127 255 128 127 255 128 127 255 128 127 255 128 127 255 128 127 255 128 127 255 128 127 255 128 127 255 128 127 255 128 127 255 128 127 255 128 127 255 128 127 255 128 127 255 128 127 255 128 127 255 128 127 255 128 127 255 128 127 255 128 127 255 128 127 255 128 127 255 128 127 255 128 127 255 128 127 255 128 127 255 128 127 255 
217 100 170 215 96  173 203 82  183 154 66  217 97  63  211 48  74  170 34  81  148 29  80  133 128 127 255 128 127 255 128 127 255 128 127 255 128 127 255 128 127 255 128 127 255 128 127 255 128 127 255 128 127 255 128 127 255 128 127 255 128 127 255 128 127 255 128 127 255 128 127 255 128 127 255 128 127 255 128 127 255 128 127 255 128 127 255 128 127 255 128 127 255 128 127 255 128 127 255 128 127 255 128 127 255 128 127 255 128 127 255 128 127 255 128 127 255 128 127 255 128 127 255 128 127 255 128 127 255 128 127 255 128 127 255 128 127 255 128 127 255 128 127 255 128 127 255 128 127 255 128 127 255 128 127 255 128 127 255 128 127 255 128 127 255 128 127 255 128 127 255 128 127 255 128 127 255 128 127 255 128 127 255 128 127 255 128 127 255 128 127 255 128 127 255 128 127 255 128 127 255 128 127 255 128 127 255 128 127 255 128 127 255 128 127 255 128 127 255 128 127 255 128 127 255 128 127 255 128 127 255 128 127 255 129 127 255 129 127 255 128 127 255 128 127 255 128 127 255 128 127 255 128 127 255 128 127 255 128 127 255 128 127 255 128 127 255 128 127 255 128 127 255 128 127 255 128 127 255 128 127 255 128 127 255 128 127 255 
175 114 235 207 100 190 201 83  188 153 64  215 98  61  209 53  73  177 38  83  160 128 128 255 128 127 255 128 127 255 128 127 255 128 127 255 128 127 255 128 127 255 128 127 255 128 127 255 128 127 255 128 127 255 128 127 255 128 127 255 128 127 255 128 127 255 128 127 255 128 127 255 128 127 255 128 127 255 128 127 255 128 127 255 128 127 255 128 127 255 128 127 255 128 127 255 128 127 255 128 127 255 128 127 255 128 127 255 128 127 255 128 127 255 128 127 255 128 127 255 128 127 255 128 127 255 128 127 255 128 127 255 128 127 255 128 127 255 128 127 255 128 127 255 128 127 255 128 127 255 128 127 255 128 127 255 128 127 255 128 127 255 128 127 255 128 127 255 128 127 255 128 127 255 128 127 255 128 127 255 128 127 255 128 127 255 128 127 255 128 127 255 128 127 255 128 127 255 128 127 255 128 127 255 128 127 255 128 127 255 128 127 255 128 127 255 128 127 255 128 127 255 128 127 255 128 127 255 128 127 255 128 127 255 128 127 255 128 127 255 128 127 255 128 127 255 128 127 255 128 127 255 128 127 255 128 127 255 128 127 255 128 127 255 128 127 255 128 127 255 128 127 255 128 127 255 128 127 255 128 127 255 128 127 255 128 127 255 
128 128 255 128 128 255 183 94  219 146 71  225 107 75  229 71  85  213 127 128 255 128 127 255 128 127 255 128 127 255 128 127 255 128 127 255 128 127 255 128 127 255 128 127 255 128 127 255 128 127 255 128 127 255 128 127 255 128 127 255 128 127 255 128 127 255 128 127 255 128 127 255 128 127 255 128 127 255 128 127 255 128 127 255 128 127 255 128 127 255 128 127 255 128 127 255 128 127 255 128 127 255 128 127 255 128 127 255 128 127 255 128 127 255 128 127 255 128 127 255 128 127 255 128 127 255 128 127 255 128 127 255 128 127 255 128 127 255 128 127 255 128 127 255 128 127 255 128 127 255 128 127 255 128 127 255 128 127 255 128 127 255 128 127 255 128 127 255 128 127 255 128 127 255 128 127 255 128 127 255 128 127 255 128 127 255 128 127 255 128 127 255 128 127 255 128 127 255 128 127 255 128 127 255 128 127 255 128 127 255 128 127 255 128 127 255 128 127 255 128 127 255 128 127 255 128 127 255 128 127 255 128 127 255 128 127 255 128 127 255 128 127 255 128 127 255 128 127 255 128 127 255 128 127 255 128 127 255 128 127 255 128 127 255 128 127 255 128 127 255 128 127 255 128 127 255 128 127 255 128 127 255 128 127 255 128 127 255 
128 127 255 128 127 255 128 127 255 128 127 255 128 127 255 128 127 255 128 127 255 128 127 255 128 127 255 128 127 255 128 127 255 128 127 255 128 127 255 128 127 255 128 98  248 128 98  248 128 127 255 139 127 254 146 127 252 166 127 243 128 127 255 128 127 255 128 127 255 128 127 255 128 127 255 128 127 255 128 127 255 128 127 255 128 127 255 128 127 255 128 127 255 128 127 255 128 127 255 128 127 255 128 127 255 128 127 255 128 127 255 128 127 255 128 127 255 128 127 255 128 127 255 128 127 255 128 127 255 135 117 254 152 92  240 175 64  199 197 57  159 207 54  134 128 127 255 128 127 255 128 127 255 128 127 255 128 127 255 128 127 255 128 127 255 128 127 255 127 28  160 128 44  193 128 39  183 128 33  172 128 37  180 128 39  183 128 44  193 127 36  178 128 127 255 128 127 255 128 127 255 128 127 255 128 127 255 128 127 255 128 127 255 128 127 255 128 127 255 128 127 255 128 127 255 128 127 255 128 127 255 128 127 255 129 127 255 129 127 255 129 127 255 228 81  124 212 75  159 193 75  192 186 77  201 182 76  206 166 74  218 155 73  224 135 71  228 122 72  230 96  74  224 81  75  214 61  76  192 48  77  173 28  79  127 128 127 255 
128 127 255 128 127 255 128 127 255 128 127 255 128 127 255 128 127 255 128 127 255 128 127 255 128 127 255 128 127 255 128 127 255 128 127 255 128 127 255 128 68  226 129 71  228 128 98  248 129 127 255 143 127 253 153 127 250 161 128 245 164 128 244 128 127 255 128 127 255 128 127 255 128 127 255 128 127 255 128 127 255 136 121 254 130 121 255 128 119 254 128 127 255 128 127 255 128 127 255 128 127 255 128 127 255 128 125 255 128 123 255 128 127 255 128 127 255 128 127 255 128 127 255 128 127 255 130 127 255 140 110 251 162 78  224 185 57  179 198 53  150 202 57  152 128 127 255 128 127 255 128 127 255 128 127 255 128 127 255 128 127 255 128 127 255 128 127 255 128 58  215 128 44  193 128 39  183 128 37  180 128 37  180 128 39  183 128 44  193 128 58  215 128 127 255 128 127 255 128 127 255 128 127 255 128 127 255 128 127 255 128 127 255 128 127 255 128 127 255 128 127 255 128 127 255 128 127 255 128 127 255 128 127 255 129 127 255 129 127 255 129 127 255 223 80  138 218 71  138 201 69  172 194 69  184 187 68  191 172 66  204 160 64  212 137 62  218 120 62  219 89  65  209 69  68  193 50  70  168 38  73  145 33  79  140 128 127 255 
128 127 255 128 127 255 128 127 255 128 127 255 128 127 255 128 127 255 128 127 255 128 127 255 128 127 255 128 100 249 129 98  248 128 127 255 128 127 255 128 63  220 129 60  217 128 127 255 133 127 255 145 127 253 158 128 247 170 128 240 177 129 235 187 131 224 174 129 237 128 127 255 128 127 255 128 127 255 188 114 222 161 114 244 138 107 251 128 84  240 127 18  130 128 52  206 128 56  212 127 27  158 128 127 255 128 119 254 113 118 253 95  117 246 128 127 255 128 127 255 128 127 255 128 127 255 130 125 255 137 115 253 164 75  221 186 55  174 198 53  151 194 63  174 128 127 255 128 127 255 128 127 255 128 127 255 128 127 255 128 127 255 128 127 255 128 127 255 128 127 255 128 127 255 128 127 255 128 127 255 128 127 255 128 127 255 128 127 255 128 127 255 128 127 255 128 127 255 128 127 255 128 127 255 128 127 255 128 127 255 128 127 255 128 127 255 128 127 255 128 127 255 128 127 255 128 127 255 128 127 255 129 127 255 129 127 255 129 127 255 129 127 255 223 80  138 218 71  136 205 69  165 197 69  179 188 68  190 172 66  204 157 64  213 136 62  218 120 62  219 83  66  205 56  69  177 43  72  156 29  76  126 29  79  129 121 106 251 
128 127 255 128 127 255 128 127 255 128 127 255 128 127 255 128 127 255 128 127 255 128 127 255 128 127 255 129 92  245 130 80  237 131 56  212 128 127 255 128 71  228 128 127 255 128 127 255 133 127 255 146 127 252 160 128 246 174 129 237 184 130 227 189 130 223 184 130 227 128 127 255 128 127 255 228 117 154 215 113 182 192 111 217 152 103 245 128 38  181 128 45  194 128 40  186 128 41  187 128 67  225 127 18  132 114 94  245 68  117 225 44  118 193 38  119 180 128 127 255 128 127 255 128 127 255 130 125 255 138 112 252 164 75  221 186 56  175 197 53  152 194 63  175 128 127 255 128 127 255 128 127 255 128 127 255 128 127 255 128 127 255 128 127 255 128 127 255 128 127 255 128 127 255 128 127 255 128 127 255 128 127 255 128 127 255 128 127 255 128 127 255 128 127 255 128 127 255 128 127 255 128 127 255 128 127 255 128 127 255 128 127 255 128 127 255 128 127 255 128 127 255 128 127 255 128 127 255 128 127 255 129 127 255 129 127 255 129 127 255 129 127 255 225 80  133 221 72  131 213 69  148 204 68  165 192 67  184 174 66  202 158 64  212 134 62  219 114 62  218 80  66  202 53  70  172 41  72  152 27  77  120 29  80  132 127 123 255 
128 127 255 128 127 255 128 127 255 128 127 255 128 127 255 128 127 255 128 127 255 128 127 255 128 127 255 130 83  239 128 69  227 128 44  193 128 127 255 128 127 255 128 127 255 128 127 255 128 128 255 145 120 252 160 120 246 175 123 236 188 127 224 195 130 216 193 130 218 181 130 231 128 127 255 232 114 142 226 112 157 212 110 186 199 110 208 129 198 211 128 83  239 128 75  233 128 76  233 128 86  241 129 200 209 98  108 245 50  108 199 27  114 154 29  112 159 128 127 255 128 127 255 128 127 255 131 125 255 139 116 253 164 75  221 186 55  174 198 52  149 202 58  153 128 127 255 128 127 255 128 127 255 128 127 255 128 127 255 128 127 255 128 127 255 128 127 255 128 127 255 128 127 255 128 127 255 128 127 255 128 127 255 128 127 255 128 127 255 128 127 255 128 127 255 128 127 255 128 127 255 128 127 255 128 127 255 128 127 255 128 127 255 128 127 255 128 127 255 128 127 255 128 127 255 128 127 255 129 127 255 129 127 255 129 127 255 129 127 255 129 127 255 231 80  113 225 76  127 219 71  134 212 69  149 200 67  170 182 66  194 161 64  211 129 62  219 94  64  212 70  67  194 50  70  168 38  73  145 27  77  123 24  78  112 128 127 255 
128 127 255 128 127 255 128 127 255 128 127 255 128 127 255 128 127 255 128 127 255 128 127 255 128 127 255 128 127 255 128 42  189 128 37  180 128 127 255 128 127 255 128 127 255 128 127 255 128 128 255 143 104 249 156 105 244 172 112 236 187 121 225 196 127 215 196 130 214 185 130 227 128 127 255 231 104 140 231 105 138 222 103 162 204 115 201 129 188 223 129 176 235 129 134 255 129 172 238 129 195 215 129 210 194 66  90  212 46  83  176 25  98  139 28  91  143 128 127 255 128 127 255 128 127 255 130 125 255 140 110 251 164 76  221 186 56  175 198 53  151 192 64  179 128 127 255 128 127 255 128 127 255 128 127 255 128 127 255 128 127 255 128 127 255 128 127 255 128 127 255 128 127 255 128 127 255 128 127 255 128 127 255 128 127 255 128 127 255 128 127 255 128 127 255 128 127 255 128 127 255 128 127 255 128 127 255 128 127 255 128 127 255 128 127 255 128 127 255 128 127 255 128 127 255 129 127 255 129 127 255 129 127 255 129 127 255 129 127 255 129 127 255 129 127 255 224 80  134 224 74  127 219 71  135 210 69  153 192 67  183 165 64  208 125 62  219 78  66  200 54  70  173 39  73  149 30  76  128 33  81  145 128 127 255 128 127 255 
128 127 255 128 127 255 128 127 255 128 127 255 128 127 255 128 127 255 128 127 255 128 127 255 128 127 255 128 127 255 128 46  196 128 39  184 128 48  199 128 127 255 128 127 255 128 127 255 128 127 255 128 128 255 150 85  236 165 95  235 180 111 229 190 123 221 192 129 220 182 130 229 128 127 255 231 99  135 232 97  130 224 91  147 213 93  176 205 110 198 129 241 111 129 212 190 129 179 233 129 230 150 65  107 218 55  73  179 41  73  155 26  81  124 26  79  122 128 127 255 128 127 255 128 127 255 128 127 255 138 111 252 161 79  227 185 58  180 198 54  152 194 64  176 128 127 255 128 127 255 128 127 255 128 127 255 128 127 255 128 127 255 128 127 255 128 127 255 128 127 255 128 127 255 128 127 255 128 127 255 128 127 255 128 127 255 128 127 255 128 127 255 128 127 255 128 127 255 128 127 255 128 127 255 128 127 255 128 127 255 128 127 255 128 127 255 128 127 255 128 127 255 129 127 255 129 127 255 129 127 255 129 127 255 129 127 255 129 127 255 129 127 255 128 120 255 225 82  134 224 80  136 225 77  128 218 72  138 197 68  177 167 64  207 115 61  216 54  68  172 38  73  147 30  76  128 33  81  145 128 127 255 128 127 255 128 127 255 
128 127 255 128 127 255 128 127 255 128 127 255 128 127 255 128 127 255 128 127 255 128 127 255 128 127 255 128 127 255 128 127 255 128 52  206 128 95  247 128 127 255 128 127 255 128 127 255 127 13  111 127 13  111 127 13  111 133 27  156 167 105 238 177 120 234 179 127 233 176 130 236 128 127 255 235 96  119 224 97  152 216 93  169 202 91  192 192 106 215 191 108 217 147 110 250 119 104 250 79  101 231 65  82  203 56  76  185 37  78  151 30  80  135 24  78  112 128 127 255 128 127 255 128 127 255 128 127 255 129 125 255 150 91  240 179 65  197 195 61  170 187 72  195 128 127 255 128 127 255 128 127 255 128 127 255 128 127 255 128 127 255 128 127 255 128 127 255 128 127 255 128 127 255 128 127 255 128 127 255 128 127 255 128 127 255 128 127 255 128 127 255 128 127 255 128 127 255 128 127 255 128 127 255 128 127 255 128 127 255 128 127 255 128 127 255 128 127 255 129 127 255 129 127 255 129 127 255 129 127 255 129 127 255 129 127 255 129 127 255 129 127 255 129 127 255 129 127 255 129 127 255 220 84  152 219 80  148 193 76  192 161 73  221 107 69  224 43  76  161 33  79  141 35  82  151 128 127 255 128 127 255 128 127 255 128 127 255 
128 124 255 128 125 255 128 125 255 128 127 255 128 124 255 128 127 255 128 121 255 128 122 255 128 127 255 128 127 255 128 127 255 128 127 255 128 127 255 128 127 255 128 127 255 128 127 255 128 127 255 128 127 255 128 127 255 128 127 255 128 127 255 128 127 255 128 127 255 128 127 255 128 127 255 128 127 255 128 127 255 128 127 255 128 127 255 128 127 255 128 127 255 128 127 255 128 127 255 128 127 255 128 127 255 128 127 255 128 127 255 128 127 255 128 127 255 128 127 255 128 127 255 128 127 255 128 127 255 128 127 255 128 127 255 128 127 255 128 127 255 128 127 255 128 127 255 128 127 255 128 127 255 128 127 255 128 127 255 128 127 255 128 127 255 128 127 255 128 127 255 128 127 255 128 127 255 128 127 255 128 127 255 128 127 255 128 127 255 128 127 255 128 127 255 128 127 255 128 127 255 128 127 255 128 127 255 128 127 255 128 127 255 128 127 255 129 121 255 129 120 255 129 122 255 129 127 255 129 127 255 129 126 255 129 126 255 129 127 255 129 127 255 129 116 254 128 105 251 129 127 255 129 127 255 129 127 255 129 127 255 129 127 255 129 127 255 128 127 255 128 127 255 128 127 255 128 127 255 128 127 255 128 127 255 128 127 255 
129 118 254 129 119 254 128 119 254 128 122 255 129 120 255 129 115 254 129 115 254 129 117 254 128 127 255 128 127 255 128 127 255 128 127 255 128 127 255 128 127 255 128 127 255 128 127 255 128 127 255 128 127 255 128 127 255 128 127 255 128 127 255 128 127 255 128 127 255 128 127 255 128 127 255 128 127 255 128 127 255 128 127 255 128 127 255 128 127 255 128 127 255 128 127 255 128 127 255 128 127 255 128 127 255 128 127 255 128 127 255 128 127 255 128 127 255 128 127 255 128 127 255 128 127 255 128 127 255 128 127 255 128 127 255 128 127 255 128 127 255 128 127 255 128 127 255 128 127 255 128 127 255 128 127 255 128 127 255 128 127 255 128 127 255 128 127 255 128 127 255 128 127 255 128 127 255 128 127 255 128 127 255 128 127 255 128 127 255 128 127 255 128 127 255 128 127 255 128 127 255 128 127 255 128 127 255 128 127 255 128 127 255 128 127 255 129 111 253 129 107 252 129 111 253 129 111 253 129 115 254 129 117 254 129 117 254 129 117 254 129 124 255 129 127 255 129 127 255 129 113 253 129 91  245 129 89  243 129 127 255 129 94  246 129 127 255 129 127 255 128 127 255 128 127 255 128 127 255 128 127 255 128 127 255 128 127 255 
129 109 252 129 107 252 129 115 254 129 109 252 128 121 255 129 104 251 129 104 251 129 108 252 128 127 255 128 127 255 128 127 255 128 127 255 128 127 255 128 127 255 128 127 255 128 127 255 128 127 255 128 127 255 128 127 255 128 127 255 128 127 255 128 127 255 128 127 255 128 127 255 128 127 255 128 127 255 128 127 255 128 127 255 128 127 255 128 127 255 128 127 255 128 127 255 128 127 255 128 127 255 128 127 255 128 127 255 128 127 255 128 127 255 128 127 255 128 127 255 128 127 255 128 127 255 128 127 255 128 127 255 128 127 255 128 127 255 128 127 255 128 127 255 128 127 255 128 127 255 128 127 255 128 127 255 128 127 255 128 127 255 128 127 255 128 127 255 128 127 255 128 127 255 128 127 255 128 127 255 128 127 255 128 127 255 128 127 255 128 127 255 128 127 255 128 127 255 128 127 255 128 127 255 128 127 255 128 127 255 128 127 255 129 127 255 130 66  224 129 91  244 129 90  244 129 94  246 129 98  248 129 100 249 129 101 249 129 101 249 129 100 249 129 127 255 129 95  247 129 90  244 130 73  231 129 83  239 129 92  245 129 113 253 129 127 255 129 127 255 128 127 255 128 127 255 128 127 255 128 127 255 128 127 255 128 127 255 
129 91  245 129 88  243 129 93  245 129 89  243 129 97  248 129 88  243 129 90  244 131 67  225 128 127 255 128 127 255 128 127 255 128 127 255 128 127 255 128 127 255 128 127 255 128 127 255 128 127 255 128 127 255 128 127 255 128 127 255 128 127 255 128 127 255 128 127 255 128 127 255 128 127 255 128 127 255 128 127 255 128 127 255 128 127 255 128 127 255 128 127 255 128 127 255 128 127 255 128 127 255 128 127 255 128 127 255 128 127 255 128 127 255 128 127 255 128 127 255 128 127 255 128 127 255 128 127 255 128 127 255 128 127 255 128 127 255 128 127 255 128 127 255 128 127 255 128 127 255 128 127 255 128 127 255 128 127 255 128 127 255 128 127 255 128 127 255 128 127 255 128 127 255 128 127 255 128 127 255 128 127 255 128 127 255 128 127 255 128 127 255 128 127 255 128 127 255 128 127 255 128 127 255 128 127 255 128 127 255 129 127 255 129 127 255 129 88  243 129 77  234 130 72  230 130 71  229 130 72  230 130 74  232 130 79  236 130 79  236 130 79  236 130 70  227 130 69  227 130 75  233 130 73  231 130 74  232 130 79  236 129 90  244 129 127 255 129 127 255 128 127 255 128 127 255 128 127 255 128 127 255 128 127 255 128 127 255 
130 68  226 130 71  229 129 75  232 129 76  233 129 73  231 130 70  227 130 70  228 129 79  236 128 127 255 128 127 255 128 127 255 128 127 255 128 127 255 128 127 255 128 127 255 128 127 255 128 127 255 128 127 255 128 127 255 128 127 255 128 127 255 128 127 255 128 127 255 128 127 255 128 127 255 128 127 255 128 127 255 128 127 255 128 127 255 128 127 255 128 127 255 128 127 255 128 127 255 128 127 255 128 127 255 128 127 255 128 127 255 128 127 255 128 127 255 128 127 255 128 127 255 128 127 255 128 127 255 128 127 255 128 127 255 128 127 255 128 127 255 128 127 255 128 127 255 128 127 255 128 127 255 128 127 255 128 127 255 128 127 255 128 127 255 128 127 255 128 127 255 128 127 255 128 127 255 128 127 255 128 127 255 128 127 255 128 127 255 128 127 255 128 127 255 128 127 255 128 127 255 128 127 255 128 127 255 129 127 255 129 127 255 129 127 255 129 71  229 129 58  214 129 52  205 129 50  202 130 60  216 130 59  215 129 51  205 129 50  202 130 60  217 130 61  217 130 61  218 130 62  218 130 61  218 130 61  217 130 64  221 130 75  233 129 127 255 129 127 255 129 127 255 128 127 255 128 127 255 128 127 255 128 127 255 128 127 255 
132 61  218 129 47  198 132 62  218 129 51  204 129 50  203 129 50  203 129 51  204 128 62  220 128 127 255 128 127 255 128 127 255 128 127 255 128 127 255 128 127 255 128 127 255 128 127 255 128 127 255 128 127 255 128 127 255 128 127 255 128 127 255 128 127 255 128 127 255 128 127 255 128 127 255 128 127 255 128 127 255 128 127 255 128 127 255 128 127 255 128 127 255 128 127 255 128 127 255 128 127 255 128 127 255 128 127 255 128 127 255 128 127 255 128 127 255 128 127 255 128 127 255 128 127 255 128 127 255 128 127 255 128 127 255 128 127 255 128 127 255 128 127 255 128 127 255 128 127 255 128 127 255 128 127 255 128 127 255 128 127 255 128 127 255 128 127 255 128 127 255 128 127 255 128 127 255 128 127 255 128 127 255 128 127 255 128 127 255 128 127 255 128 127 255 128 127 255 128 127 255 128 127 255 128 127 255 129 127 255 129 127 255 129 127 255 128 40  185 128 40  186 128 40  185 128 38  181 128 36  178 128 35  176 128 34  174 129 35  175 129 36  179 130 42  189 130 52  205 129 42  190 129 37  180 129 37  180 128 37  179 129 34  174 129 127 255 129 127 255 129 127 255 128 127 255 128 127 255 128 127 255 128 127 255 128 127 255 
128 24  149 128 26  156 127 35  176 128 35  176 128 32  170 128 34  174 128 40  185 128 43  191 128 127 255 128 127 255 128 127 255 128 127 255 128 127 255 128 127 255 128 127 255 128 127 255 128 127 255 128 127 255 128 127 255 128 127 255 128 127 255 128 127 255 128 127 255 128 127 255 128 127 255 128 127 255 128 127 255 128 127 255 128 127 255 128 127 255 128 127 255 128 127 255 128 127 255 128 127 255 128 127 255 128 127 255 128 127 255 128 127 255 128 127 255 128 127 255 128 127 255 128 127 255 128 127 255 128 127 255 128 127 255 128 127 255 128 127 255 128 127 255 128 127 255 128 127 255 128 127 255 128 127 255 128 127 255 128 127 255 128 127 255 128 127 255 128 127 255 128 127 255 128 127 255 128 127 255 128 127 255 128 127 255 128 127 255 128 127 255 128 127 255 128 127 255 128 127 255 128 127 255 128 127 255 129 127 255 129 127 255 129 127 255 128 34  174 128 35  176 128 34  173 128 30  164 128 28  159 128 25  153 128 24  149 128 24  148 128 24  148 128 24  150 128 25  151 128 25  152 128 25  152 128 26  153 128 26  156 128 27  158 129 127 255 129 127 255 129 127 255 128 127 255 128 127 255 128 127 255 128 127 255 128 127 255 
127 17  126 128 18  130 127 19  134 127 17  129 127 19  135 127 20  137 127 23  146 128 37  180 128 127 255 128 127 255 128 127 255 128 127 255 128 127 255 128 127 255 128 127 255 128 127 255 128 127 255 128 127 255 128 127 255 128 127 255 128 127 255 128 127 255 128 127 255 128 127 255 128 127 255 128 127 255 128 127 255 128 127 255 128 127 255 128 127 255 128 127 255 128 127 255 128 127 255 128 127 255 128 127 255 128 127 255 128 127 255 128 127 255 128 127 255 128 127 255 128 127 255 128 127 255 128 127 255 128 127 255 128 127 255 128 127 255 128 127 255 128 127 255 128 127 255 128 127 255 128 127 255 128 127 255 128 127 255 128 127 255 128 127 255 128 127 255 128 127 255 128 127 255 128 127 255 128 127 255 128 127 255 128 127 255 128 127 255 128 127 255 128 127 255 128 127 255 128 127 255 128 127 255 128 127 255 129 127 255 129 127 255 129 127 255 128 40  185 128 32  170 128 35  176 128 30  165 127 17  127 128 22  142 127 13  111 127 17  126 128 18  132 128 19  133 127 13  111 127 15  121 128 20  136 127 14  116 128 19  135 128 21  140 129 127 255 129 127 255 129 127 255 128 127 255 128 127 255 128 127 255 128 127 255 128 127 255 
127 127 255 127 127 255 127 127 255 127 127 255 127 127 255 127 127 255 127 109 253 127 127 255 128 128 255 128 128 255 128 128 255 128 128 255 128 128 255 128 128 255 128 128 255 128 128 255 128 128 255 128 128 255 128 128 255 128 128 255 128 128 255 128 128 255 128 128 255 128 128 255 128 128 255 128 128 255 128 128 255 128 128 255 128 128 255 128 128 255 128 128 255 128 128 255 128 128 255 128 128 255 128 128 255 128 128 255 128 128 255 128 128 255 128 128 255 128 128 255 128 128 255 128 128 255 128 128 255 128 128 255 128 128 255 128 128 255 128 128 255 128 128 255 128 128 255 128 128 255 128 128 255 128 128 255 128 128 255 128 128 255 128 128 255 128 128 255 128 128 255 128 128 255 128 128 255 128 128 255 128 128 255 128 128 255 128 128 255 128 128 255 128 128 255 128 128 255 128 128 255 128 128 255 128 128 255 128 128 255 128 128 255 128 128 255 128 128 255 128 128 255 128 128 255 128 128 255 128 128 255 128 128 255 128 128 255 128 128 255 128 128 255 128 128 255 128 128 255 128 128 255 128 128 255 128 128 255 128 128 255 128 128 255 128 128 255 128 128 255 128 128 255 128 128 255 128 128 255 128 128 255 128 128 255 128 128 255 
127 127 255 127 127 255 127 127 255 127 127 255 127 127 255 127 127 255 127 109 253 127 127 255 128 128 255 128 128 255 128 128 255 128 128 255 128 128 255 128 128 255 128 128 255 128 128 255 128 128 255 128 128 255 128 128 255 128 128 255 128 128 255 128 128 255 128 128 255 128 128 255 128 128 255 128 128 255 128 128 255 128 128 255 128 128 255 128 128 255 128 128 255 128 128 255 128 128 255 128 128 255 128 128 255 128 128 255 128 128 255 128 128 255 128 128 255 128 128 255 128 128 255 128 128 255 128 128 255 128 128 255 128 128 255 128 128 255 128 128 255 128 128 255 128 128 255 128 128 255 128 128 255 128 128 255 128 128 255 128 128 255 128 128 255 128 128 255 128 128 255 128 128 255 128 128 255 128 128 255 128 128 255 128 128 255 128 128 255 128 128 255 128 128 255 128 128 255 128 128 255 128 128 255 128 128 255 128 128 255 128 128 255 128 128 255 128 128 255 128 128 255 128 128 255 128 128 255 128 128 255 128 128 255 128 128 255 128 128 255 128 128 255 128 128 255 128 128 255 128 128 255 128 128 255 128 128 255 128 128 255 128 128 255 128 128 255 128 128 255 128 128 255 128 128 255 128 128 255 128 128 255 128 128 255 128 128 255 
128 90  244 128 98  248 127 115 254 127 127 255 127 127 255 128 96  247 128 90  244 127 127 255 128 128 255 128 128 255 128 128 255 128 128 255 128 128 255 128 128 255 128 128 255 128 128 255 128 128 255 128 128 255 128 128 255 128 128 255 128 128 255 128 128 255 128 128 255 128 128 255 128 128 255 128 128 255 128 128 255 128 128 255 128 128 255 128 128 255 128 128 255 128 128 255 128 128 255 128 128 255 128 128 255 128 128 255 128 128 255 128 128 255 128 128 255 128 128 255 128 128 255 128 128 255 128 128 255 128 128 255 128 128 255 128 128 255 128 128 255 128 128 255 128 128 255 128 128 255 128 128 255 128 128 255 128 128 255 128 128 255 128 128 255 128 128 255 128 128 255 128 128 255 128 128 255 128 128 255 128 128 255 128 128 255 128 128 255 128 128 255 128 128 255 128 128 255 128 128 255 128 128 255 128 128 255 128 128 255 128 128 255 128 128 255 128 128 255 128 128 255 128 128 255 128 128 255 128 128 255 128 128 255 128 128 255 128 128 255 128 128 255 128 128 255 128 128 255 128 128 255 128 128 255 128 128 255 128 128 255 128 128 255 128 128 255 128 128 255 128 128 255 128 128 255 128 128 255 128 128 255 128 128 255 128 128 255 
129 73  231 129 75  233 129 80  237 129 85  241 128 100 249 129 86  241 129 85  241 130 70  228 128 128 255 128 128 255 128 128 255 128 128 255 128 128 255 128 128 255 128 128 255 128 128 255 128 128 255 128 128 255 128 128 255 128 128 255 128 128 255 128 128 255 128 128 255 128 128 255 128 128 255 128 128 255 128 128 255 128 128 255 128 128 255 128 128 255 128 128 255 128 128 255 128 128 255 128 128 255 128 128 255 128 128 255 128 128 255 128 128 255 128 128 255 128 128 255 128 128 255 128 128 255 128 128 255 128 128 255 128 128 255 128 128 255 128 128 255 128 128 255 128 128 255 128 128 255 128 128 255 128 128 255 128 128 255 128 128 255 128 128 255 128 128 255 128 128 255 128 128 255 128 128 255 128 128 255 128 128 255 128 128 255 128 128 255 128 128 255 128 128 255 128 128 255 128 128 255 128 128 255 128 128 255 128 128 255 128 128 255 128 128 255 128 128 255 128 128 255 128 128 255 128 128 255 128 128 255 128 128 255 128 128 255 128 128 255 128 128 255 128 128 255 128 128 255 128 128 255 128 128 255 128 128 255 128 128 255 128 128 255 128 128 255 128 128 255 128 128 255 128 128 255 128 128 255 128 128 255 128 128 255 128 128 255 
130 60  217 130 60  217 130 64  221 130 66  224 130 69  227 130 70  227 130 70  227 129 77  234 128 128 255 128 128 255 128 128 255 128 128 255 128 128 255 128 128 255 128 128 255 128 128 255 128 128 255 128 128 255 128 128 255 128 128 255 128 128 255 128 128 255 128 128 255 128 128 255 128 128 255 128 128 255 128 128 255 128 128 255 128 128 255 128 128 255 128 128 255 128 128 255 128 128 255 128 128 255 128 128 255 128 128 255 128 128 255 128 128 255 128 128 255 128 128 255 128 128 255 128 128 255 128 128 255 128 128 255 128 128 255 128 128 255 128 128 255 128 128 255 128 128 255 128 128 255 128 128 255 128 128 255 128 128 255 128 128 255 128 128 255 128 128 255 128 128 255 128 128 255 128 128 255 128 128 255 128 128 255 128 128 255 128 128 255 128 128 255 128 128 255 128 128 255 128 128 255 128 128 255 128 128 255 128 128 255 128 128 255 128 128 255 128 128 255 128 128 255 128 128 255 128 128 255 128 128 255 128 128 255 128 128 255 128 128 255 128 128 255 128 128 255 128 128 255 128 128 255 128 128 255 128 128 255 128 128 255 128 128 255 128 128 255 128 128 255 128 128 255 128 128 255 128 128 255 128 128 255 128 128 255 128 128 255 
130 43  192 130 48  199 130 50  202 130 51  205 130 53  208 130 56  212 130 54  209 130 64  222 128 128 255 128 128 255 128 128 255 128 128 255 128 128 255 128 128 255 128 128 255 128 128 255 128 128 255 128 128 255 128 128 255 128 128 255 128 128 255 128 128 255 128 128 255 128 128 255 128 128 255 128 128 255 128 128 255 128 128 255 128 128 255 128 128 255 128 128 255 128 128 255 128 128 255 128 128 255 128 128 255 128 128 255 128 128 255 128 128 255 128 128 255 128 128 255 128 128 255 128 128 255 128 128 255 128 128 255 128 128 255 128 128 255 128 128 255 128 128 255 128 128 255 128 128 255 128 128 255 128 128 255 128 128 255 128 128 255 128 128 255 128 128 255 128 128 255 128 128 255 128 128 255 128 128 255 128 128 255 128 128 255 128 128 255 128 128 255 128 128 255 128 128 255 128 128 255 128 128 255 128 128 255 128 128 255 128 128 255 128 128 255 128 128 255 128 128 255 128 128 255 128 128 255 128 128 255 128 128 255 128 128 255 128 128 255 128 128 255 128 128 255 128 128 255 128 128 255 128 128 255 128 128 255 128 128 255 128 128 255 128 128 255 128 128 255 128 128 255 128 128 255 128 128 255 128 128 255 128 128 255 128 128 255 
130 36  178 130 40  185 130 38  182 130 41  188 130 43  192 130 46  197 130 54  209 130 61  218 128 128 255 128 128 255 128 128 255 128 128 255 128 128 255 128 128 255 128 128 255 128 128 255 128 128 255 128 128 255 128 128 255 128 128 255 128 128 255 128 128 255 128 128 255 128 128 255 128 128 255 128 128 255 128 128 255 128 128 255 128 128 255 128 128 255 128 128 255 128 128 255 128 128 255 128 128 255 128 128 255 128 128 255 128 128 255 128 128 255 128 128 255 128 128 255 128 128 255 128 128 255 128 128 255 128 128 255 128 128 255 128 128 255 128 128 255 128 128 255 128 128 255 128 128 255 128 128 255 128 128 255 128 128 255 128 128 255 128 128 255 128 128 255 128 128 255 128 128 255 128 128 255 128 128 255 128 128 255 128 128 255 128 128 255 128 128 255 128 128 255 128 128 255 128 128 255 128 128 255 128 128 255 128 128 255 128 128 255 128 128 255 128 128 255 128 128 255 128 128 255 128 128 255 128 128 255 128 128 255 128 128 255 128 128 255 128 128 255 128 128 255 128 128 255 128 128 255 128 128 255 128 128 255 128 128 255 128 128 255 128 128 255 128 128 255 128 128 255 128 128 255 128 128 255 128 128 255 128 128 255 128 128 255 
130 32  169 130 33  172 130 36  177 130 36  179 130 37  180 130 39  183 130 47  198 130 63  220 128 128 255 128 128 255 128 128 255 128 128 255 128 128 255 128 128 255 128 128 255 128 128 255 128 128 255 128 128 255 128 128 255 128 128 255 128 128 255 128 128 255 128 128 255 128 128 255 128 128 255 128 128 255 128 128 255 128 128 255 128 128 255 128 128 255 128 128 255 128 128 255 128 128 255 128 128 255 128 128 255 128 128 255 128 128 255 128 128 255 128 128 255 128 128 255 128 128 255 128 128 255 128 128 255 128 128 255 128 128 255 128 128 255 128 128 255 128 128 255 128 128 255 128 128 255 128 128 255 128 128 255 128 128 255 128 128 255 128 128 255 128 128 255 128 128 255 128 128 255 128 128 255 128 128 255 128 128 255 128 128 255 128 128 255 128 128 255 128 128 255 128 128 255 128 128 255 128 128 255 128 128 255 128 128 255 128 128 255 128 128 255 128 128 255 128 128 255 128 128 255 128 128 255 128 128 255 128 128 255 128 128 255 128 128 255 128 128 255 128 128 255 128 128 255 128 128 255 128 128 255 128 128 255 128 128 255 128 128 255 128 128 255 128 128 255 128 128 255 128 128 255 128 128 255 128 128 255 128 128 255 128 128 255 
