P3
64 64
255
126 160 175 143 181 198 140 178 195 140 178 195 140 178 195 140 178 195 140 178 195 140 178 195 140 178 195 140 178 195 140 178 195 140 178 195 140 178 195 140 178 195 140 178 195 140 178 195 142 178 196 140 178 195 143 180 197 133 171 189 40  80  101 29  69  90  32  72  93  32  73  93  32  73  93  32  73  93  32  72  93  32  71  92  32  72  93  32  73  93  29  69  90  42  83  103 135 173 190 143 180 197 142 178 196 140 178 195 140 178 195 140 178 195 143 179 196 129 172 188 52  136 141 48  134 138 49  135 139 49  135 139 49  135 139 49  135 139 50  137 141 47  125 133 32  73  93  31  69  91  35  82  100 50  137 141 47  126 133 32  73  94  32  72  93  31  70  92  35  83  100 49  134 139 50  138 142 46  121 129 35  83  101 49  134 139 51  141 145 39  107 110 
143 182 199 162 206 225 159 202 221 159 202 221 159 202 221 159 202 221 159 202 221 159 202 221 159 202 221 159 202 221 159 202 221 159 202 221 159 202 221 159 202 221 159 202 221 159 202 221 156 200 219 160 203 222 164 205 226 154 201 220 60  144 153 36  87  109 36  83  106 37  83  106 37  82  106 37  82  105 37  84  107 37  84  107 37  84  107 37  83  106 33  79  102 48  94  117 156 198 217 164 205 224 157 201 220 159 202 221 162 204 226 152 196 207 99  151 94  90  149 98  57  153 157 56  153 159 56  153 158 56  153 158 56  153 158 56  153 158 57  156 160 53  141 149 40  93  114 53  141 150 54  145 153 56  153 158 56  152 157 53  143 151 54  146 153 51  134 144 36  81  105 42  102 121 57  158 162 53  142 150 37  83  106 39  89  111 45  110 128 45  123 126 
140 178 195 159 202 221 156 198 217 156 198 217 156 198 217 156 198 217 156 198 217 156 198 217 156 198 217 156 198 217 156 198 217 156 198 217 156 198 217 156 198 217 158 199 218 149 195 213 81  163 171 142 192 208 156 197 214 147 194 210 62  155 161 51  144 151 52  137 145 37  84  106 35  76  101 38  88  108 49  137 145 52  144 150 49  136 144 37  84  107 32  75  100 47  91  115 151 195 213 144 194 211 79  162 170 151 195 213 161 201 223 149 192 202 82  134 67  74  133 73  56  150 153 55  150 156 55  150 155 55  150 155 55  150 155 55  150 155 55  150 155 55  149 154 53  143 150 56  152 157 56  152 157 55  150 155 55  150 155 56  153 157 57  155 159 52  139 147 35  77  101 38  90  110 56  152 157 52  138 146 36  80  103 34  74  99  41  98  118 44  121 124 
140 178 195 159 202 221 156 198 217 156 198 217 156 198 217 156 198 217 156 198 217 156 198 217 156 198 217 156 198 217 156 198 217 156 198 217 156 198 217 156 198 217 156 198 217 156 198 217 138 190 207 75  158 163 65  131 102 64  128 97  56  148 149 56  154 157 55  147 153 38  86  108 37  85  107 51  139 146 60  156 160 60  156 161 56  148 154 38  86  107 35  78  100 39  89  109 65  151 159 63  156 161 63  155 160 154 197 216 163 204 224 141 183 201 44  88  100 41  95  106 55  148 154 55  151 156 55  150 155 55  150 155 55  150 155 55  150 155 55  150 155 55  150 155 56  152 157 55  150 155 55  150 155 55  150 155 55  150 155 56  153 157 53  141 149 39  91  111 36  80  103 36  82  105 38  90  110 38  88  109 36  81  104 35  78  102 42  100 120 44  122 125 
139 177 194 158 201 220 155 197 216 155 197 216 155 197 216 155 197 216 155 197 216 155 197 216 156 198 217 156 198 217 156 198 217 156 198 217 156 198 217 156 198 217 156 198 217 157 198 217 157 198 218 144 192 210 134 182 190 54  122 85  49  119 81  53  124 92  55  148 150 53  143 151 47  140 146 71  160 165 189 223 231 154 199 217 136 185 199 55  119 89  46  112 76  46  109 82  36  94  112 47  141 148 65  153 161 153 199 218 144 186 205 50  92  116 35  85  110 51  139 150 55  151 156 55  150 155 55  150 155 55  150 155 55  150 155 55  150 155 55  150 155 55  150 155 54  150 156 55  150 155 55  150 155 55  150 155 55  150 155 55  151 155 55  151 155 49  129 139 36  81  104 36  80  103 35  78  102 35  79  102 36  81  104 35  78  102 42  99  119 43  118 122 
145 182 199 165 207 226 162 203 222 162 203 222 162 203 222 162 203 222 162 203 222 161 202 222 157 198 217 156 198 217 156 198 217 156 198 217 156 198 217 156 198 217 156 198 217 156 198 217 161 202 222 167 205 226 156 201 222 67  152 152 47  118 80  50  119 82  55  148 150 53  152 157 63  155 161 147 195 211 219 238 248 169 206 227 151 192 207 56  123 85  54  122 79  54  118 85  37  82  100 37  87  107 42  98  116 63  145 153 48  94  117 35  85  108 52  142 151 56  153 159 55  150 155 55  150 155 55  150 155 55  150 155 55  150 155 55  150 155 55  150 155 56  151 154 58  152 152 54  150 157 54  149 157 54  150 156 55  150 155 56  153 157 53  141 149 38  89  110 36  79  102 36  80  103 36  81  104 36  81  104 36  80  103 35  79  103 37  85  109 30  72  88  
185 205 212 211 232 240 207 229 237 207 229 237 207 229 237 207 229 237 208 230 237 206 227 236 163 203 221 157 200 219 158 200 219 158 200 219 158 200 219 158 200 219 157 200 219 162 202 220 204 228 236 206 228 236 158 197 213 136 189 204 66  153 155 58  150 150 52  149 155 61  153 161 142 192 209 172 209 227 213 235 246 165 206 226 141 189 200 71  134 104 144 191 201 139 180 191 46  80  60  47  110 77  49  111 77  38  77  58  34  82  101 52  141 147 56  153 154 55  150 153 55  151 156 55  151 157 55  151 157 55  151 157 55  151 157 55  151 157 53  150 159 64  155 142 98  168 91  59  153 150 58  152 153 58  152 153 55  151 157 56  154 159 52  139 148 35  79  104 37  84  107 37  84  108 36  81  105 36  82  105 37  85  107 36  82  105 42  101 121 42  114 120 
56  84  64  64  95  73  62  90  70  62  89  69  62  89  69  62  90  70  60  88  67  65  95  75  142 183 199 155 197 218 151 194 213 151 194 213 151 194 213 151 194 213 154 196 216 147 188 204 69  99  82  58  86  65  53  86  65  70  129 102 138 187 203 135 188 206 60  152 153 61  152 154 155 196 213 201 225 237 164 201 219 141 188 207 75  157 165 136 183 196 160 200 223 144 183 200 48  82  55  50  118 75  51  115 77  40  69  45  42  78  56  53  123 88  52  121 87  52  124 97  55  148 151 55  150 153 55  149 152 55  149 152 55  149 152 55  149 152 55  151 155 50  136 146 55  105 95  105 171 78  109 175 75  98  169 90  55  149 152 55  152 155 51  136 143 39  92  110 53  142 146 50  130 137 35  77  98  39  90  108 52  141 149 52  141 148 55  148 155 44  119 121 
44  125 125 49  139 140 33  84  96  30  75  91  31  77  93  30  74  92  30  73  91  31  75  92  46  91  113 49  93  116 48  93  115 48  93  115 48  93  115 48  93  115 49  93  116 47  92  114 32  76  93  27  72  91  29  73  92  35  82  98  50  91  118 61  102 118 108 173 78  106 172 79  53  99  114 54  96  120 47  92  115 47  93  113 38  90  107 50  95  119 48  92  118 49  95  112 52  116 77  50  115 82  37  84  102 38  84  95  51  115 74  50  113 80  37  83  99  40  89  98  52  121 88  52  123 88  52  122 88  52  122 88  52  122 88  53  123 87  50  117 91  39  93  105 50  113 83  60  126 76  61  126 75  59  125 78  52  122 88  52  122 88  52  122 88  49  110 78  43  82  60  42  79  59  40  72  50  40  76  63  39  90  112 39  91  114 41  91  103 34  62  43  
48  134 142 55  150 156 49  118 96  53  141 143 53  144 154 38  90  110 36  81  102 35  81  106 32  77  101 32  77  100 32  77  100 32  77  100 32  77  100 32  77  100 32  77  100 32  77  101 36  81  105 43  86  106 43  86  105 32  77  103 39  78  107 127 120 152 120 178 79  106 170 69  37  83  98  28  73  102 33  81  97  47  111 79  48  109 82  33  78  100 31  77  100 34  83  98  50  114 84  37  85  101 37  84  102 51  116 84  51  116 84  37  84  102 37  85  102 50  114 83  52  119 78  52  118 78  52  118 78  52  118 78  52  118 78  52  118 77  51  117 78  50  114 80  52  120 79  50  117 80  50  117 80  50  117 80  52  118 78  52  118 77  53  121 77  49  113 82  36  77  94  36  78  95  37  80  96  36  80  97  35  79  102 35  79  105 38  80  93  33  54  31  
34  80  97  39  91  111 39  90  102 54  144 148 55  150 153 52  120 90  50  115 83  38  86  101 35  80  105 36  81  104 36  81  104 36  81  104 36  81  104 36  81  104 36  81  104 32  78  104 45  87  103 183 175 92  188 178 92  48  90  100 35  84  109 66  147 158 60  147 142 44  93  101 36  79  103 37  85  102 51  116 82  51  117 81  38  86  102 39  86  101 49  111 85  37  84  102 36  82  103 38  85  102 51  116 82  51  116 82  37  84  102 37  85  102 51  116 83  52  120 80  52  119 80  52  119 80  52  119 80  52  119 80  52  119 80  52  119 80  52  119 80  52  120 79  52  119 80  52  119 80  52  119 80  52  119 80  52  119 80  52  119 80  53  121 79  49  113 85  36  82  107 36  81  106 36  81  106 36  81  106 36  81  104 36  81  107 39  82  95  33  56  33  
45  101 72  53  139 140 51  119 92  51  118 84  40  95  106 50  116 88  55  147 137 51  120 92  38  84  99  35  80  105 36  81  104 36  81  104 36  81  104 36  81  104 36  81  104 32  78  104 46  87  103 201 184 97  209 198 86  114 164 76  41  93  107 48  135 140 42  83  62  38  68  53  38  82  99  50  115 83  51  117 81  37  85  101 37  83  103 51  116 82  51  115 82  36  82  104 37  84  102 51  116 82  51  116 82  37  84  102 37  84  102 51  116 82  50  114 83  39  89  99  51  117 81  52  120 80  52  119 80  52  119 80  52  119 80  52  119 80  52  119 80  52  119 80  52  119 80  52  119 80  52  119 80  52  119 80  52  119 80  52  119 80  53  121 79  49  113 83  36  80  102 36  80  104 36  81  104 36  81  104 36  81  104 36  81  107 39  82  96  33  56  36  
48  110 77  57  151 149 52  123 91  52  120 81  52  136 139 40  94  113 52  138 145 51  121 92  38  84  99  35  80  105 36  81  104 36  81  104 36  81  104 36  81  104 36  81  104 33  80  102 44  82  109 142 128 154 141 179 87  180 186 84  50  89  101 37  75  60  41  69  43  40  71  50  38  84  98  50  114 85  38  85  101 37  83  103 51  116 82  51  116 82  37  85  102 37  84  102 51  117 82  51  116 82  37  83  102 37  84  102 51  117 82  51  115 82  37  83  103 38  86  101 52  118 81  52  120 80  52  119 80  52  119 80  52  119 80  52  119 80  52  119 80  52  119 80  52  119 80  52  119 80  52  119 80  52  119 80  52  119 80  52  119 80  52  121 82  50  111 73  40  73  58  37  81  103 36  80  106 36  80  104 36  81  104 36  81  104 36  85  108 28  64  78  
50  132 130 55  148 151 40  94  109 52  141 143 56  153 157 39  91  110 37  86  105 38  87  102 36  81  103 36  81  104 36  81  104 36  81  104 36  81  104 36  81  104 36  81  104 36  81  104 34  80  103 51  83  114 139 129 148 127 169 88  42  88  97  34  75  96  36  80  98  36  80  99  36  81  104 37  83  103 38  85  101 51  116 82  51  116 81  38  86  101 35  78  106 38  86  101 50  114 83  37  84  102 37  85  102 51  117 82  51  115 82  37  83  102 37  85  102 51  116 82  52  121 80  52  119 80  52  119 80  52  119 80  52  119 80  52  119 80  52  119 80  52  120 80  52  119 80  52  119 80  52  119 80  52  119 80  52  119 80  52  119 80  52  121 82  50  109 73  43  79  48  48  110 85  36  85  104 36  84  103 35  82  105 36  81  104 40  82  106 30  63  82  
47  112 79  52  123 87  38  86  103 51  138 150 55  148 153 49  118 91  49  115 78  49  115 84  37  85  103 34  81  106 35  82  105 36  81  104 36  81  104 36  81  104 36  81  104 35  82  106 34  81  102 35  70  51  58  78  65  130 119 141 49  78  63  32  80  100 35  82  109 35  82  107 35  81  106 35  83  104 49  114 85  50  117 82  37  87  102 34  80  106 35  82  105 35  82  105 35  84  104 38  87  102 48  114 79  48  113 79  35  81  99  37  85  100 51  117 83  50  120 82  50  118 82  51  121 80  51  121 80  51  121 80  51  121 80  51  121 80  51  120 81  50  118 82  52  120 80  52  119 80  52  120 79  52  120 79  52  120 80  52  119 80  51  122 81  50  110 72  41  79  50  50  117 82  53  113 81  51  106 86  37  80  104 46  73  96  84  50  71  64  38  54  
49  102 68  52  117 81  38  85  101 36  85  109 38  86  108 42  84  98  55  113 79  55  115 78  42  82  99  39  77  102 39  79  102 36  81  104 36  81  104 36  81  104 36  81  104 38  79  103 39  78  99  44  69  48  43  68  41  53  72  56  45  71  50  40  77  97  40  78  103 39  79  102 39  79  102 39  79  102 41  83  99  40  82  100 38  78  102 39  79  102 39  79  102 38  78  103 40  81  100 50  110 76  57  121 88  44  91  109 42  89  109 49  116 84  50  110 78  41  82  100 42  86  98  54  114 80  54  116 79  54  115 79  54  115 79  55  116 78  51  109 82  41  88  97  51  117 82  51  121 80  51  117 81  51  117 81  51  118 81  51  120 80  55  118 84  50  109 74  43  74  58  49  78  90  84  54  62  80  52  62  77  48  65  82  48  66  92  48  63  70  36  49  
74  46  60  45  81  100 34  82  105 35  80  104 36  78  102 74  53  74  81  53  68  80  54  68  78  51  70  79  50  69  80  49  69  40  79  101 33  83  106 35  82  105 39  79  102 77  51  71  82  48  67  78  51  67  79  50  65  80  46  59  81  48  63  77  51  71  78  51  70  81  49  68  81  49  68  81  49  68  81  48  69  81  48  69  81  49  68  81  49  68  81  49  68  82  48  69  75  45  58  68  70  60  143 186 199 150 192 214 138 188 205 59  141 143 37  51  60  76  46  66  82  48  68  83  52  66  83  52  67  83  52  67  83  52  67  83  52  67  84  50  65  73  51  74  39  90  98  52  112 85  35  85  102 34  83  103 36  91  98  68  108 86  98  75  107 48  81  106 112 69  96  118 66  44  109 58  39  61  41  34  65  42  42  94  50  63  124 67  41  94  51  28  
78  38  58  44  77  101 34  82  105 36  81  104 36  81  104 41  78  100 41  76  100 41  76  100 40  78  101 44  76  98  76  52  71  44  75  97  37  80  103 35  82  105 39  79  102 84  46  65  87  45  64  47  74  97  42  77  101 82  49  70  86  45  66  46  74  96  42  76  99  83  47  67  87  44  63  86  45  64  86  45  64  86  45  64  86  45  64  86  45  64  87  45  65  81  40  56  67  54  48  148 181 196 161 203 224 160 202 221 162 203 222 138 193 210 49  127 135 40  39  53  85  43  62  87  44  65  83  43  61  82  43  60  83  43  60  85  43  61  89  43  63  77  50  69  54  77  105 101 74  108 42  79  105 36  80  105 51  78  105 117 70  108 104 69  110 53  77  106 118 67  108 122 67  102 117 68  103 104 67  102 107 67  103 118 66  109 124 70  92  96  51  27  
73  43  61  44  78  101 34  82  105 36  81  104 36  81  104 35  82  105 35  82  105 35  82  105 34  82  105 33  83  107 43  76  98  80  50  69  81  48  69  38  80  102 37  80  103 78  51  70  85  46  66  79  50  70  39  78  101 40  78  101 80  50  69  78  50  71  44  75  98  81  49  69  86  45  64  85  46  65  85  46  65  85  46  65  85  46  65  85  46  65  86  46  66  77  39  55  72  61  52  208 229 239 161 203 223 153 196 215 158 199 218 148 198 216 60  145 153 34  40  53  84  44  64  80  45  58  60  43  37  59  43  36  57  43  36  56  44  39  82  44  60  89  49  72  114 68  110 120 66  112 112 69  110 111 69  109 113 68  110 121 66  111 118 69  112 106 64  101 92  50  75  122 67  112 108 69  113 45  81  107 59  79  108 116 70  113 116 66  105 67  37  46  
35  71  90  38  83  106 36  81  104 36  81  104 36  81  104 36  81  104 36  81  104 35  82  105 34  83  106 41  77  100 77  50  72  85  45  65  82  51  67  43  77  98  36  81  105 38  80  102 41  77  99  80  49  68  81  49  68  40  78  101 40  78  101 80  49  69  84  47  66  85  46  65  85  46  65  85  46  65  85  46  65  85  46  65  85  46  65  85  46  65  86  46  66  77  39  55  71  60  51  199 222 231 167 207 225 161 201 219 165 203 222 165 208 227 130 174 186 40  41  56  75  41  54  68  47  46  111 65  101 116 66  105 103 68  105 43  72  89  55  44  39  88  48  68  119 68  109 115 70  108 120 68  110 121 67  110 119 68  109 114 70  107 120 69  112 113 62  101 89  48  70  117 69  109 112 72  109 114 67  110 97  71  109 63  79  109 109 65  97  41  31  24  
30  75  95  36  84  107 36  81  104 36  81  104 36  81  104 36  81  104 36  81  104 38  80  103 41  78  101 77  56  70  83  49  66  45  81  95  55  109 80  77  58  70  39  77  101 33  84  107 38  82  106 41  78  101 81  49  68  81  48  68  40  78  101 40  78  101 80  49  69  86  45  64  85  46  65  85  46  65  85  46  65  85  46  65  85  46  65  85  46  65  86  46  66  82  42  58  50  50  41  80  161 166 207 233 244 215 236 247 209 234 244 196 224 219 88  135 84  30  38  42  60  42  40  113 65  103 120 69  113 120 69  112 122 68  112 101 72  112 37  72  86  65  43  44  109 76  104 67  110 92  117 69  109 122 65  112 108 77  106 67  110 91  119 70  112 115 63  102 96  47  77  106 77  104 70  106 88  114 72  107 114 71  108 114 70  114 109 65  96  43  33  20  
35  71  91  40  81  103 35  82  105 34  82  105 35  82  105 35  82  105 38  80  103 77  50  71  82  50  67  57  104 78  54  116 79  48  121 83  52  115 81  81  53  67  43  74  97  44  79  103 103 71  109 45  78  103 38  77  98  79  50  68  79  49  67  41  77  100 41  77  99  82  48  68  86  45  64  85  46  65  85  46  65  85  46  65  85  46  65  85  46  65  86  46  66  82  42  59  52  49  41  61  142 146 163 207 225 147 199 217 75  161 159 93  148 84  71  118 63  30  38  43  58  42  38  120 68  112 119 68  111 118 68  110 121 67  110 108 71  113 36  76  94  61  42  38  100 83  115 63  139 145 119 70  111 123 63  107 100 85  118 63  138 144 118 69  110 113 68  108 113 69  106 120 65  111 104 78  105 59  115 84  72  106 90  122 68  115 124 68  98  94  48  24  
74  43  60  83  50  69  45  75  97  38  79  102 38  78  102 33  82  106 36  81  104 82  48  67  86  44  65  42  83  100 47  117 86  54  115 80  46  82  96  82  48  69  84  46  66  86  49  71  115 59  99  87  50  76  43  75  102 48  73  100 88  45  68  76  49  72  40  74  99  82  44  67  87  40  62  86  41  63  86  41  63  86  41  63  86  41  63  86  41  63  86  41  63  86  42  64  79  42  56  70  65  60  135 177 191 64  149 157 52  141 137 71  119 66  39  46  52  35  35  45  62  43  39  114 64  101 121 68  111 120 68  110 123 67  110 108 70  111 42  71  85  52  44  39  42  91  111 69  134 148 115 70  111 102 67  106 42  93  114 71  133 147 101 70  110 42  88  99  67  112 88  118 75  109 117 73  108 108 72  102 112 71  106 117 69  112 122 78  97  94  57  29  
76  40  56  87  46  64  82  48  67  83  48  67  84  50  64  47  77  95  39  78  102 81  49  68  82  48  64  40  77  97  37  82  98  75  55  68  80  49  65  81  48  64  83  47  62  82  47  62  87  60  75  110 76  106 110 80  113 109 80  113 107 78  110 46  88  104 40  89  104 81  60  74  84  58  70  83  59  71  83  59  71  83  59  71  83  59  71  83  59  71  83  59  71  83  57  70  82  44  63  77  42  55  58  49  40  47  45  37  31  43  52  38  41  50  74  42  60  79  45  65  75  48  62  64  50  51  110 69  109 113 70  112 115 71  114 103 67  101 57  47  44  68  54  71  48  81  107 97  77  114 44  81  106 36  82  106 48  81  107 97  75  111 40  80  107 34  88  101 54  116 75  85  130 72  78  111 63  61  40  40  84  40  65  83  61  66  78  127 73  42  86  58  
78  43  61  90  49  69  85  45  64  86  45  62  118 62  44  117 66  37  89  51  62  82  46  65  43  63  45  35  68  44  37  67  44  41  64  41  41  64  42  40  66  41  38  63  41  40  73  48  62  192 129 69  208 144 69  204 140 69  204 140 68  205 141 61  206 141 62  205 140 65  203 137 65  203 137 65  203 137 65  203 137 65  203 137 65  203 137 65  203 137 66  209 141 61  186 127 31  32  30  28  20  22  25  20  18  26  21  19  24  21  21  25  21  22  30  24  25  36  41  56  39  75  97  36  76  95  40  77  100 41  77  100 41  77  100 40  76  99  38  74  94  38  76  99  37  77  99  42  76  98  34  78  100 33  78  100 37  78  101 41  79  104 34  79  102 34  71  93  35  42  47  56  49  30  49  45  28  25  23  21  28  23  23  28  25  23  28  33  26  20  24  21  
105 60  97  118 68  108 90  49  72  87  48  69  112 63  95  125 66  46  121 63  34  87  49  61  58  79  57  57  84  53  53  81  59  52  81  60  55  83  56  53  82  59  55  80  54  56  91  59  63  207 136 63  220 146 63  217 143 63  217 143 63  217 143 65  216 143 65  216 143 64  217 144 63  217 144 64  217 144 63  217 144 60  217 143 60  217 143 60  217 143 64  223 148 59  199 133 26  31  26  23  18  18  24  23  22  24  23  22  25  23  22  25  24  22  25  24  26  29  36  48  29  40  53  30  40  55  29  39  53  28  39  52  28  39  52  29  39  52  30  40  54  28  39  54  34  40  48  47  43  36  30  39  52  30  37  51  31  47  62  34  72  90  30  39  53  29  37  52  33  35  45  51  39  30  46  36  28  24  23  22  24  23  21  23  22  21  25  21  22  20  16  16  
108 60  101 121 69  113 117 67  109 115 66  106 93  51  79  112 63  93  116 61  43  92  54  63  167 191 147 178 212 160 145 193 198 143 193 200 172 204 163 148 195 194 175 205 162 172 207 153 73  212 143 61  213 141 64  213 142 64  213 142 64  213 142 64  213 142 64  213 142 64  213 142 64  213 142 64  213 142 65  213 142 78  213 144 79  213 145 77  213 144 66  219 146 60  195 131 27  31  27  24  19  19  25  23  22  25  23  21  26  24  25  30  35  46  30  35  49  30  36  49  30  35  48  29  34  45  30  34  46  30  35  48  30  35  48  30  35  48  30  35  48  29  35  49  34  36  45  48  39  32  30  35  48  29  34  48  34  36  43  49  42  35  30  35  48  30  35  48  30  36  49  31  37  49  29  34  44  25  23  22  25  23  22  25  23  22  26  24  23  20  18  17  
103 66  96  120 70  112 119 68  111 119 68  112 115 66  106 93  51  76  85  43  61  84  52  67  76  199 138 74  222 149 72  215 150 72  215 150 75  216 147 72  215 150 75  216 147 75  216 146 65  213 142 64  213 142 64  213 142 64  213 142 64  213 142 64  213 142 64  213 142 64  213 142 64  213 142 57  213 141 69  213 143 168 215 159 183 215 162 163 215 159 67  219 146 57  195 130 27  31  27  24  19  19  25  23  22  25  23  21  26  24  25  30  37  49  30  37  51  30  36  50  29  33  44  25  24  24  26  25  26  29  35  45  30  35  47  30  36  49  30  36  49  30  36  49  30  35  46  31  36  48  30  37  50  28  33  45  30  26  23  47  39  33  29  36  50  29  36  50  30  36  49  31  37  49  30  34  43  25  23  22  25  23  22  25  23  22  26  24  23  20  18  17  
76  122 65  116 77  108 120 63  112 119 66  111 121 66  113 116 64  108 90  46  72  83  52  67  63  196 133 60  218 144 62  213 140 62  213 140 61  213 141 62  213 140 61  213 141 61  213 142 64  213 142 64  213 142 64  213 142 64  213 142 64  213 142 64  213 142 64  213 142 64  213 142 65  213 142 78  213 144 81  213 145 87  213 146 76  213 144 88  213 146 80  219 148 60  195 131 27  31  27  24  19  19  25  23  22  25  23  21  26  24  25  29  34  45  30  36  47  29  34  46  25  24  24  25  23  21  25  23  21  26  25  25  26  26  26  30  36  49  30  37  51  29  33  42  26  26  29  29  36  49  30  37  51  29  33  44  27  26  27  33  37  46  32  36  47  31  36  49  34  37  46  54  42  29  48  38  28  25  23  22  25  23  22  25  23  22  26  24  23  20  18  17  
78  119 68  113 86  105 116 75  107 115 77  107 115 77  107 116 77  109 116 65  106 88  55  73  65  195 133 63  218 145 64  213 142 64  213 142 64  213 142 64  213 142 64  213 142 64  213 142 64  213 142 64  213 142 64  213 142 64  213 142 64  213 142 64  213 142 64  213 142 61  213 141 73  213 144 171 215 160 183 215 162 162 215 158 76  213 144 169 215 160 170 221 163 65  195 132 24  31  27  24  19  19  25  23  22  25  23  22  25  23  23  26  25  26  27  27  30  29  34  45  25  24  22  25  22  22  26  26  28  28  32  40  26  25  26  30  36  49  29  33  43  27  27  30  30  36  47  32  36  47  29  36  50  28  36  50  34  36  45  51  41  30  53  41  29  47  40  34  34  37  46  52  42  31  47  38  30  25  23  22  25  23  22  25  23  22  26  24  23  20  18  17  
104 63  95  93  121 80  86  129 73  87  126 74  86  127 73  89  125 75  114 69  102 90  53  75  66  199 136 64  223 148 64  218 146 65  218 145 65  217 145 65  217 145 65  217 145 65  217 145 65  217 145 65  217 145 65  218 145 64  218 146 64  218 145 64  216 144 64  216 144 65  217 143 65  217 145 73  218 147 74  218 147 73  218 146 66  217 145 73  218 147 74  224 151 61  199 134 26  30  26  23  17  18  24  21  21  24  20  19  25  21  23  28  31  42  29  32  44  28  32  45  24  22  21  25  23  25  28  31  41  25  22  23  25  23  25  28  32  42  26  25  28  28  32  44  33  35  44  49  39  32  33  35  46  31  36  48  33  37  47  53  41  28  54  40  27  50  39  31  30  35  49  30  36  47  27  32  38  22  22  19  23  21  19  25  21  20  25  22  22  20  17  16  
73  39  57  81  50  62  78  50  60  78  50  60  78  50  60  79  49  60  81  42  61  79  49  64  63  184 125 61  204 135 63  197 131 62  200 133 62  200 133 62  199 133 62  199 133 62  199 133 62  199 133 62  200 133 62  200 133 63  197 131 63  197 131 63  205 135 63  205 136 62  201 138 61  199 133 59  199 132 59  199 132 59  199 132 61  199 133 59  199 132 60  205 136 58  183 123 28  35  29  26  24  21  27  28  25  28  32  27  28  33  28  28  34  29  29  35  33  31  42  48  27  29  25  27  28  24  27  28  26  26  27  24  27  27  24  28  30  29  30  37  44  26  28  26  29  30  27  51  44  31  51  44  31  48  43  35  39  39  45  56  43  29  56  43  29  48  43  32  31  40  49  31  40  53  35  29  34  33  28  33  35  29  33  26  29  30  28  29  24  21  22  19  
24  21  21  28  22  24  28  22  24  28  22  24  28  22  24  28  22  24  27  22  23  28  26  25  39  73  47  42  77  50  52  51  35  45  71  46  42  78  50  42  77  49  42  77  49  42  77  49  42  77  49  42  79  50  44  73  47  53  47  31  53  52  37  51  116 83  50  120 91  38  88  100 41  77  53  41  77  49  41  77  49  42  77  49  42  77  49  42  77  49  42  77  49  42  76  49  40  69  44  40  67  43  41  74  48  51  115 78  51  117 79  50  111 74  51  118 79  50  110 75  39  70  45  39  68  43  40  69  44  40  69  44  40  69  44  40  69  44  40  70  46  41  69  43  44  68  42  45  69  43  40  70  45  48  68  42  81  59  32  84  58  30  76  61  33  41  70  43  36  72  59  46  73  97  109 62  101 124 62  98  92  65  102 35  73  87  41  73  50  32  54  34  
21  21  19  25  22  21  24  23  21  24  23  21  24  23  21  24  23  21  24  22  21  25  24  22  42  63  40  46  67  42  51  43  29  52  39  28  43  62  41  40  69  43  40  69  43  40  69  43  40  70  43  42  64  40  51  41  29  52  39  31  52  40  30  38  77  91  36  81  100 35  78  100 41  69  47  45  67  41  44  67  42  41  68  43  40  68  43  41  68  43  40  68  43  41  68  43  41  72  45  41  70  45  42  77  49  51  116 78  51  111 74  44  81  52  51  116 78  52  117 78  46  72  45  45  70  43  42  72  45  41  72  46  40  72  46  40  72  46  38  72  46  47  70  43  83  61  33  76  63  35  38  73  46  46  71  44  79  62  33  80  61  33  73  63  32  40  75  55  34  75  95  24  38  53  74  45  48  181 59  38  34  36  47  29  48  65  39  84  96  33  57  35  
22  21  20  26  23  22  25  23  22  25  23  22  25  23  22  25  23  22  24  22  22  27  24  22  77  56  31  82  63  33  46  63  40  51  40  29  53  41  29  43  65  43  42  69  43  43  68  43  43  66  42  52  42  28  52  43  34  39  74  93  50  50  45  43  64  40  40  72  51  36  79  91  44  71  49  81  60  31  80  61  33  43  70  44  40  71  45  41  71  45  41  71  45  41  71  45  41  71  45  41  71  45  41  71  45  41  73  46  41  72  46  41  69  44  41  79  51  54  107 70  83  62  33  77  60  33  42  71  45  41  71  45  45  70  44  45  70  44  43  70  45  47  69  43  80  61  33  75  59  33  43  67  43  41  68  44  42  71  44  43  69  42  44  67  39  40  76  61  33  72  92  35  37  44  127 69  34  202 99  48  52  40  39  28  43  61  38  82  92  33  56  35  
22  21  20  26  23  22  25  23  22  25  23  22  25  23  22  25  23  22  24  22  22  27  24  22  73  58  32  80  57  31  55  53  36  52  50  36  52  44  31  52  41  29  51  42  30  51  46  31  52  43  30  52  43  29  52  44  34  37  79  95  37  78  94  49  51  43  41  71  50  40  73  49  43  71  45  78  61  33  77  62  34  43  70  44  40  71  45  41  71  45  41  71  45  41  72  46  41  72  46  41  72  45  41  71  45  40  71  45  41  70  44  41  71  45  40  71  45  45  73  45  79  62  34  74  63  34  40  71  45  46  71  44  81  60  32  84  59  31  75  62  35  41  73  45  43  67  43  54  43  30  52  44  31  50  47  31  39  73  48  41  69  49  47  54  53  37  82  95  31  66  49  56  37  44  203 69  33  203 102 72  98  60  90  32  43  47  41  75  49  33  58  36  
22  21  20  26  23  22  25  23  22  25  23  22  25  23  22  25  23  22  25  22  22  25  25  23  43  60  39  54  57  39  52  106 71  50  112 74  42  73  46  55  44  29  56  43  30  45  61  39  51  43  30  44  59  38  51  43  30  43  64  42  41  69  50  37  78  92  38  76  91  43  67  45  43  67  41  42  70  44  42  71  45  41  71  45  41  71  45  41  71  45  40  71  45  41  67  43  43  66  42  42  66  42  41  69  43  42  67  43  41  71  45  41  69  44  42  65  41  42  64  41  44  66  42  43  65  42  39  69  43  47  67  41  78  61  33  80  58  31  74  56  31  42  66  42  43  61  39  51  43  30  46  58  38  51  42  27  41  66  49  38  73  92  38  73  95  39  74  86  39  60  42  40  36  39  93  58  45  112 66  88  76  52  33  50  44  30  44  68  43  33  53  34  
22  21  20  26  23  22  25  23  22  25  23  22  25  23  22  25  23  22  24  23  22  26  22  21  48  46  33  51  104 70  42  80  51  41  73  46  48  69  43  80  60  32  82  58  31  53  48  32  52  50  36  53  53  37  53  51  36  52  45  31  50  48  31  42  69  46  50  49  35  52  44  31  50  47  32  41  70  44  40  72  45  41  71  45  41  71  45  41  72  45  46  67  43  55  45  31  52  44  31  51  56  38  44  73  47  50  50  34  41  71  45  43  75  49  53  54  37  52  51  36  51  46  31  50  57  39  44  73  47  50  49  34  42  71  45  45  74  48  54  52  36  53  52  36  53  52  36  53  52  36  53  53  37  53  52  36  53  52  37  53  53  40  52  54  40  52  51  37  52  46  32  51  51  36  60  56  38  86  66  39  53  50  33  52  46  32  55  53  37  41  35  25  
22  19  17  26  21  19  25  21  19  25  21  19  25  21  19  25  22  21  25  22  21  26  24  22  40  66  42  43  77  48  40  72  44  43  69  41  73  62  32  80  60  31  76  60  31  45  71  43  49  108 71  52  115 76  50  108 71  41  71  46  40  66  42  40  68  43  40  67  42  40  70  43  40  70  43  40  68  41  41  68  41  41  70  43  40  71  43  45  70  42  82  61  31  80  57  29  42  71  44  47  109 71  47  107 69  38  68  41  39  72  45  47  108 71  49  111 73  46  103 67  40  73  45  48  109 71  47  106 69  38  67  41  38  73  46  47  109 71  47  110 72  48  108 71  46  107 69  45  107 69  46  107 69  45  107 69  46  106 69  46  106 68  46  108 70  44  98  62  38  72  44  42  107 69  63  108 67  114 111 62  42  97  62  37  74  46  46  101 66  28  51  30  
23  27  29  27  30  32  26  30  32  27  31  34  26  31  33  24  22  25  24  20  24  25  23  25  36  59  43  39  64  42  39  63  42  41  73  53  42  74  54  42  72  52  42  72  51  40  73  52  41  74  53  40  70  49  41  75  53  45  79  49  46  79  48  46  79  48  46  78  48  48  68  46  47  68  47  43  80  57  42  80  58  41  73  52  40  72  52  44  71  50  75  58  35  74  65  42  52  78  54  51  81  57  52  80  56  51  78  55  51  78  55  52  80  56  52  81  57  51  80  56  51  79  55  52  80  57  52  80  56  51  78  55  51  78  55  52  80  56  51  80  56  53  82  58  59  88  64  59  88  64  59  88  64  59  88  64  59  88  64  59  88  64  59  88  64  59  88  64  59  86  63  59  88  64  60  88  64  62  88  64  59  88  64  59  86  63  62  91  67  46  68  50  
32  72  91  37  82  104 36  81  104 33  72  97  33  70  93  36  50  56  38  48  48  38  50  49  38  51  51  32  52  61  32  52  66  34  69  90  33  73  97  35  82  104 35  81  103 36  82  103 36  76  98  30  41  57  38  79  94  79  132 74  83  137 69  82  137 70  82  130 71  79  54  67  76  55  76  54  143 151 53  145 150 37  85  105 36  81  103 35  76  96  30  41  55  50  78  97  122 125 126 127 127 126 126 126 125 126 127 126 126 127 126 126 126 125 126 126 125 126 126 125 126 126 126 126 126 125 126 126 125 126 127 126 126 126 126 126 126 125 123 123 122 134 134 134 187 187 187 189 189 189 188 188 188 188 188 188 188 188 188 188 188 188 188 188 188 188 188 188 188 189 188 188 188 188 188 188 188 187 188 188 188 188 188 188 189 188 196 196 196 149 150 149 
32  74  95  37  85  110 35  73  95  37  50  56  38  52  53  78  127 69  79  132 75  76  127 73  75  127 77  63  138 141 55  143 140 35  60  70  36  47  52  34  70  93  36  82  108 36  83  107 36  77  101 30  40  58  38  80  97  81  135 76  85  140 70  85  139 71  81  134 73  40  79  98  38  82  106 61  152 146 55  148 153 37  85  108 36  81  105 34  77  100 33  36  52  84  53  71  128 126 128 131 131 130 130 129 129 130 129 129 130 129 129 130 129 129 130 129 129 130 129 129 130 129 129 130 129 129 130 129 129 130 129 129 130 129 129 130 129 129 126 126 126 139 138 139 194 193 194 196 195 196 195 194 195 195 194 195 195 194 195 195 194 195 195 194 195 195 194 195 195 194 195 195 194 195 195 194 195 195 194 195 195 194 195 195 194 195 203 202 203 154 154 154 
32  73  94  35  76  99  32  55  70  73  125 76  85  138 68  77  130 75  42  89  101 35  81  105 41  81  106 109 75  109 91  126 87  59  149 141 73  133 86  41  58  55  34  71  93  36  82  106 36  77  100 30  41  58  38  80  96  80  134 75  84  139 70  84  138 70  80  134 74  38  91  110 43  97  107 104 172 81  59  148 145 36  84  109 36  81  104 34  77  99  34  36  51  87  51  68  127 125 126 129 130 129 128 128 128 128 128 128 128 128 128 128 128 128 128 128 128 128 128 128 128 128 128 128 128 128 128 128 128 128 128 128 128 128 128 128 128 128 125 125 125 137 137 137 191 191 191 193 193 193 192 192 192 192 192 192 192 192 192 192 192 192 192 192 192 192 192 192 192 192 192 192 192 192 192 192 192 192 192 192 192 192 192 192 192 192 200 200 200 152 152 152 
32  71  91  32  47  61  57  136 130 60  156 153 77  140 91  42  88  98  33  77  106 35  84  102 40  85  102 113 68  108 118 72  111 59  144 157 57  155 152 77  130 75  36  47  52  34  75  100 36  79  101 30  40  56  38  81  97  82  136 74  84  139 70  84  137 69  81  138 77  54  146 151 58  151 149 109 177 79  59  149 145 36  84  109 36  81  104 34  78  101 32  36  51  86  52  69  127 125 126 129 130 129 128 128 128 128 128 128 128 128 128 128 128 128 128 128 128 128 128 128 128 128 128 128 128 128 128 128 128 128 128 128 128 128 128 128 128 128 125 125 125 137 137 137 191 191 191 193 193 193 192 192 192 192 192 192 192 192 192 192 192 192 192 192 192 192 192 192 192 192 192 192 192 192 192 192 192 192 192 192 192 192 192 192 192 192 200 200 200 152 152 152 
31  70  93  35  47  56  104 163 69  63  160 151 52  146 156 37  85  108 36  86  99  49  117 82  54  117 80  109 68  101 119 66  113 63  140 145 55  155 156 80  135 76  36  47  50  34  75  100 36  80  102 30  46  63  35  75  91  73  128 79  85  141 70  86  139 67  81  138 78  56  150 154 69  161 140 101 175 92  55  139 140 36  85  110 36  82  105 32  72  93  40  37  52  88  51  68  127 125 126 129 130 129 128 128 128 128 128 128 128 128 128 128 128 128 128 128 128 128 128 128 128 128 128 128 128 128 128 128 128 128 128 128 128 128 128 128 128 128 125 125 125 137 137 137 191 191 191 193 193 193 192 192 192 192 192 192 192 192 192 192 192 192 192 192 192 192 192 192 192 192 192 192 192 192 192 192 192 192 192 192 192 192 192 192 192 192 200 200 200 152 152 152 
31  70  93  34  46  57  94  148 69  71  162 138 51  147 160 39  96  119 55  102 78  52  123 78  52  120 79  83  50  69  110 72  98  84  133 81  64  153 133 72  126 81  35  46  52  34  74  99  36  83  107 36  77  99  39  41  58  46  75  90  73  128 80  77  133 74  79  140 78  65  153 132 94  166 89  54  140 139 34  85  110 33  75  97  32  71  92  43  39  54  82  41  60  84  58  75  126 125 125 129 130 129 128 128 128 128 128 128 128 128 128 128 128 128 128 128 128 128 128 128 128 128 128 128 128 128 128 128 128 128 128 128 128 128 128 128 128 128 125 125 125 137 137 137 191 191 191 193 193 193 192 192 192 192 192 192 192 192 192 192 192 192 192 192 192 192 192 192 192 192 192 192 192 192 192 192 192 192 192 192 192 192 192 192 192 192 200 200 200 152 152 152 
26  68  89  24  37  54  32  73  89  95  160 74  67  160 130 59  148 139 73  71  82  55  96  71  52  102 72  82  70  62  85  132 65  80  138 64  69  124 75  33  78  94  23  34  52  29  71  94  31  81  106 35  78  102 72  50  70  72  49  70  43  71  95  43  78  95  80  120 69  80  119 70  45  77  93  40  73  99  41  69  92  35  36  52  39  35  50  74  46  66  70  50  72  44  82  103 121 124 125 127 126 126 125 125 125 125 125 125 125 125 125 125 125 125 125 125 125 125 125 125 125 125 125 125 125 125 125 125 125 125 125 125 125 125 125 125 125 125 122 122 122 135 135 135 194 194 194 196 196 196 195 195 195 195 195 195 195 195 195 195 195 195 195 195 195 195 195 195 195 195 195 195 195 195 195 195 195 195 195 195 195 195 195 195 195 195 203 203 203 154 154 154 
52  86  103 54  64  79  57  90  109 96  142 92  124 178 85  124 182 92  81  154 149 95  73  93  101 68  81  123 168 86  125 184 85  99  146 89  61  101 113 56  92  114 54  63  75  56  92  111 50  89  110 49  87  107 49  88  108 53  85  104 87  59  77  91  56  74  91  59  74  91  58  73  89  57  75  90  57  74  90  58  74  91  56  72  87  59  75  53  86  105 46  86  107 57  92  110 133 135 136 139 138 138 137 137 137 137 137 137 137 137 137 137 137 137 137 137 137 137 137 137 137 137 137 137 137 137 137 137 137 137 137 137 137 137 137 137 137 137 135 135 135 143 143 143 182 182 182 184 184 184 183 183 183 183 183 183 183 183 183 183 183 183 183 183 183 183 183 183 183 183 183 183 183 183 183 183 183 183 183 183 183 183 183 183 183 183 191 191 191 145 145 145 
171 171 171 195 195 195 191 191 191 191 191 191 192 192 190 192 192 190 191 193 193 191 190 191 192 190 191 192 193 191 192 193 191 191 191 191 190 190 192 191 191 191 193 193 193 187 187 187 132 133 133 125 126 126 126 128 128 127 128 128 128 127 127 128 127 127 128 126 127 128 126 127 128 127 127 128 127 127 128 127 127 128 127 128 128 127 128 127 128 128 124 126 126 133 134 134 188 188 188 192 192 192 191 191 191 191 191 191 191 191 191 191 191 191 191 191 191 191 191 191 191 191 191 191 191 191 191 191 191 191 191 191 191 191 191 191 191 191 194 194 194 183 183 183 130 130 130 128 128 128 129 129 129 129 129 129 129 129 129 129 129 129 129 129 129 129 129 129 129 129 129 129 129 129 129 129 129 129 129 129 129 129 129 129 129 129 134 134 134 101 101 101 
174 173 173 198 198 198 194 194 193 194 193 194 193 192 194 193 192 194 194 193 193 194 194 194 194 194 194 193 192 194 193 192 194 194 193 194 194 194 193 194 194 193 196 196 196 190 190 189 134 134 133 127 127 126 129 129 128 129 129 128 129 129 129 129 129 129 129 129 129 129 129 129 129 129 129 129 129 129 129 129 129 129 129 129 129 129 129 129 129 128 127 127 126 135 135 134 190 190 190 194 194 194 193 193 193 193 193 193 193 193 193 193 193 193 193 193 193 193 193 193 193 193 193 193 193 193 193 193 193 193 193 193 193 193 193 193 193 193 196 196 196 184 184 184 128 128 128 126 126 126 127 127 127 127 127 127 127 127 127 127 127 127 127 127 127 127 127 127 127 127 127 127 127 127 127 127 127 127 127 127 127 127 127 127 127 127 132 132 132 100 100 100 
172 172 172 196 196 196 192 192 192 192 192 192 192 192 192 192 192 192 192 192 192 192 192 192 192 192 192 192 192 192 192 192 192 192 192 192 192 192 192 192 192 192 194 194 194 188 188 188 133 133 133 126 126 126 128 128 128 128 128 128 128 128 128 128 128 128 128 128 128 128 128 128 128 128 128 128 128 128 128 128 128 128 128 128 128 128 128 128 128 128 126 126 126 134 134 134 189 189 189 193 193 193 192 192 192 192 192 192 192 192 192 192 192 192 192 192 192 192 192 192 192 192 192 192 192 192 192 192 192 192 192 192 192 192 192 192 192 192 195 195 195 183 183 183 129 129 129 127 127 127 128 128 128 128 128 128 128 128 128 128 128 128 128 128 128 128 128 128 128 128 128 128 128 128 128 128 128 128 128 128 128 128 128 128 128 128 133 133 133 101 101 101 
172 172 172 196 196 196 192 192 192 192 192 192 192 192 192 192 192 192 192 192 192 192 192 192 192 192 192 192 192 192 192 192 192 192 192 192 192 192 192 192 192 192 194 194 194 188 188 188 133 133 133 126 126 126 128 128 128 128 128 128 128 128 128 128 128 128 128 128 128 128 128 128 128 128 128 128 128 128 128 128 128 128 128 128 128 128 128 128 128 128 126 126 126 134 134 134 189 189 189 193 193 193 192 192 192 192 192 192 192 192 192 192 192 192 192 192 192 192 192 192 192 192 192 192 192 192 192 192 192 192 192 192 192 192 192 192 192 192 195 195 195 183 183 183 129 129 129 127 127 127 128 128 128 128 128 128 128 128 128 128 128 128 128 128 128 128 128 128 128 128 128 128 128 128 128 128 128 128 128 128 128 128 128 128 128 128 133 133 133 101 101 101 
172 172 172 196 196 196 192 192 192 192 192 192 192 192 192 192 192 192 192 192 192 192 192 192 192 192 192 192 192 192 192 192 192 192 192 192 192 192 192 192 192 192 194 194 194 188 188 188 133 133 133 126 126 126 128 128 128 128 128 128 128 128 128 128 128 128 128 128 128 128 128 128 128 128 128 128 128 128 128 128 128 128 128 128 128 128 128 128 128 128 126 126 126 134 134 134 189 189 189 193 193 193 192 192 192 192 192 192 192 192 192 192 192 192 192 192 192 192 192 192 192 192 192 192 192 192 192 192 192 192 192 192 192 192 192 192 192 192 195 195 195 183 183 183 129 129 129 127 127 127 128 128 128 128 128 128 128 128 128 128 128 128 128 128 128 128 128 128 128 128 128 128 128 128 128 128 128 128 128 128 128 128 128 128 128 128 133 133 133 101 101 101 
172 172 172 196 196 196 192 192 192 192 192 192 192 192 192 192 192 192 192 192 192 192 192 192 192 192 192 192 192 192 192 192 192 192 192 192 192 192 192 192 192 192 194 194 194 188 188 188 133 133 133 126 126 126 128 128 128 128 128 128 128 128 128 128 128 128 128 128 128 128 128 128 128 128 128 128 128 128 128 128 128 128 128 128 128 128 128 128 128 128 126 126 126 134 134 134 189 189 189 193 193 193 192 192 192 192 192 192 192 192 192 192 192 192 192 192 192 192 192 192 192 192 192 192 192 192 192 192 192 192 192 192 192 192 192 192 192 192 195 195 195 183 183 183 129 129 129 127 127 127 128 128 128 128 128 128 128 128 128 128 128 128 128 128 128 128 128 128 128 128 128 128 128 128 128 128 128 128 128 128 128 128 128 128 128 128 133 133 133 101 101 101 
172 172 172 196 196 196 192 192 192 192 192 192 192 192 192 192 192 192 192 192 192 192 192 192 192 192 192 192 192 192 192 192 192 192 192 192 192 192 192 192 192 192 194 194 194 188 188 188 133 133 133 126 126 126 128 128 128 128 128 128 128 128 128 128 128 128 128 128 128 128 128 128 128 128 128 128 128 128 128 128 128 128 128 128 128 128 128 128 128 128 126 126 126 134 134 134 189 189 189 193 193 193 192 192 192 192 192 192 192 192 192 192 192 192 192 192 192 192 192 192 192 192 192 192 192 192 192 192 192 192 192 192 192 192 192 192 192 192 195 195 195 183 183 183 129 129 129 127 127 127 128 128 128 128 128 128 128 128 128 128 128 128 128 128 128 128 128 128 128 128 128 128 128 128 128 128 128 128 128 128 128 128 128 128 128 128 133 133 133 101 101 101 
172 172 172 196 196 196 192 192 192 192 192 192 192 192 192 192 192 192 192 192 192 192 192 192 192 192 192 192 192 192 192 192 192 192 192 192 192 192 192 192 192 192 194 194 194 188 188 188 133 133 133 126 126 126 128 128 128 128 128 128 128 128 128 128 128 128 128 128 128 128 128 128 128 128 128 128 128 128 128 128 128 128 128 128 128 128 128 128 128 128 126 126 126 134 134 134 189 189 189 193 193 193 192 192 192 192 192 192 192 192 192 192 192 192 192 192 192 192 192 192 192 192 192 192 192 192 192 192 192 192 192 192 192 192 192 192 192 192 195 195 195 183 183 183 129 129 129 127 127 127 128 128 128 128 128 128 128 128 128 128 128 128 128 128 128 128 128 128 128 128 128 128 128 128 128 128 128 128 128 128 128 128 128 128 128 128 133 133 133 101 101 101 
172 172 172 196 196 196 192 192 192 192 192 192 192 192 192 192 192 192 192 192 192 192 192 192 192 192 192 192 192 192 192 192 192 192 192 192 192 192 192 192 192 192 194 194 194 188 188 188 133 133 133 126 126 126 128 128 128 128 128 128 128 128 128 128 128 128 128 128 128 128 128 128 128 128 128 128 128 128 128 128 128 128 128 128 128 128 128 128 128 128 126 126 126 134 134 134 189 189 189 193 193 193 192 192 192 192 192 192 192 192 192 192 192 192 192 192 192 192 192 192 192 192 192 192 192 192 192 192 192 192 192 192 192 192 192 192 192 192 195 195 195 183 183 183 129 129 129 127 127 127 128 128 128 128 128 128 128 128 128 128 128 128 128 128 128 128 128 128 128 128 128 128 128 128 128 128 128 128 128 128 128 128 128 128 128 128 133 133 133 101 101 101 
172 172 172 196 196 196 192 192 192 192 192 192 192 192 192 192 192 192 192 192 192 192 192 192 192 192 192 192 192 192 192 192 192 192 192 192 192 192 192 192 192 192 194 194 194 188 188 188 133 133 133 126 126 126 128 128 128 128 128 128 128 128 128 128 128 128 128 128 128 128 128 128 128 128 128 128 128 128 128 128 128 128 128 128 128 128 128 128 128 128 126 126 126 134 134 134 189 189 189 193 193 193 192 192 192 192 192 192 192 192 192 192 192 192 192 192 192 192 192 192 192 192 192 192 192 192 192 192 192 192 192 192 192 192 192 192 192 192 195 195 195 183 183 183 129 129 129 127 127 127 128 128 128 128 128 128 128 128 128 128 128 128 128 128 128 128 128 128 128 128 128 128 128 128 128 128 128 128 128 128 128 128 128 128 128 128 133 133 133 101 101 101 
172 172 172 196 196 196 192 192 192 192 192 192 192 192 192 192 192 192 192 192 192 192 192 192 192 192 192 192 192 192 192 192 192 192 192 192 192 192 192 192 192 192 194 194 194 188 188 188 133 133 133 126 126 126 128 128 128 128 128 128 128 128 128 128 128 128 128 128 128 128 128 128 128 128 128 128 128 128 128 128 128 128 128 128 128 128 128 128 128 128 126 126 126 134 134 134 189 189 189 193 193 193 192 192 192 192 192 192 192 192 192 192 192 192 192 192 192 192 192 192 192 192 192 192 192 192 192 192 192 192 192 192 192 192 192 192 192 192 195 195 195 183 183 183 129 129 129 127 127 127 128 128 128 128 128 128 128 128 128 128 128 128 128 128 128 128 128 128 128 128 128 128 128 128 128 128 128 128 128 128 128 128 128 128 128 128 133 133 133 101 101 101 
172 172 172 196 196 196 192 192 192 192 192 192 192 192 192 192 192 192 192 192 192 192 192 192 192 192 192 192 192 192 192 192 192 192 192 192 192 192 192 192 192 192 194 194 194 188 188 188 133 133 133 126 126 126 128 128 128 128 128 128 128 128 128 128 128 128 128 128 128 128 128 128 128 128 128 128 128 128 128 128 128 128 128 128 128 128 128 128 128 128 126 126 126 134 134 134 189 189 189 193 193 193 192 192 192 192 192 192 192 192 192 192 192 192 192 192 192 192 192 192 192 192 192 192 192 192 192 192 192 192 192 192 192 192 192 192 192 192 195 195 195 183 183 183 129 129 129 127 127 127 128 128 128 128 128 128 128 128 128 128 128 128 128 128 128 128 128 128 128 128 128 128 128 128 128 128 128 128 128 128 128 128 128 128 128 128 133 133 133 101 101 101 
172 172 172 196 196 196 192 192 192 192 192 192 192 192 192 192 192 192 192 192 192 192 192 192 192 192 192 192 192 192 192 192 192 192 192 192 192 192 192 192 192 192 194 194 194 188 188 188 133 133 133 126 126 126 128 128 128 128 128 128 128 128 128 128 128 128 128 128 128 128 128 128 128 128 128 128 128 128 128 128 128 128 128 128 128 128 128 128 128 128 126 126 126 134 134 134 189 189 189 193 193 193 192 192 192 192 192 192 192 192 192 192 192 192 192 192 192 192 192 192 192 192 192 192 192 192 192 192 192 192 192 192 192 192 192 192 192 192 195 195 195 183 183 183 129 129 129 127 127 127 128 128 128 128 128 128 128 128 128 128 128 128 128 128 128 128 128 128 128 128 128 128 128 128 128 128 128 128 128 128 128 128 128 128 128 128 133 133 133 101 101 101 
172 172 172 196 196 196 192 192 192 192 192 192 192 192 192 192 192 192 192 192 192 192 192 192 192 192 192 192 192 192 192 192 192 192 192 192 192 192 192 192 192 192 194 194 194 188 188 188 133 133 133 126 126 126 128 128 128 128 128 128 128 128 128 128 128 128 128 128 128 128 128 128 128 128 128 128 128 128 128 128 128 128 128 128 128 128 128 128 128 128 126 126 126 134 134 134 189 189 189 193 193 193 192 192 192 192 192 192 192 192 192 192 192 192 192 192 192 192 192 192 192 192 192 192 192 192 192 192 192 192 192 192 192 192 192 192 192 192 195 195 195 183 183 183 129 129 129 127 127 127 128 128 128 128 128 128 128 128 128 128 128 128 128 128 128 128 128 128 128 128 128 128 128 128 128 128 128 128 128 128 128 128 128 128 128 128 133 133 133 101 101 101 
179 179 179 204 204 204 200 200 200 200 200 200 200 200 200 200 200 200 200 200 200 200 200 200 200 200 200 200 200 200 200 200 200 200 200 200 200 200 200 200 200 200 202 202 202 196 196 196 138 138 138 131 131 131 133 133 133 133 133 133 133 133 133 133 133 133 133 133 133 133 133 133 133 133 133 133 133 133 133 133 133 133 133 133 133 133 133 133 133 133 131 131 131 139 139 139 197 197 197 201 201 201 200 200 200 200 200 200 200 200 200 200 200 200 200 200 200 200 200 200 200 200 200 200 200 200 200 200 200 200 200 200 200 200 200 200 200 200 203 203 203 190 190 190 134 134 134 132 132 132 133 133 133 133 133 133 133 133 133 133 133 133 133 133 133 133 133 133 133 133 133 133 133 133 133 133 133 133 133 133 133 133 133 133 133 133 138 138 138 105 105 105 
136 136 136 155 155 155 152 152 152 152 152 152 152 152 152 152 152 152 152 152 152 152 152 152 152 152 152 152 152 152 152 152 152 152 152 152 152 152 152 152 152 152 154 154 154 149 149 149 105 105 105 100 100 100 101 101 101 101 101 101 101 101 101 101 101 101 101 101 101 101 101 101 101 101 101 101 101 101 101 101 101 101 101 101 101 101 101 101 101 101 100 100 100 106 106 106 150 150 150 153 153 153 152 152 152 152 152 152 152 152 152 152 152 152 152 152 152 152 152 152 152 152 152 152 152 152 152 152 152 152 152 152 152 152 152 152 152 152 154 154 154 145 145 145 102 102 102 101 101 101 101 101 101 101 101 101 101 101 101 101 101 101 101 101 101 101 101 101 101 101 101 101 101 101 101 101 101 101 101 101 101 101 101 101 101 101 105 105 105 80  80  80  
