P3
96 40
255
0   0   0   0   0   0   0   0   0   0   0   0   0   0   0   0   0   0   0   0   0   0   0   0   156 198 217 156 198 217 156 198 217 156 198 217 156 198 217 156 198 217 156 198 217 156 198 217 156 198 217 156 198 217 156 198 217 156 198 217 156 198 217 156 198 217 156 198 217 156 198 217 30  36  49  53  41  29  53  41  29  25  23  22  25  23  22  25  23  22  25  23  22  25  23  22  25  23  22  25  23  22  25  23  22  25  23  22  25  23  22  25  23  22  25  23  22  25  23  22  41  71  45  41  71  45  53  41  29  41  71  45  41  71  45  41  71  45  41  71  45  41  71  45  41  71  45  41  71  45  41  71  45  53  41  29  53  41  29  52  119 80  52  119 80  36  81  104 41  71  45  41  71  45  41  71  45  41  71  45  41  71  45  41  71  45  41  71  45  41  71  45  41  71  45  41  71  45  41  71  45  41  71  45  82  60  32  82  60  32  82  60  32  41  71  45  41  71  45  36  81  104 118 68  110 118 68  110 118 68  110 36  81  104 41  71  45  41  71  45  41  71  45  41  71  45  41  71  45  41  71  45  41  71  45  41  71  45  41  71  45  41  71  45  41  71  45  41  71  45  41  71  45  52  119 80  52  119 80  52  119 80  52  119 80  52  119 80  
0   0   0   0   0   0   0   0   0   0   0   0   0   0   0   0   0   0   0   0   0   0   0   0   156 198 217 156 198 217 156 198 217 156 198 217 156 198 217 156 198 217 156 198 217 156 198 217 156 198 217 156 198 217 156 198 217 156 198 217 156 198 217 156 198 217 156 198 217 156 198 217 30  36  49  53  41  29  53  41  29  25  23  22  25  23  22  25  23  22  25  23  22  25  23  22  25  23  22  25  23  22  25  23  22  25  23  22  25  23  22  25  23  22  25  23  22  25  23  22  41  71  45  41  71  45  53  41  29  53  41  29  41  71  45  41  71  45  41  71  45  41  71  45  41  71  45  41  71  45  53  41  29  53  41  29  53  41  29  36  81  104 36  81  104 36  81  104 41  71  45  41  71  45  41  71  45  41  71  45  41  71  45  41  71  45  41  71  45  41  71  45  82  60  32  82  60  32  41  71  45  41  71  45  82  60  32  82  60  32  82  60  32  41  71  45  36  81  104 30  36  49  30  36  49  210 57  28  30  36  49  30  36  49  36  81  104 41  71  45  41  71  45  41  71  45  41  71  45  41  71  45  41  71  45  41  71  45  41  71  45  41  71  45  41  71  45  41  71  45  41  71  45  52  119 80  52  119 80  41  71  45  52  119 80  52  119 80  
0   0   0   0   0   0   0   0   0   0   0   0   0   0   0   0   0   0   0   0   0   0   0   0   156 198 217 156 198 217 156 198 217 156 198 217 156 198 217 156 198 217 156 198 217 156 198 217 156 198 217 156 198 217 156 198 217 156 198 217 156 198 217 156 198 217 156 198 217 156 198 217 30  36  49  30  36  49  30  36  49  25  23  22  25  23  22  25  23  22  25  23  22  25  23  22  25  23  22  25  23  22  25  23  22  25  23  22  25  23  22  25  23  22  25  23  22  25  23  22  82  60  32  82  60  32  41  71  45  53  41  29  53  41  29  41  71  45  41  71  45  41  71  45  41  71  45  53  41  29  53  41  29  36  81  104 53  41  29  41  71  45  41  71  45  36  81  104 41  71  45  82  60  32  82  60  32  41  71  45  41  71  45  41  71  45  41  71  45  41  71  45  82  60  32  82  60  32  41  71  45  41  71  45  41  71  45  41  71  45  41  71  45  41  71  45  36  81  104 30  36  49  82  60  32  224 110 54  53  41  29  30  36  49  36  81  104 41  71  45  82  60  32  82  60  32  41  71  45  41  71  45  41  71  45  41  71  45  41  71  45  41  71  45  41  71  45  41  71  45  41  71  45  41  71  45  41  71  45  41  71  45  41  71  45  52  119 80  
0   0   0   0   0   0   0   0   0   0   0   0   0   0   0   0   0   0   0   0   0   0   0   0   156 198 217 156 198 217 156 198 217 156 198 217 156 198 217 156 198 217 156 198 217 156 198 217 156 198 217 156 198 217 156 198 217 156 198 217 156 198 217 156 198 217 156 198 217 156 198 217 30  36  49  30  36  49  30  36  49  25  23  22  25  23  22  25  23  22  25  23  22  25  23  22  25  23  22  25  23  22  25  23  22  25  23  22  25  23  22  25  23  22  25  23  22  25  23  22  82  60  32  82  60  32  53  41  29  53  41  29  53  41  29  53  41  29  53  41  29  53  41  29  53  41  29  53  41  29  53  41  29  36  81  104 36  81  104 53  41  29  41  71  45  41  71  45  41  71  45  82  60  32  82  60  32  41  71  45  41  71  45  41  71  45  41  71  45  41  71  45  41  71  45  53  41  29  53  41  29  53  41  29  41  71  45  41  71  45  53  41  29  36  81  104 41  71  45  30  36  49  210 57  28  224 110 54  118 68  110 30  36  49  41  71  45  41  71  45  82  60  32  82  60  32  41  71  45  41  71  45  82  60  32  82  60  32  82  60  32  41  71  45  41  71  45  41  71  45  41  71  45  41  71  45  41  71  45  41  71  45  41  71  45  41  71  45  
0   0   0   0   0   0   0   0   0   0   0   0   0   0   0   0   0   0   0   0   0   0   0   0   156 198 217 156 198 217 156 198 217 156 198 217 156 198 217 156 198 217 156 198 217 156 198 217 156 198 217 156 198 217 156 198 217 156 198 217 156 198 217 156 198 217 156 198 217 156 198 217 30  36  49  53  41  29  53  41  29  25  23  22  25  23  22  25  23  22  25  23  22  25  23  22  25  23  22  25  23  22  25  23  22  25  23  22  25  23  22  25  23  22  25  23  22  25  23  22  41  71  45  53  41  29  52  119 80  52  119 80  41  71  45  53  41  29  53  41  29  41  71  45  53  41  29  41  71  45  53  41  29  41  71  45  41  71  45  36  81  104 36  81  104 41  71  45  41  71  45  41  71  45  41  71  45  41  71  45  41  71  45  41  71  45  41  71  45  41  71  45  41  71  45  53  41  29  41  71  45  53  41  29  41  71  45  36  81  104 36  81  104 36  81  104 41  71  45  30  36  49  82  60  32  118 68  110 82  60  32  53  41  29  41  71  45  41  71  45  41  71  45  41  71  45  41  71  45  41  71  45  82  60  32  82  60  32  82  60  32  41  71  45  41  71  45  41  71  45  41  71  45  41  71  45  41  71  45  41  71  45  41  71  45  41  71  45  
0   0   0   0   0   0   0   0   0   0   0   0   0   0   0   0   0   0   0   0   0   0   0   0   156 198 217 156 198 217 156 198 217 156 198 217 156 198 217 156 198 217 156 198 217 156 198 217 156 198 217 156 198 217 156 198 217 156 198 217 156 198 217 156 198 217 156 198 217 156 198 217 30  36  49  53  41  29  53  41  29  25  23  22  25  23  22  25  23  22  25  23  22  25  23  22  25  23  22  25  23  22  25  23  22  25  23  22  25  23  22  25  23  22  25  23  22  25  23  22  53  41  29  52  119 80  41  71  45  41  71  45  41  71  45  82  60  32  82  60  32  53  41  29  53  41  29  53  41  29  53  41  29  53  41  29  53  41  29  41  71  45  53  41  29  53  41  29  53  41  29  41  71  45  41  71  45  41  71  45  41  71  45  41  71  45  41  71  45  53  41  29  53  41  29  53  41  29  53  41  29  53  41  29  53  41  29  53  41  29  53  41  29  53  41  29  53  41  29  53  41  29  53  41  29  82  60  32  53  41  29  53  41  29  53  41  29  53  41  29  53  41  29  53  41  29  41  71  45  53  41  29  41  71  45  41  71  45  53  41  29  53  41  29  53  41  29  53  41  29  41  71  45  53  41  29  41  71  45  41  71  45  53  41  29  53  41  29  
0   0   0   0   0   0   0   0   0   0   0   0   0   0   0   0   0   0   0   0   0   0   0   0   156 198 217 156 198 217 156 198 217 156 198 217 156 198 217 156 198 217 156 198 217 156 198 217 220 239 248 220 239 248 220 239 248 220 239 248 220 239 248 220 239 248 220 239 248 220 239 248 30  36  49  30  36  49  30  36  49  25  23  22  25  23  22  25  23  22  25  23  22  25  23  22  25  23  22  25  23  22  25  23  22  25  23  22  25  23  22  25  23  22  25  23  22  25  23  22  41  71  45  41  71  45  41  71  45  41  71  45  82  60  32  82  60  32  82  60  32  41  71  45  52  119 80  52  119 80  52  119 80  41  71  45  41  71  45  41  71  45  41  71  45  41  71  45  41  71  45  41  71  45  41  71  45  41  71  45  41  71  45  41  71  45  82  60  32  82  60  32  52  119 80  52  119 80  52  119 80  52  119 80  52  119 80  52  119 80  52  119 80  52  119 80  41  71  45  52  119 80  52  119 80  147 121 70  52  119 80  41  71  45  52  119 80  41  71  45  41  71  45  52  119 80  52  119 80  41  71  45  41  71  45  52  119 80  52  119 80  52  119 80  41  71  45  52  119 80  52  119 80  41  71  45  41  71  45  52  119 80  52  119 80  52  119 80  
0   0   0   0   0   0   0   0   0   0   0   0   0   0   0   0   0   0   0   0   0   0   0   0   156 198 217 156 198 217 156 198 217 156 198 217 156 198 217 156 198 217 156 198 217 156 198 217 41  71  45  41  71  45  41  71  45  41  71  45  41  71  45  41  71  45  41  71  45  41  71  45  30  36  49  30  36  49  25  23  22  25  23  22  25  23  22  25  23  22  25  23  22  25  23  22  25  23  22  25  23  22  25  23  22  25  23  22  25  23  22  25  23  22  25  23  22  25  23  22  41  71  45  41  71  45  41  71  45  41  71  45  41  71  45  41  71  45  41  71  45  41  71  45  41  71  45  41  71  45  41  71  45  41  71  45  41  71  45  41  71  45  41  71  45  41  71  45  41  71  45  41  71  45  41  71  45  41  71  45  41  71  45  41  71  45  82  60  32  82  60  32  41  71  45  41  71  45  41  71  45  41  71  45  41  71  45  41  71  45  41  71  45  41  71  45  41  71  45  41  71  45  41  71  45  41  71  45  41  71  45  41  71  45  41  71  45  41  71  45  41  71  45  41  71  45  41  71  45  41  71  45  41  71  45  41  71  45  41  71  45  41  71  45  41  71  45  41  71  45  41  71  45  41  71  45  41  71  45  41  71  45  41  71  45  41  71  45  
85  46  65  53  41  29  156 198 217 156 198 217 156 198 217 55  150 155 30  36  49  85  46  65  85  46  65  85  46  65  85  46  65  85  46  65  85  46  65  85  46  65  85  46  65  85  46  65  85  46  65  85  46  65  85  46  65  36  81  104 36  81  104 36  81  104 36  81  104 85  46  65  36  81  104 55  150 155 55  150 155 55  150 155 36  81  104 55  150 155 55  150 155 55  150 155 41  71  45  41  71  45  41  71  45  41  71  45  36  81  104 36  81  104 36  81  104 41  71  45  55  150 155 55  150 155 36  81  104 36  81  104 36  81  104 36  81  104 36  81  104 36  81  104 36  81  104 36  81  104 36  81  104 36  81  104 36  81  104 36  81  104 36  81  104 36  81  104 36  81  104 36  81  104 36  81  104 55  150 155 55  150 155 36  81  104 36  81  104 36  81  104 36  81  104 55  150 155 55  150 155 55  150 155 36  81  104 55  150 155 55  150 155 55  150 155 55  150 155 55  150 155 55  150 155 55  150 155 55  150 155 55  150 155 55  150 155 55  150 155 55  150 155 55  150 155 55  150 155 55  150 155 55  150 155 55  150 155 55  150 155 55  150 155 85  46  65  85  46  65  85  46  65  85  46  65  85  46  65  85  46  65  85  46  65  85  46  65  
53  41  29  156 198 217 156 198 217 156 198 217 156 198 217 156 198 217 55  150 155 30  36  49  85  46  65  85  46  65  85  46  65  85  46  65  85  46  65  85  46  65  85  46  65  85  46  65  36  81  104 36  81  104 85  46  65  36  81  104 36  81  104 36  81  104 36  81  104 85  46  65  36  81  104 36  81  104 55  150 155 55  150 155 36  81  104 36  81  104 36  81  104 55  150 155 36  81  104 36  81  104 36  81  104 36  81  104 36  81  104 36  81  104 36  81  104 41  71  45  55  150 155 55  150 155 52  119 80  55  150 155 55  150 155 36  81  104 36  81  104 36  81  104 36  81  104 36  81  104 36  81  104 36  81  104 36  81  104 36  81  104 36  81  104 36  81  104 36  81  104 55  150 155 55  150 155 55  150 155 55  150 155 55  150 155 55  150 155 55  150 155 36  81  104 36  81  104 55  150 155 55  150 155 36  81  104 36  81  104 36  81  104 55  150 155 55  150 155 55  150 155 55  150 155 55  150 155 55  150 155 55  150 155 55  150 155 55  150 155 55  150 155 55  150 155 55  150 155 55  150 155 55  150 155 55  150 155 55  150 155 55  150 155 85  46  65  36  81  104 36  81  104 85  46  65  85  46  65  36  81  104 36  81  104 85  46  65  
53  41  29  220 239 248 156 198 217 156 198 217 156 198 217 156 198 217 55  150 155 30  36  49  85  46  65  85  46  65  85  46  65  85  46  65  85  46  65  85  46  65  85  46  65  85  46  65  36  81  104 36  81  104 36  81  104 85  46  65  85  46  65  36  81  104 36  81  104 85  46  65  36  81  104 36  81  104 55  150 155 55  150 155 36  81  104 36  81  104 36  81  104 55  150 155 36  81  104 36  81  104 36  81  104 36  81  104 36  81  104 36  81  104 36  81  104 41  71  45  36  81  104 36  81  104 36  81  104 55  150 155 55  150 155 52  119 80  52  119 80  36  81  104 36  81  104 36  81  104 36  81  104 36  81  104 36  81  104 36  81  104 36  81  104 36  81  104 55  150 155 55  150 155 55  150 155 55  150 155 55  150 155 55  150 155 55  150 155 55  150 155 36  81  104 36  81  104 55  150 155 55  150 155 36  81  104 36  81  104 36  81  104 55  150 155 55  150 155 55  150 155 55  150 155 55  150 155 55  150 155 55  150 155 55  150 155 55  150 155 55  150 155 55  150 155 55  150 155 55  150 155 55  150 155 55  150 155 55  150 155 55  150 155 85  46  65  85  46  65  36  81  104 36  81  104 85  46  65  85  46  65  36  81  104 85  46  65  
53  41  29  220 239 248 156 198 217 156 198 217 156 198 217 156 198 217 156 198 217 30  36  49  85  46  65  85  46  65  85  46  65  85  46  65  85  46  65  85  46  65  85  46  65  85  46  65  36  81  104 36  81  104 85  46  65  85  46  65  85  46  65  36  81  104 36  81  104 36  81  104 36  81  104 36  81  104 36  81  104 36  81  104 36  81  104 36  81  104 36  81  104 55  150 155 36  81  104 36  81  104 36  81  104 36  81  104 36  81  104 36  81  104 36  81  104 41  71  45  52  119 80  55  150 155 52  119 80  52  119 80  36  81  104 52  119 80  55  150 155 52  119 80  36  81  104 36  81  104 36  81  104 36  81  104 36  81  104 36  81  104 36  81  104 36  81  104 55  150 155 55  150 155 55  150 155 55  150 155 55  150 155 55  150 155 55  150 155 36  81  104 36  81  104 36  81  104 36  81  104 36  81  104 36  81  104 36  81  104 36  81  104 55  150 155 55  150 155 55  150 155 55  150 155 55  150 155 55  150 155 55  150 155 55  150 155 55  150 155 55  150 155 55  150 155 55  150 155 55  150 155 55  150 155 55  150 155 55  150 155 55  150 155 36  81  104 85  46  65  85  46  65  36  81  104 36  81  104 85  46  65  85  46  65  85  46  65  
53  41  29  55  150 155 220 239 248 220 239 248 220 239 248 220 239 248 83  137 71  30  36  49  85  46  65  85  46  65  85  46  65  85  46  65  85  46  65  85  46  65  85  46  65  85  46  65  36  81  104 85  46  65  85  46  65  36  81  104 52  119 80  85  46  65  36  81  104 36  81  104 36  81  104 36  81  104 36  81  104 36  81  104 36  81  104 36  81  104 36  81  104 55  150 155 41  71  45  36  81  104 36  81  104 36  81  104 36  81  104 36  81  104 36  81  104 36  81  104 52  119 80  55  150 155 52  119 80  52  119 80  55  150 155 36  81  104 55  150 155 52  119 80  36  81  104 36  81  104 36  81  104 36  81  104 36  81  104 36  81  104 36  81  104 36  81  104 55  150 155 55  150 155 55  150 155 55  150 155 55  150 155 55  150 155 55  150 155 55  150 155 36  81  104 36  81  104 36  81  104 36  81  104 36  81  104 36  81  104 36  81  104 55  150 155 55  150 155 55  150 155 55  150 155 55  150 155 55  150 155 55  150 155 55  150 155 55  150 155 55  150 155 55  150 155 55  150 155 55  150 155 55  150 155 55  150 155 55  150 155 55  150 155 36  81  104 36  81  104 85  46  65  85  46  65  36  81  104 36  81  104 85  46  65  85  46  65  
53  41  29  55  150 155 156 198 217 156 198 217 55  150 155 83  137 71  83  137 71  30  36  49  85  46  65  85  46  65  85  46  65  85  46  65  85  46  65  85  46  65  85  46  65  85  46  65  85  46  65  52  119 80  52  119 80  52  119 80  52  119 80  85  46  65  36  81  104 36  81  104 36  81  104 36  81  104 36  81  104 36  81  104 36  81  104 36  81  104 36  81  104 36  81  104 41  71  45  52  119 80  36  81  104 36  81  104 36  81  104 36  81  104 36  81  104 36  81  104 55  150 155 55  150 155 36  81  104 55  150 155 55  150 155 36  81  104 36  81  104 36  81  104 36  81  104 36  81  104 36  81  104 36  81  104 36  81  104 36  81  104 36  81  104 36  81  104 55  150 155 55  150 155 55  150 155 55  150 155 55  150 155 55  150 155 55  150 155 36  81  104 36  81  104 36  81  104 36  81  104 36  81  104 36  81  104 36  81  104 36  81  104 36  81  104 55  150 155 55  150 155 55  150 155 55  150 155 55  150 155 55  150 155 55  150 155 55  150 155 55  150 155 55  150 155 55  150 155 55  150 155 55  150 155 55  150 155 55  150 155 55  150 155 118 68  110 36  81  104 36  81  104 85  46  65  85  46  65  36  81  104 36  81  104 85  46  65  
85  46  65  53  41  29  156 198 217 55  150 155 55  150 155 83  137 71  30  36  49  30  36  49  85  46  65  85  46  65  85  46  65  85  46  65  85  46  65  85  46  65  85  46  65  85  46  65  85  46  65  36  81  104 52  119 80  52  119 80  36  81  104 85  46  65  85  46  65  85  46  65  36  81  104 36  81  104 36  81  104 36  81  104 36  81  104 36  81  104 36  81  104 55  150 155 41  71  45  52  119 80  52  119 80  52  119 80  36  81  104 36  81  104 85  46  65  85  46  65  52  119 80  52  119 80  36  81  104 55  150 155 55  150 155 52  119 80  52  119 80  52  119 80  36  81  104 36  81  104 36  81  104 36  81  104 36  81  104 36  81  104 36  81  104 36  81  104 114 178 69  55  150 155 55  150 155 55  150 155 55  150 155 55  150 155 55  150 155 36  81  104 36  81  104 36  81  104 36  81  104 36  81  104 36  81  104 36  81  104 36  81  104 55  150 155 55  150 155 55  150 155 55  150 155 55  150 155 55  150 155 55  150 155 55  150 155 55  150 155 55  150 155 55  150 155 55  150 155 55  150 155 55  150 155 55  150 155 55  150 155 55  150 155 118 68  110 85  46  65  36  81  104 36  81  104 85  46  65  85  46  65  36  81  104 85  46  65  
85  46  65  85  46  65  53  41  29  53  41  29  30  36  49  30  36  49  85  46  65  85  46  65  85  46  65  85  46  65  85  46  65  85  46  65  85  46  65  85  46  65  85  46  65  85  46  65  85  46  65  36  81  104 36  81  104 85  46  65  85  46  65  85  46  65  85  46  65  85  46  65  55  150 155 55  150 155 36  81  104 36  81  104 55  150 155 55  150 155 55  150 155 55  150 155 41  71  45  36  81  104 85  46  65  85  46  65  85  46  65  85  46  65  85  46  65  85  46  65  52  119 80  52  119 80  36  81  104 36  81  104 36  81  104 36  81  104 52  119 80  52  119 80  36  81  104 36  81  104 36  81  104 36  81  104 36  81  104 36  81  104 36  81  104 36  81  104 36  81  104 114 178 69  114 178 69  114 178 69  55  150 155 55  150 155 55  150 155 36  81  104 55  150 155 55  150 155 36  81  104 36  81  104 55  150 155 55  150 155 55  150 155 55  150 155 55  150 155 55  150 155 55  150 155 55  150 155 55  150 155 55  150 155 55  150 155 55  150 155 55  150 155 55  150 155 55  150 155 55  150 155 55  150 155 55  150 155 55  150 155 55  150 155 85  46  65  118 68  110 118 68  110 118 68  110 118 68  110 36  81  104 36  81  104 85  46  65  
85  46  65  36  81  104 36  81  104 36  81  104 36  81  104 85  46  65  85  46  65  85  46  65  36  81  104 36  81  104 36  81  104 36  81  104 36  81  104 36  81  104 114 178 69  114 178 69  156 198 217 156 198 217 156 198 217 156 198 217 36  81  104 36  81  104 36  81  104 36  81  104 36  81  104 36  81  104 36  81  104 36  81  104 36  81  104 30  36  49  30  36  49  30  36  49  30  36  49  30  36  49  30  36  49  36  81  104 36  81  104 36  81  104 36  81  104 36  81  104 25  23  22  25  23  22  25  23  22  25  23  22  25  23  22  25  23  22  25  23  22  30  36  49  85  46  65  85  46  65  85  46  65  85  46  65  85  46  65  85  46  65  85  46  65  85  46  65  41  71  45  41  71  45  41  71  45  41  71  45  41  71  45  41  71  45  41  71  45  41  71  45  85  46  65  85  46  65  85  46  65  85  46  65  121 65  34  121 65  34  85  46  65  85  46  65  36  81  104 36  81  104 36  81  104 36  81  104 36  81  104 36  81  104 36  81  104 36  81  104 36  81  104 30  36  49  36  81  104 83  137 71  83  137 71  83  137 71  83  137 71  85  46  65  85  46  65  55  150 155 55  150 155 36  81  104 36  81  104 36  81  104 30  36  49  36  81  104 
85  46  65  36  81  104 36  81  104 36  81  104 36  81  104 36  81  104 36  81  104 36  81  104 36  81  104 36  81  104 36  81  104 36  81  104 36  81  104 157 125 174 114 178 69  114 178 69  156 198 217 156 198 217 156 198 217 156 198 217 55  150 155 36  81  104 36  81  104 36  81  104 36  81  104 36  81  104 36  81  104 30  36  49  30  36  49  83  137 71  83  137 71  83  137 71  83  137 71  55  150 155 55  150 155 30  36  49  30  36  49  36  81  104 36  81  104 36  81  104 25  23  22  25  23  22  25  23  22  25  23  22  25  23  22  25  23  22  25  23  22  30  36  49  85  46  65  85  46  65  85  46  65  85  46  65  85  46  65  85  46  65  85  46  65  85  46  65  41  71  45  41  71  45  41  71  45  41  71  45  41  71  45  41  71  45  41  71  45  41  71  45  118 68  110 118 68  110 85  46  65  85  46  65  118 68  110 121 65  34  121 65  34  85  46  65  36  81  104 36  81  104 36  81  104 52  119 80  52  119 80  36  81  104 36  81  104 36  81  104 36  81  104 30  36  49  36  81  104 83  137 71  83  137 71  83  137 71  83  137 71  36  81  104 36  81  104 55  150 155 55  150 155 36  81  104 36  81  104 36  81  104 30  36  49  85  46  65  
85  46  65  36  81  104 36  81  104 36  81  104 36  81  104 36  81  104 36  81  104 36  81  104 36  81  104 207 190 91  207 190 91  36  81  104 36  81  104 55  150 155 55  150 155 36  81  104 55  150 155 156 198 217 156 198 217 156 198 217 55  150 155 55  150 155 55  150 155 36  81  104 36  81  104 36  81  104 30  36  49  83  137 71  83  137 71  83  137 71  36  81  104 36  81  104 36  81  104 118 68  110 83  137 71  55  150 155 83  137 71  30  36  49  36  81  104 36  81  104 25  23  22  25  23  22  25  23  22  25  23  22  25  23  22  30  36  49  30  36  49  30  36  49  85  46  65  85  46  65  53  41  29  53  41  29  53  41  29  53  41  29  85  46  65  85  46  65  196 215 164 196 215 164 156 198 217 156 198 217 196 215 164 156 198 217 196 215 164 196 215 164 118 68  110 118 68  110 118 68  110 118 68  110 85  46  65  118 68  110 121 65  34  85  46  65  36  81  104 36  81  104 52  119 80  52  119 80  36  81  104 36  81  104 52  119 80  36  81  104 36  81  104 30  36  49  36  81  104 83  137 71  83  137 71  83  137 71  83  137 71  36  81  104 36  81  104 114 178 69  55  150 155 36  81  104 36  81  104 36  81  104 30  36  49  85  46  65  
36  81  104 36  81  104 36  81  104 36  81  104 36  81  104 36  81  104 36  81  104 36  81  104 36  81  104 207 190 91  207 190 91  114 178 69  36  81  104 55  150 155 41  71  45  41  71  45  156 198 217 55  150 155 52  119 80  52  119 80  55  150 155 55  150 155 55  150 155 36  81  104 36  81  104 30  36  49  55  150 155 55  150 155 83  137 71  36  81  104 36  81  104 36  81  104 36  81  104 118 68  110 118 68  110 55  150 155 55  150 155 83  137 71  30  36  49  36  81  104 25  23  22  25  23  22  25  23  22  25  23  22  25  23  22  30  36  49  30  36  49  30  36  49  85  46  65  53  41  29  118 68  110 118 68  110 118 68  110 36  81  104 53  41  29  85  46  65  64  213 142 64  213 142 64  213 142 64  213 142 64  213 142 64  213 142 64  213 142 64  213 142 118 68  110 118 68  110 118 68  110 118 68  110 118 68  110 85  46  65  85  46  65  85  46  65  36  81  104 52  119 80  52  119 80  36  81  104 36  81  104 52  119 80  52  119 80  36  81  104 36  81  104 30  36  49  36  81  104 83  137 71  83  137 71  83  137 71  83  137 71  55  150 155 55  150 155 114 178 69  55  150 155 36  81  104 36  81  104 36  81  104 30  36  49  85  46  65  
36  81  104 36  81  104 36  81  104 36  81  104 36  81  104 36  81  104 36  81  104 36  81  104 36  81  104 157 125 174 114 178 69  207 190 91  36  81  104 41  71  45  41  71  45  41  71  45  156 198 217 156 198 217 156 198 217 52  119 80  52  119 80  52  119 80  55  150 155 55  150 155 36  81  104 30  36  49  114 178 69  55  150 155 55  150 155 36  81  104 36  81  104 52  119 80  52  119 80  118 68  110 118 68  110 55  150 155 55  150 155 83  137 71  30  36  49  36  81  104 25  23  22  25  23  22  25  23  22  25  23  22  25  23  22  30  36  49  30  36  49  30  36  49  53  41  29  118 68  110 118 68  110 118 68  110 118 68  110 118 68  110 36  81  104 53  41  29  64  213 142 64  213 142 64  213 142 64  213 142 64  213 142 64  213 142 64  213 142 64  213 142 83  137 71  118 68  110 118 68  110 118 68  110 118 68  110 118 68  110 85  46  65  85  46  65  36  81  104 52  119 80  36  81  104 36  81  104 52  119 80  52  119 80  36  81  104 36  81  104 36  81  104 30  36  49  36  81  104 83  137 71  83  137 71  83  137 71  83  137 71  55  150 155 55  150 155 114 178 69  55  150 155 36  81  104 36  81  104 36  81  104 30  36  49  85  46  65  
36  81  104 36  81  104 36  81  104 36  81  104 36  81  104 36  81  104 36  81  104 85  46  65  36  81  104 36  81  104 157 125 174 114 178 69  36  81  104 36  81  104 36  81  104 36  81  104 156 198 217 156 198 217 156 198 217 55  150 155 52  119 80  52  119 80  55  150 155 55  150 155 36  81  104 30  36  49  114 178 69  55  150 155 55  150 155 36  81  104 52  119 80  52  119 80  52  119 80  85  46  65  118 68  110 83  137 71  55  150 155 83  137 71  30  36  49  36  81  104 25  23  22  25  23  22  25  23  22  25  23  22  25  23  22  25  23  22  25  23  22  30  36  49  53  41  29  118 68  110 118 68  110 118 68  110 118 68  110 118 68  110 36  81  104 53  41  29  64  213 142 64  213 142 64  213 142 64  213 142 64  213 142 64  213 142 64  213 142 64  213 142 83  137 71  118 68  110 118 68  110 118 68  110 118 68  110 118 68  110 118 68  110 85  46  65  36  81  104 36  81  104 36  81  104 52  119 80  52  119 80  36  81  104 36  81  104 36  81  104 36  81  104 36  81  104 30  36  49  36  81  104 83  137 71  83  137 71  83  137 71  55  150 155 114 178 69  55  150 155 36  81  104 36  81  104 36  81  104 30  36  49  85  46  65  85  46  65  
85  46  65  85  46  65  36  81  104 36  81  104 36  81  104 36  81  104 36  81  104 85  46  65  36  81  104 41  71  45  41  71  45  157 125 174 41  71  45  36  81  104 36  81  104 36  81  104 220 239 248 220 239 248 156 198 217 156 198 217 55  150 155 55  150 155 55  150 155 55  150 155 36  81  104 30  36  49  36  81  104 114 178 69  55  150 155 55  150 155 85  46  65  52  119 80  52  119 80  85  46  65  83  137 71  83  137 71  83  137 71  36  81  104 30  36  49  36  81  104 25  23  22  25  23  22  25  23  22  25  23  22  25  23  22  30  36  49  30  36  49  30  36  49  53  41  29  118 68  110 118 68  110 118 68  110 118 68  110 118 68  110 36  81  104 53  41  29  64  213 142 64  213 142 64  213 142 64  213 142 64  213 142 64  213 142 64  213 142 64  213 142 118 68  110 83  137 71  83  137 71  83  137 71  83  137 71  83  137 71  118 68  110 85  46  65  36  81  104 36  81  104 52  119 80  52  119 80  36  81  104 36  81  104 36  81  104 36  81  104 36  81  104 36  81  104 85  46  65  85  46  65  36  81  104 36  81  104 83  137 71  83  137 71  36  81  104 36  81  104 36  81  104 30  36  49  30  36  49  85  46  65  85  46  65  36  81  104 
85  46  65  85  46  65  85  46  65  85  46  65  85  46  65  36  81  104 36  81  104 85  46  65  36  81  104 41  71  45  41  71  45  41  71  45  41  71  45  36  81  104 36  81  104 36  81  104 41  71  45  41  71  45  41  71  45  52  119 80  156 198 217 156 198 217 55  150 155 55  150 155 36  81  104 30  36  49  36  81  104 83  137 71  114 178 69  114 178 69  55  150 155 85  46  65  85  46  65  114 178 69  114 178 69  83  137 71  36  81  104 36  81  104 30  36  49  36  81  104 25  23  22  25  23  22  25  23  22  25  23  22  25  23  22  25  23  22  25  23  22  30  36  49  85  46  65  53  41  29  118 68  110 118 68  110 118 68  110 118 68  110 53  41  29  85  46  65  64  213 142 64  213 142 64  213 142 64  213 142 64  213 142 64  213 142 64  213 142 64  213 142 85  46  65  85  46  65  85  46  65  85  46  65  85  46  65  85  46  65  85  46  65  85  46  65  36  81  104 36  81  104 36  81  104 36  81  104 36  81  104 36  81  104 36  81  104 36  81  104 36  81  104 36  81  104 36  81  104 36  81  104 85  46  65  85  46  65  85  46  65  85  46  65  85  46  65  85  46  65  85  46  65  85  46  65  85  46  65  36  81  104 36  81  104 36  81  104 
156 198 217 156 198 217 156 198 217 156 198 217 156 198 217 156 198 217 156 198 217 156 198 217 85  46  65  85  46  65  118 68  110 118 68  110 118 68  110 118 68  110 85  46  65  85  46  65  118 68  110 121 65  34  121 65  34  53  41  29  53  41  29  85  46  65  121 65  34  121 65  34  64  213 142 64  213 142 64  213 142 64  213 142 64  213 142 64  213 142 64  213 142 64  213 142 36  81  104 52  119 80  36  81  104 36  81  104 36  81  104 52  119 80  118 68  110 36  81  104 64  213 142 64  213 142 64  213 142 64  213 142 64  213 142 64  213 142 64  213 142 64  213 142 55  150 155 55  150 155 55  150 155 55  150 155 55  150 155 55  150 155 55  150 155 55  150 155 55  150 155 55  150 155 36  81  104 36  81  104 36  81  104 36  81  104 36  81  104 36  81  104 52  119 80  52  119 80  52  119 80  52  119 80  52  119 80  52  119 80  52  119 80  36  81  104 36  81  104 36  81  104 36  81  104 36  81  104 36  81  104 36  81  104 36  81  104 36  81  104 36  81  104 36  81  104 36  81  104 36  81  104 36  81  104 36  81  104 36  81  104 36  81  104 52  119 80  52  119 80  36  81  104 36  81  104 52  119 80  52  119 80  36  81  104 36  81  104 
156 198 217 156 198 217 156 198 217 156 198 217 156 198 217 156 198 217 83  137 71  83  137 71  85  46  65  118 68  110 64  213 142 196 215 164 196 215 164 64  213 142 118 68  110 85  46  65  118 68  110 118 68  110 118 68  110 118 68  110 118 68  110 118 68  110 118 68  110 121 65  34  64  213 142 64  213 142 64  213 142 64  213 142 64  213 142 64  213 142 64  213 142 64  213 142 36  81  104 118 68  110 36  81  104 36  81  104 36  81  104 118 68  110 118 68  110 36  81  104 64  213 142 64  213 142 64  213 142 64  213 142 64  213 142 64  213 142 64  213 142 64  213 142 55  150 155 55  150 155 55  150 155 55  150 155 55  150 155 55  150 155 55  150 155 55  150 155 55  150 155 55  150 155 52  119 80  55  150 155 55  150 155 36  81  104 36  81  104 36  81  104 52  119 80  52  119 80  52  119 80  52  119 80  52  119 80  52  119 80  52  119 80  52  119 80  30  36  49  30  36  49  30  36  49  30  36  49  30  36  49  30  36  49  30  36  49  30  36  49  30  36  49  53  41  29  30  36  49  30  36  49  30  36  49  36  81  104 30  36  49  30  36  49  52  119 80  36  81  104 36  81  104 52  119 80  52  119 80  36  81  104 36  81  104 52  119 80  
156 198 217 156 198 217 55  150 155 156 198 217 156 198 217 156 198 217 83  137 71  83  137 71  85  46  65  118 68  110 157 125 174 157 125 174 157 125 174 157 125 174 118 68  110 85  46  65  85  46  65  118 68  110 118 68  110 36  81  104 36  81  104 118 68  110 118 68  110 85  46  65  64  213 142 64  213 142 64  213 142 64  213 142 64  213 142 64  213 142 64  213 142 64  213 142 118 68  110 118 68  110 118 68  110 118 68  110 118 68  110 118 68  110 118 68  110 118 68  110 64  213 142 64  213 142 64  213 142 64  213 142 64  213 142 64  213 142 64  213 142 64  213 142 55  150 155 55  150 155 55  150 155 55  150 155 55  150 155 55  150 155 55  150 155 55  150 155 36  81  104 36  81  104 36  81  104 55  150 155 55  150 155 52  119 80  52  119 80  36  81  104 52  119 80  52  119 80  52  119 80  52  119 80  52  119 80  52  119 80  52  119 80  52  119 80  30  36  49  30  36  49  30  36  49  30  36  49  30  36  49  30  36  49  30  36  49  30  36  49  30  36  49  53  41  29  30  36  49  30  36  49  30  36  49  53  41  29  30  36  49  30  36  49  36  81  104 36  81  104 52  119 80  52  119 80  36  81  104 36  81  104 52  119 80  52  119 80  
55  150 155 55  150 155 55  150 155 156 198 217 156 198 217 156 198 217 36  81  104 36  81  104 85  46  65  118 68  110 118 68  110 157 125 174 157 125 174 118 68  110 118 68  110 85  46  65  85  46  65  118 68  110 118 68  110 118 68  110 118 68  110 36  81  104 118 68  110 53  41  29  64  213 142 64  213 142 64  213 142 196 215 164 196 215 164 196 215 164 64  213 142 64  213 142 118 68  110 118 68  110 118 68  110 118 68  110 118 68  110 118 68  110 118 68  110 118 68  110 64  213 142 64  213 142 64  213 142 64  213 142 64  213 142 64  213 142 64  213 142 64  213 142 55  150 155 55  150 155 55  150 155 55  150 155 55  150 155 55  150 155 55  150 155 55  150 155 52  119 80  55  150 155 52  119 80  52  119 80  36  81  104 52  119 80  55  150 155 52  119 80  52  119 80  52  119 80  52  119 80  52  119 80  52  119 80  52  119 80  52  119 80  52  119 80  30  36  49  25  23  22  25  23  22  30  36  49  30  36  49  30  36  49  30  36  49  30  36  49  30  36  49  30  36  49  30  36  49  30  36  49  25  23  22  53  41  29  30  36  49  30  36  49  36  81  104 52  119 80  52  119 80  36  81  104 36  81  104 52  119 80  52  119 80  36  81  104 
36  81  104 55  150 155 55  150 155 156 198 217 156 198 217 36  81  104 36  81  104 55  150 155 85  46  65  85  46  65  118 68  110 118 68  110 118 68  110 118 68  110 85  46  65  85  46  65  85  46  65  118 68  110 52  119 80  118 68  110 118 68  110 118 68  110 118 68  110 53  41  29  64  213 142 64  213 142 64  213 142 64  213 142 64  213 142 64  213 142 64  213 142 64  213 142 118 68  110 52  119 80  118 68  110 118 68  110 118 68  110 52  119 80  118 68  110 118 68  110 64  213 142 64  213 142 64  213 142 64  213 142 64  213 142 64  213 142 64  213 142 64  213 142 55  150 155 55  150 155 55  150 155 55  150 155 55  150 155 55  150 155 55  150 155 55  150 155 52  119 80  55  150 155 52  119 80  52  119 80  55  150 155 36  81  104 55  150 155 52  119 80  52  119 80  52  119 80  52  119 80  52  119 80  52  119 80  52  119 80  52  119 80  52  119 80  25  23  22  25  23  22  25  23  22  25  23  22  25  23  22  30  36  49  30  36  49  30  36  49  25  23  22  30  36  49  30  36  49  30  36  49  25  23  22  30  36  49  30  36  49  30  36  49  52  119 80  52  119 80  36  81  104 36  81  104 52  119 80  52  119 80  36  81  104 36  81  104 
36  81  104 36  81  104 36  81  104 55  150 155 36  81  104 36  81  104 55  150 155 55  150 155 85  46  65  118 68  110 85  46  65  118 68  110 85  46  65  118 68  110 85  46  65  53  41  29  118 68  110 118 68  110 118 68  110 52  119 80  52  119 80  118 68  110 118 68  110 121 65  34  64  213 142 196 215 164 196 215 164 196 215 164 64  213 142 196 215 164 196 215 164 64  213 142 118 68  110 55  150 155 118 68  110 118 68  110 118 68  110 55  150 155 118 68  110 118 68  110 64  213 142 64  213 142 64  213 142 64  213 142 64  213 142 64  213 142 64  213 142 64  213 142 55  150 155 55  150 155 55  150 155 55  150 155 55  150 155 55  150 155 55  150 155 55  150 155 55  150 155 55  150 155 36  81  104 55  150 155 55  150 155 36  81  104 36  81  104 36  81  104 52  119 80  52  119 80  52  119 80  52  119 80  52  119 80  52  119 80  52  119 80  52  119 80  25  23  22  25  23  22  25  23  22  30  36  49  25  23  22  30  36  49  30  36  49  25  23  22  30  36  49  30  36  49  30  36  49  30  36  49  30  36  49  53  41  29  53  41  29  53  41  29  52  119 80  36  81  104 36  81  104 52  119 80  52  119 80  36  81  104 36  81  104 52  119 80  
41  71  45  52  119 80  52  119 80  41  71  45  36  81  104 55  150 155 55  150 155 55  150 155 85  46  65  85  46  65  118 68  110 85  46  65  118 68  110 85  46  65  118 68  110 53  41  29  52  119 80  118 68  110 118 68  110 118 68  110 118 68  110 118 68  110 118 68  110 121 65  34  64  213 142 64  213 142 64  213 142 64  213 142 64  213 142 64  213 142 64  213 142 64  213 142 36  81  104 55  150 155 118 68  110 118 68  110 36  81  104 55  150 155 118 68  110 36  81  104 64  213 142 64  213 142 64  213 142 64  213 142 64  213 142 64  213 142 64  213 142 64  213 142 55  150 155 55  150 155 55  150 155 55  150 155 55  150 155 55  150 155 55  150 155 55  150 155 52  119 80  52  119 80  36  81  104 55  150 155 55  150 155 52  119 80  52  119 80  52  119 80  52  119 80  52  119 80  52  119 80  52  119 80  52  119 80  52  119 80  52  119 80  52  119 80  25  23  22  25  23  22  30  36  49  25  23  22  25  23  22  30  36  49  25  23  22  30  36  49  30  36  49  53  41  29  30  36  49  30  36  49  30  36  49  53  41  29  53  41  29  53  41  29  36  81  104 36  81  104 52  119 80  52  119 80  36  81  104 36  81  104 52  119 80  52  119 80  
41  71  45  52  119 80  52  119 80  41  71  45  41  71  45  52  119 80  52  119 80  52  119 80  85  46  65  85  46  65  85  46  65  85  46  65  85  46  65  85  46  65  85  46  65  30  36  49  52  119 80  83  137 71  83  137 71  53  41  29  85  46  65  85  46  65  83  137 71  52  119 80  64  213 142 64  213 142 64  213 142 64  213 142 64  213 142 64  213 142 64  213 142 64  213 142 36  81  104 118 68  110 36  81  104 36  81  104 36  81  104 118 68  110 36  81  104 36  81  104 64  213 142 64  213 142 64  213 142 64  213 142 64  213 142 64  213 142 64  213 142 64  213 142 55  150 155 55  150 155 55  150 155 55  150 155 55  150 155 55  150 155 55  150 155 55  150 155 52  119 80  52  119 80  36  81  104 36  81  104 36  81  104 36  81  104 52  119 80  52  119 80  36  81  104 52  119 80  52  119 80  52  119 80  52  119 80  52  119 80  52  119 80  36  81  104 25  23  22  25  23  22  25  23  22  25  23  22  25  23  22  25  23  22  30  36  49  25  23  22  25  23  22  53  41  29  53  41  29  53  41  29  30  36  49  53  41  29  53  41  29  53  41  29  36  81  104 52  119 80  52  119 80  36  81  104 36  81  104 52  119 80  52  119 80  36  81  104 
36  81  104 36  81  104 36  81  104 36  81  104 36  81  104 36  81  104 36  81  104 36  81  104 36  81  104 36  81  104 36  81  104 220 239 248 220 239 248 36  81  104 36  81  104 36  81  104 36  81  104 36  81  104 36  81  104 220 239 248 220 239 248 36  81  104 36  81  104 36  81  104 36  81  104 36  81  104 36  81  104 220 239 248 220 239 248 220 239 248 220 239 248 220 239 248 220 239 248 220 239 248 220 239 248 220 239 248 220 239 248 220 239 248 220 239 248 220 239 248 220 239 248 220 239 248 220 239 248 220 239 248 220 239 248 36  81  104 36  81  104 36  81  104 36  81  104 36  81  104 36  81  104 220 239 248 220 239 248 220 239 248 220 239 248 220 239 248 220 239 248 220 239 248 220 239 248 220 239 248 220 239 248 36  81  104 36  81  104 36  81  104 0   0   0   0   0   0   0   0   0   0   0   0   0   0   0   0   0   0   0   0   0   0   0   0   0   0   0   0   0   0   0   0   0   0   0   0   0   0   0   0   0   0   0   0   0   0   0   0   0   0   0   0   0   0   0   0   0   0   0   0   0   0   0   0   0   0   0   0   0   0   0   0   0   0   0   0   0   0   0   0   0   0   0   0   0   0   0   0   0   0   0   0   0   0   0   0   
30  36  49  53  41  29  30  36  49  30  36  49  30  36  49  36  81  104 30  36  49  30  36  49  36  81  104 36  81  104 36  81  104 220 239 248 220 239 248 36  81  104 36  81  104 36  81  104 36  81  104 36  81  104 36  81  104 220 239 248 220 239 248 36  81  104 36  81  104 36  81  104 36  81  104 36  81  104 36  81  104 220 239 248 220 239 248 220 239 248 220 239 248 220 239 248 220 239 248 220 239 248 220 239 248 220 239 248 220 239 248 220 239 248 220 239 248 220 239 248 220 239 248 220 239 248 220 239 248 220 239 248 220 239 248 36  81  104 36  81  104 36  81  104 36  81  104 36  81  104 36  81  104 220 239 248 220 239 248 220 239 248 220 239 248 220 239 248 220 239 248 220 239 248 220 239 248 220 239 248 220 239 248 36  81  104 36  81  104 36  81  104 0   0   0   0   0   0   0   0   0   0   0   0   0   0   0   0   0   0   0   0   0   0   0   0   0   0   0   0   0   0   0   0   0   0   0   0   0   0   0   0   0   0   0   0   0   0   0   0   0   0   0   0   0   0   0   0   0   0   0   0   0   0   0   0   0   0   0   0   0   0   0   0   0   0   0   0   0   0   0   0   0   0   0   0   0   0   0   0   0   0   0   0   0   0   0   0   
30  36  49  53  41  29  30  36  49  30  36  49  30  36  49  53  41  29  30  36  49  30  36  49  36  81  104 36  81  104 36  81  104 156 198 217 156 198 217 36  81  104 36  81  104 36  81  104 36  81  104 36  81  104 36  81  104 220 239 248 220 239 248 36  81  104 36  81  104 36  81  104 36  81  104 36  81  104 36  81  104 220 239 248 220 239 248 156 198 217 156 198 217 220 239 248 156 198 217 220 239 248 156 198 217 156 198 217 220 239 248 156 198 217 220 239 248 156 198 217 156 198 217 220 239 248 156 198 217 220 239 248 220 239 248 36  81  104 36  81  104 36  81  104 36  81  104 36  81  104 36  81  104 156 198 217 156 198 217 220 239 248 156 198 217 220 239 248 156 198 217 156 198 217 220 239 248 156 198 217 220 239 248 36  81  104 36  81  104 36  81  104 0   0   0   0   0   0   0   0   0   0   0   0   0   0   0   0   0   0   0   0   0   0   0   0   0   0   0   0   0   0   0   0   0   0   0   0   0   0   0   0   0   0   0   0   0   0   0   0   0   0   0   0   0   0   0   0   0   0   0   0   0   0   0   0   0   0   0   0   0   0   0   0   0   0   0   0   0   0   0   0   0   0   0   0   0   0   0   0   0   0   0   0   0   0   0   0   
30  36  49  30  36  49  30  36  49  30  36  49  25  23  22  53  41  29  30  36  49  30  36  49  36  81  104 36  81  104 36  81  104 156 198 217 220 239 248 36  81  104 36  81  104 36  81  104 36  81  104 36  81  104 36  81  104 220 239 248 220 239 248 36  81  104 36  81  104 36  81  104 36  81  104 36  81  104 36  81  104 220 239 248 220 239 248 156 198 217 220 239 248 156 198 217 156 198 217 156 198 217 156 198 217 220 239 248 156 198 217 220 239 248 156 198 217 156 198 217 220 239 248 156 198 217 156 198 217 220 239 248 220 239 248 36  81  104 36  81  104 36  81  104 36  81  104 36  81  104 36  81  104 156 198 217 220 239 248 156 198 217 156 198 217 156 198 217 220 239 248 156 198 217 156 198 217 220 239 248 156 198 217 36  81  104 36  81  104 36  81  104 0   0   0   0   0   0   0   0   0   0   0   0   0   0   0   0   0   0   0   0   0   0   0   0   0   0   0   0   0   0   0   0   0   0   0   0   0   0   0   0   0   0   0   0   0   0   0   0   0   0   0   0   0   0   0   0   0   0   0   0   0   0   0   0   0   0   0   0   0   0   0   0   0   0   0   0   0   0   0   0   0   0   0   0   0   0   0   0   0   0   0   0   0   0   0   0   
25  23  22  30  36  49  30  36  49  30  36  49  25  23  22  30  36  49  30  36  49  30  36  49  36  81  104 36  81  104 36  81  104 156 198 217 156 198 217 36  81  104 36  81  104 36  81  104 36  81  104 36  81  104 36  81  104 220 239 248 220 239 248 36  81  104 36  81  104 36  81  104 36  81  104 36  81  104 36  81  104 220 239 248 220 239 248 220 239 248 156 198 217 156 198 217 156 198 217 156 198 217 220 239 248 156 198 217 220 239 248 156 198 217 156 198 217 156 198 217 156 198 217 156 198 217 220 239 248 220 239 248 220 239 248 36  81  104 36  81  104 36  81  104 36  81  104 36  81  104 36  81  104 220 239 248 156 198 217 156 198 217 156 198 217 220 239 248 156 198 217 156 198 217 220 239 248 156 198 217 156 198 217 36  81  104 36  81  104 36  81  104 0   0   0   0   0   0   0   0   0   0   0   0   0   0   0   0   0   0   0   0   0   0   0   0   0   0   0   0   0   0   0   0   0   0   0   0   0   0   0   0   0   0   0   0   0   0   0   0   0   0   0   0   0   0   0   0   0   0   0   0   0   0   0   0   0   0   0   0   0   0   0   0   0   0   0   0   0   0   0   0   0   0   0   0   0   0   0   0   0   0   0   0   0   0   0   0   
30  36  49  30  36  49  30  36  49  30  36  49  30  36  49  53  41  29  53  41  29  53  41  29  36  81  104 36  81  104 36  81  104 156 198 217 220 239 248 36  81  104 36  81  104 36  81  104 36  81  104 36  81  104 36  81  104 220 239 248 220 239 248 36  81  104 36  81  104 36  81  104 36  81  104 36  81  104 36  81  104 220 239 248 220 239 248 156 198 217 156 198 217 156 198 217 156 198 217 220 239 248 156 198 217 220 239 248 156 198 217 156 198 217 220 239 248 156 198 217 156 198 217 220 239 248 156 198 217 220 239 248 220 239 248 36  81  104 36  81  104 36  81  104 36  81  104 36  81  104 36  81  104 156 198 217 156 198 217 156 198 217 220 239 248 156 198 217 156 198 217 220 239 248 156 198 217 156 198 217 156 198 217 36  81  104 36  81  104 36  81  104 0   0   0   0   0   0   0   0   0   0   0   0   0   0   0   0   0   0   0   0   0   0   0   0   0   0   0   0   0   0   0   0   0   0   0   0   0   0   0   0   0   0   0   0   0   0   0   0   0   0   0   0   0   0   0   0   0   0   0   0   0   0   0   0   0   0   0   0   0   0   0   0   0   0   0   0   0   0   0   0   0   0   0   0   0   0   0   0   0   0   0   0   0   0   0   0   
30  36  49  53  41  29  30  36  49  30  36  49  30  36  49  53  41  29  53  41  29  53  41  29  36  81  104 36  81  104 36  81  104 220 239 248 156 198 217 36  81  104 36  81  104 36  81  104 36  81  104 36  81  104 36  81  104 220 239 248 220 239 248 36  81  104 36  81  104 36  81  104 36  81  104 36  81  104 36  81  104 220 239 248 220 239 248 220 239 248 156 198 217 156 198 217 220 239 248 156 198 217 220 239 248 156 198 217 156 198 217 156 198 217 156 198 217 156 198 217 156 198 217 156 198 217 156 198 217 220 239 248 220 239 248 36  81  104 36  81  104 36  81  104 36  81  104 36  81  104 36  81  104 156 198 217 220 239 248 156 198 217 156 198 217 156 198 217 220 239 248 156 198 217 156 198 217 156 198 217 220 239 248 36  81  104 36  81  104 36  81  104 0   0   0   0   0   0   0   0   0   0   0   0   0   0   0   0   0   0   0   0   0   0   0   0   0   0   0   0   0   0   0   0   0   0   0   0   0   0   0   0   0   0   0   0   0   0   0   0   0   0   0   0   0   0   0   0   0   0   0   0   0   0   0   0   0   0   0   0   0   0   0   0   0   0   0   0   0   0   0   0   0   0   0   0   0   0   0   0   0   0   0   0   0   0   0   0   
25  23  22  53  41  29  53  41  29  53  41  29  30  36  49  53  41  29  53  41  29  53  41  29  36  81  104 36  81  104 36  81  104 156 198 217 156 198 217 36  81  104 36  81  104 36  81  104 36  81  104 36  81  104 36  81  104 220 239 248 220 239 248 36  81  104 36  81  104 36  81  104 36  81  104 36  81  104 36  81  104 220 239 248 220 239 248 156 198 217 156 198 217 220 239 248 156 198 217 220 239 248 156 198 217 156 198 217 220 239 248 156 198 217 156 198 217 220 239 248 156 198 217 220 239 248 156 198 217 220 239 248 220 239 248 36  81  104 36  81  104 36  81  104 36  81  104 36  81  104 36  81  104 220 239 248 156 198 217 156 198 217 156 198 217 220 239 248 156 198 217 156 198 217 156 198 217 220 239 248 156 198 217 36  81  104 36  81  104 36  81  104 0   0   0   0   0   0   0   0   0   0   0   0   0   0   0   0   0   0   0   0   0   0   0   0   0   0   0   0   0   0   0   0   0   0   0   0   0   0   0   0   0   0   0   0   0   0   0   0   0   0   0   0   0   0   0   0   0   0   0   0   0   0   0   0   0   0   0   0   0   0   0   0   0   0   0   0   0   0   0   0   0   0   0   0   0   0   0   0   0   0   0   0   0   0   0   0   
