P3
40 40
255
0   0   0   0   0   0   0   0   0   0   0   0   38  23  29  40  23  31  43  26  34  46  27  35  48  28  39  52  29  41  55  31  43  57  32  46  59  32  48  62  34  47  65  35  48  66  36  50  67  35  51  69  36  51  70  37  52  71  37  52  72  36  51  75  36  52  78  37  53  78  37  54  79  36  54  80  36  54  81  36  56  82  36  57  82  36  57  83  36  57  83  36  57  83  36  57  82  36  56  81  36  56  80  34  54  80  33  54  0   0   0   0   0   0   0   0   0   0   0   0   
0   0   0   0   0   0   0   0   0   34  20  28  37  22  29  39  23  30  41  25  31  44  26  33  48  26  38  51  29  40  55  31  41  56  31  43  58  31  45  60  32  45  63  34  45  66  35  46  66  35  47  67  36  49  68  36  49  69  36  50  72  35  50  74  35  50  76  35  51  77  35  52  78  35  52  79  35  52  80  34  53  81  36  54  80  36  54  81  35  53  81  35  55  81  35  54  81  35  54  81  35  55  80  34  53  79  32  53  77  31  51  0   0   0   0   0   0   0   0   0   
0   0   0   0   0   0   33  19  25  34  19  26  36  21  29  38  22  29  41  23  29  44  25  31  47  25  36  49  27  39  53  29  39  55  30  41  56  29  42  59  31  43  62  32  44  64  33  45  65  33  44  67  33  44  67  34  46  68  33  47  71  33  49  73  33  49  75  34  49  76  33  49  77  34  50  78  33  51  79  33  51  79  34  52  79  33  51  79  33  51  79  33  53  79  33  53  79  33  52  79  33  53  78  32  52  77  31  51  76  30  50  75  29  49  0   0   0   0   0   0   
0   0   0   30  18  22  32  18  24  33  19  25  36  21  29  37  22  29  40  23  29  43  23  30  45  25  34  48  26  38  51  28  38  54  29  39  56  29  41  59  31  43  61  32  43  63  32  44  65  33  44  67  33  43  67  33  45  69  32  46  71  32  47  73  32  48  75  33  48  76  33  48  76  33  49  78  32  50  79  33  51  78  32  50  78  32  50  80  32  51  79  32  51  78  32  51  78  32  51  77  32  51  77  30  51  77  30  49  75  29  48  74  28  48  74  28  47  0   0   0   
27  18  21  28  18  22  31  18  23  34  19  25  35  20  28  37  22  29  41  22  29  41  23  28  44  25  32  47  25  35  51  27  37  54  28  38  55  28  39  58  30  41  61  30  41  63  31  42  64  32  43  66  32  43  68  31  43  70  31  44  73  32  45  73  32  46  74  32  47  75  32  48  76  32  49  76  32  50  77  31  49  78  32  50  79  30  49  80  30  50  79  31  49  77  31  48  77  30  48  77  30  49  77  30  48  76  28  46  73  27  45  70  27  45  70  27  45  69  27  45  
26  17  20  27  18  21  29  17  22  33  18  24  34  19  26  36  21  27  39  22  28  41  23  28  44  24  31  47  25  33  50  26  35  52  27  35  54  27  37  57  29  38  60  29  40  62  30  41  63  29  41  66  29  41  69  30  43  71  30  43  72  30  43  73  30  44  74  30  45  75  31  46  76  31  47  77  30  48  79  29  46  79  30  46  79  30  46  80  28  47  80  28  47  78  29  46  77  29  46  76  30  46  76  28  46  75  28  45  72  27  45  69  27  44  66  26  43  64  25  42  
26  17  20  27  17  20  29  16  21  31  18  23  33  19  24  34  20  25  37  21  27  39  22  28  42  23  29  45  24  30  48  25  32  50  26  33  52  26  35  55  27  36  59  28  38  61  29  41  64  28  40  67  28  40  70  28  42  73  28  42  76  28  43  76  28  43  76  28  44  77  29  44  77  29  44  77  28  45  78  27  43  79  28  43  78  28  43  81  27  45  81  27  47  79  28  47  78  28  46  76  28  45  74  26  45  73  26  44  69  26  43  66  25  42  63  24  40  60  25  39  
26  16  20  26  17  20  29  17  21  31  17  22  32  19  23  35  19  25  37  20  26  38  21  27  40  23  29  43  24  29  47  24  31  49  26  32  51  27  35  55  27  36  57  27  37  60  27  39  64  27  39  67  27  39  69  26  40  72  26  41  75  25  41  76  26  42  77  26  42  78  26  43  78  26  43  78  26  43  79  26  43  78  26  43  77  27  44  79  27  44  79  27  45  77  27  46  75  27  46  73  27  45  71  27  44  68  27  43  65  26  41  63  26  40  59  24  38  56  24  36  
26  15  19  26  17  20  28  17  21  30  18  22  31  19  23  34  20  24  36  20  26  37  21  27  39  22  28  42  23  29  45  23  31  48  25  32  49  26  34  52  26  35  55  26  36  58  26  37  61  26  38  63  27  38  66  26  40  68  26  41  70  26  41  71  26  42  72  26  42  74  25  43  74  25  43  75  25  43  75  25  43  74  25  43  74  26  44  74  26  45  72  27  46  71  28  47  69  27  46  67  27  45  65  27  43  63  27  43  60  26  40  58  26  40  54  25  38  51  23  35  
26  15  19  26  17  20  27  17  21  29  18  22  30  18  22  32  19  23  35  21  25  35  21  26  37  22  28  40  23  30  43  25  30  45  25  32  47  26  34  49  27  36  51  26  36  54  26  37  55  26  37  55  26  37  58  26  38  61  26  40  64  26  42  65  26  42  67  26  43  68  26  43  68  26  43  69  26  44  70  26  45  70  26  45  70  26  46  69  27  46  67  28  46  66  28  47  64  28  47  63  29  46  61  28  45  58  26  42  54  25  40  52  24  39  50  24  38  48  23  36  
26  15  19  26  15  19  27  17  20  27  17  20  28  18  21  30  20  23  33  21  25  35  21  26  36  22  28  39  23  30  41  24  31  43  25  32  45  26  34  46  26  35  48  27  36  49  26  36  51  26  37  51  27  37  53  28  38  56  27  39  58  27  40  60  27  41  62  26  42  62  26  42  63  27  44  64  27  46  64  27  45  64  27  45  65  27  46  65  27  46  64  28  47  62  28  48  59  28  48  58  28  46  56  27  43  53  25  42  48  25  39  48  24  37  47  23  35  45  22  34  
25  15  18  26  15  19  27  16  20  28  16  20  28  18  21  29  19  22  31  20  24  33  21  26  35  22  28  39  22  30  43  22  31  46  23  31  47  24  33  47  26  36  47  27  36  47  28  36  48  27  38  48  28  38  50  28  39  52  29  40  53  28  40  56  28  41  58  27  43  59  27  43  59  27  44  60  28  45  61  28  47  61  28  46  62  27  45  63  27  46  61  27  47  60  26  47  57  27  49  54  28  46  51  27  42  49  25  40  45  24  37  45  24  35  44  23  34  42  22  33  
24  14  17  26  15  19  27  16  20  29  17  21  28  17  21  29  19  22  30  20  24  33  31  37  73  75  92  90  68  88  110 55  76  118 47  69  131 45  67  99  36  54  54  27  37  47  29  36  48  28  38  48  27  40  50  29  40  52  29  42  52  29  44  53  29  44  56  28  44  58  27  44  58  28  45  59  29  45  62  28  46  88  30  55  129 37  74  137 40  80  149 45  89  151 49  93  125 43  85  58  28  51  48  27  42  45  25  39  42  24  36  41  22  33  39  23  31  38  22  31  
24  14  17  25  15  18  26  17  20  28  17  21  29  17  21  29  19  22  29  20  22  19  13  16  55  66  80  81  91  113 77  67  91  47  29  47  62  18  30  133 41  61  97  35  49  55  29  38  49  29  40  51  28  40  52  29  41  53  30  44  53  30  48  55  30  47  57  30  46  58  29  46  58  29  46  62  29  46  94  29  54  132 36  72  86  22  50  111 33  74  177 60  122 186 67  129 110 42  81  48  25  44  46  26  40  43  24  37  40  22  34  39  22  31  37  20  30  36  20  29  
23  14  16  24  15  18  25  17  20  26  17  20  28  17  21  30  19  22  31  20  23  25  11  15  26  25  32  59  90  108 66  106 129 48  57  74  25  12  17  69  18  26  143 41  58  101 34  46  53  28  41  53  29  42  53  30  43  54  30  47  55  30  49  57  31  48  59  32  48  59  31  48  60  29  46  96  29  53  149 37  70  86  20  44  46  15  35  124 48  97  187 70  142 152 59  114 68  27  53  48  26  42  44  25  37  41  23  35  39  23  33  38  21  31  36  19  28  34  19  27  
22  14  16  24  15  18  26  17  20  25  17  20  28  17  21  29  19  22  31  21  25  27  15  20  18  8   13  33  53  62  65  127 149 70  117 137 42  35  49  25  8   13  86  27  35  164 48  68  88  30  46  59  29  43  56  30  46  57  31  49  57  32  50  58  32  50  59  33  50  58  34  49  87  30  52  161 42  73  110 26  48  48  14  31  114 47  92  187 80  152 170 68  131 74  25  52  55  23  42  51  27  43  43  25  37  40  23  33  39  22  32  36  21  31  34  20  28  31  19  25  
22  14  15  24  14  17  25  16  19  25  17  20  27  18  20  29  19  23  32  22  27  30  21  27  16  7   12  13  12  18  46  94  107 74  151 172 74  101 124 43  33  46  18  6   9   95  28  36  176 53  72  101 35  49  67  33  50  61  34  50  61  35  51  61  35  52  62  35  50  89  34  53  177 49  79  122 31  52  52  14  27  104 43  63  208 94  160 190 80  151 86  30  63  31  11  21  37  19  30  45  26  40  41  26  38  39  24  34  37  21  32  35  21  31  34  20  28  31  19  25  
22  14  16  24  14  17  25  15  19  26  17  20  27  18  21  27  20  23  30  23  28  31  23  31  24  16  22  14  7   11  18  30  36  61  123 140 92  130 157 90  76  96  53  25  33  28  5   8   133 39  49  172 53  70  103 39  57  72  37  51  69  37  53  72  36  53  105 40  59  178 57  84  133 37  58  55  12  23  95  43  40  205 103 99  225 97  136 138 57  97  43  13  31  32  16  27  38  26  39  43  29  44  39  28  39  36  24  34  35  22  31  33  21  29  32  20  26  30  18  24  
21  14  16  22  14  16  23  16  18  25  17  20  26  19  21  27  20  23  29  23  28  30  24  31  30  24  30  23  16  21  14  7   11  24  42  51  97  128 141 170 134 106 149 91  66  65  25  24  46  10  12  138 40  49  172 57  71  104 42  57  86  39  56  119 47  67  186 65  91  142 42  61  55  14  24  84  43  35  186 142 96  235 154 130 177 86  95  60  22  34  38  18  30  41  27  39  42  34  48  41  33  47  37  29  39  35  26  32  33  22  29  31  20  27  30  18  25  29  17  23  
21  14  16  22  15  16  23  16  18  24  17  20  26  18  22  27  20  24  28  23  27  30  24  30  31  26  32  30  23  30  21  14  18  10  8   11  60  72  65  205 185 75  233 184 58  153 96  59  51  15  16  55  12  14  164 57  67  177 68  90  127 52  81  192 93  126 143 49  68  62  16  25  71  29  32  159 125 77  231 204 161 218 157 149 72  30  37  42  19  31  42  30  42  43  36  48  42  36  50  40  33  47  37  29  40  34  26  32  32  22  29  30  20  27  29  17  24  29  16  23  
21  14  15  22  15  17  22  16  18  24  17  20  25  19  22  26  20  24  28  23  27  29  24  30  31  26  32  32  26  34  32  24  31  22  14  18  17  17  20  113 120 66  229 222 87  233 219 143 136 88  70  59  19  22  62  15  20  172 67  87  205 105 142 142 80  109 57  18  30  68  22  33  148 84  60  229 179 124 222 174 147 102 67  63  39  22  35  46  31  46  45  38  52  42  40  52  41  37  50  40  34  46  36  29  40  34  25  33  30  23  28  30  21  26  29  18  24  29  16  23  
21  14  15  22  15  17  22  16  19  24  18  21  25  19  23  25  20  24  27  23  27  28  25  31  29  26  34  32  28  36  33  29  37  32  25  32  21  14  19  42  44  40  162 168 93  222 235 157 210 194 169 123 76  69  50  15  20  67  16  24  117 46  65  62  21  33  67  21  30  124 46  55  221 117 113 234 146 143 153 97  91  54  28  32  47  32  45  47  38  52  44  41  54  41  41  53  39  37  50  37  34  45  33  29  38  31  26  32  30  23  28  30  21  26  28  18  24  28  16  23  
21  13  17  22  15  18  22  17  21  22  18  22  24  20  24  24  21  25  26  23  28  27  26  32  29  27  35  30  29  38  32  30  39  34  29  37  34  24  29  22  15  21  65  72  56  168 180 114 206 232 214 183 166 160 94  56  65  50  17  25  47  13  21  68  23  32  125 44  51  215 92  96  243 119 130 187 103 116 71  36  43  48  30  37  47  38  50  44  41  54  41  42  56  40  41  54  37  37  50  36  32  43  32  28  36  31  26  31  29  22  28  29  20  25  27  18  23  27  17  23  
21  15  18  22  15  19  22  17  21  22  18  22  24  20  24  24  21  24  26  23  27  27  26  31  28  27  34  30  29  37  31  29  37  33  29  37  37  28  34  31  20  26  20  16  19  79  97  93  140 186 176 185 223 226 146 139 151 83  47  58  67  28  37  93  35  47  188 85  99  246 116 127 223 110 112 100 50  57  46  26  34  46  34  43  44  40  50  42  42  55  40  40  56  38  39  53  36  35  47  35  32  41  32  27  36  30  25  31  28  22  27  27  19  24  27  17  23  26  16  22  
22  15  18  22  15  20  23  17  22  23  18  22  24  21  24  24  21  24  26  23  27  27  26  31  28  27  34  28  27  34  30  27  36  32  28  36  35  27  34  37  27  31  31  19  22  20  20  26  105 103 107 165 185 186 194 221 234 138 113 133 94  42  56  156 73  91  240 126 160 242 114 130 117 56  55  39  22  28  43  29  38  43  33  44  42  39  50  40  41  52  38  40  52  36  38  50  35  34  45  33  31  40  30  26  35  29  23  31  26  21  26  26  19  24  25  17  22  24  16  21  
21  14  18  22  15  20  23  17  22  22  18  22  23  20  23  24  21  24  26  23  27  26  25  31  28  27  34  28  27  34  29  28  35  30  27  35  33  26  34  36  27  32  36  26  30  25  18  20  40  38  44  107 120 130 160 199 219 188 189 215 157 97  113 217 110 122 241 111 123 172 78  75  44  21  25  40  26  32  41  30  38  41  33  41  40  37  47  38  39  49  37  38  49  34  36  47  33  32  43  31  29  37  28  25  32  28  22  29  25  20  26  25  19  24  25  17  22  23  16  21  
21  14  17  22  15  20  22  17  21  23  18  22  23  20  23  23  20  23  25  22  25  24  24  29  26  25  32  27  26  33  28  27  34  28  27  34  31  25  32  34  26  31  35  27  30  33  25  28  19  16  18  52  57  64  109 147 164 150 185 211 202 151 168 236 131 121 204 103 86  79  36  32  41  22  26  40  27  32  39  29  36  39  32  39  38  35  44  36  36  47  34  35  47  33  34  43  31  30  39  29  27  34  27  25  30  26  22  27  24  19  25  24  18  23  25  17  22  23  16  21  
20  16  17  21  15  19  21  16  20  21  17  22  22  19  22  23  20  23  24  22  25  24  24  27  25  25  30  27  26  31  27  26  32  28  26  32  28  24  31  31  25  31  32  25  29  34  25  28  27  18  22  24  23  25  60  84  98  102 145 167 169 130 136 217 123 98  127 62  46  49  23  23  41  24  28  38  27  32  36  29  34  36  30  36  35  32  40  33  33  42  33  32  42  32  31  39  31  29  35  28  26  31  26  23  27  25  21  24  24  19  23  23  19  22  23  17  21  21  15  19  
20  16  17  21  15  19  21  16  20  21  17  21  21  19  22  23  20  23  24  21  24  23  23  26  24  24  27  26  25  29  26  25  30  26  24  30  27  24  30  28  24  29  30  23  28  31  23  26  32  22  25  20  12  15  30  41  50  64  93  114 115 107 116 122 73  58  51  21  20  39  20  23  38  23  28  35  25  30  32  27  31  32  29  32  33  30  34  33  30  36  32  30  36  31  28  34  31  27  33  28  25  29  25  22  26  24  20  23  24  19  22  23  18  22  22  17  20  22  15  18  
19  15  15  21  16  17  21  16  19  21  17  21  21  19  22  22  20  23  24  21  24  23  21  24  24  22  25  25  23  27  25  23  28  25  23  27  26  23  28  27  23  28  28  22  26  29  22  25  29  22  26  25  17  20  14  12  16  43  63  80  72  81  100 43  30  33  31  17  19  35  21  24  32  23  26  31  24  27  30  25  28  30  26  30  31  28  31  31  28  32  30  27  32  29  26  32  28  25  30  26  23  27  24  21  24  24  20  23  24  19  22  23  18  20  22  16  18  20  15  17  
18  15  14  20  16  15  21  16  17  21  16  19  21  18  19  21  19  21  22  19  22  22  21  23  23  20  24  23  21  25  23  22  25  24  22  25  24  21  25  25  21  25  26  20  24  27  20  23  27  20  23  27  20  22  17  11  13  13  15  22  33  35  43  23  15  18  29  19  21  32  20  23  30  21  24  28  23  24  28  23  26  28  25  29  29  26  29  29  26  29  28  24  28  27  24  28  26  23  26  25  21  25  24  19  22  23  18  22  22  17  21  21  16  18  20  15  16  19  15  16  
18  14  14  19  15  14  21  16  16  21  15  17  21  16  17  21  17  19  21  19  20  21  19  22  23  20  23  23  20  23  23  21  23  24  21  24  24  21  23  25  20  23  26  19  23  26  20  22  26  20  22  27  20  22  22  15  17  12  6   8   15  11  13  24  17  19  27  19  21  29  20  22  28  20  22  26  21  23  27  21  24  27  23  27  28  24  27  27  23  26  27  21  25  25  22  25  24  20  23  24  19  22  22  18  20  21  17  20  21  16  18  20  16  17  19  15  16  18  16  15  
18  14  15  18  14  14  20  16  15  21  16  17  21  16  17  21  16  17  21  17  18  20  17  21  21  19  22  22  18  22  23  18  22  23  18  22  23  18  22  23  18  20  24  18  20  25  18  20  25  18  21  26  18  21  24  16  19  21  14  16  20  14  16  23  16  18  25  18  20  26  19  21  26  19  21  25  19  21  25  20  22  26  21  24  25  21  24  25  20  24  25  20  24  24  19  22  23  18  22  22  18  20  21  17  18  21  16  17  20  16  17  19  15  16  18  15  15  18  15  15  
18  14  15  17  14  14  18  15  14  19  15  15  20  16  16  20  16  17  20  17  18  20  17  18  22  18  20  22  18  21  22  18  21  22  18  21  22  18  20  22  17  20  23  17  20  24  17  20  24  17  19  23  17  19  23  16  19  22  16  18  22  15  17  23  15  18  24  17  19  25  17  20  25  18  20  24  17  20  24  18  21  24  19  21  24  19  21  24  19  22  24  19  22  23  18  21  23  18  21  22  17  19  21  16  17  20  16  17  19  15  16  19  15  15  18  14  15  18  14  14  
18  15  15  17  15  16  17  14  15  17  14  14  18  14  14  19  15  15  20  15  16  20  16  17  21  16  17  21  16  18  20  17  18  20  17  18  20  17  18  20  18  19  21  17  18  22  15  18  22  15  17  22  15  17  22  15  18  22  15  17  21  15  17  22  15  17  22  15  17  24  16  19  23  16  18  22  15  18  23  16  18  22  17  19  22  17  19  22  17  19  22  17  19  21  17  19  21  17  18  21  16  18  20  15  16  18  14  15  18  14  14  18  14  15  17  14  14  17  14  14  
18  14  15  17  14  15  17  14  15  17  14  15  17  14  15  17  14  15  17  14  14  19  15  16  19  15  16  19  15  16  19  15  16  19  15  16  19  15  16  19  16  17  19  15  16  21  15  16  22  15  17  22  15  17  21  14  16  21  14  16  21  14  16  20  14  16  20  13  15  22  14  17  21  14  16  21  14  16  22  15  17  22  15  17  22  16  17  21  16  17  21  16  17  21  16  17  20  15  16  19  15  16  19  15  16  18  14  15  18  14  15  18  14  15  18  14  15  18  14  15  
0   0   0   17  13  14  18  14  15  17  14  15  17  14  15  17  14  15  17  14  14  18  14  14  18  14  15  19  15  15  19  15  14  19  15  15  19  15  15  19  15  14  19  14  16  21  14  16  21  14  16  21  14  16  21  14  16  21  14  16  19  13  15  20  13  15  20  13  15  22  13  15  22  13  16  21  14  16  21  14  16  21  14  16  22  15  16  21  16  17  20  16  16  20  15  16  19  15  15  18  15  16  18  14  15  18  14  15  18  14  15  18  14  14  17  14  15  0   0   0   
0   0   0   0   0   0   17  12  14  17  13  14  17  14  15  17  14  15  17  14  15  17  14  15  17  14  15  17  14  15  18  15  16  18  15  16  18  15  16  18  15  16  18  15  16  19  15  16  19  15  16  21  14  16  21  14  16  20  14  15  19  13  15  19  13  15  20  13  15  20  13  15  20  13  15  20  13  15  20  13  15  20  14  16  21  14  16  21  14  15  19  15  16  19  15  15  18  14  15  18  14  15  17  14  15  18  14  14  17  14  14  18  14  15  0   0   0   0   0   0   
0   0   0   0   0   0   0   0   0   17  12  14  17  13  14  17  13  14  17  14  15  17  14  15  17  14  15  17  14  15  17  14  15  17  14  15  17  14  15  17  14  15  17  14  15  17  14  15  18  14  15  20  13  15  20  13  15  20  13  15  19  13  14  19  13  14  19  13  14  19  12  14  20  13  15  20  13  14  19  12  14  20  13  15  20  13  15  20  13  15  18  14  15  18  14  15  18  14  14  17  14  15  17  13  14  18  14  15  17  14  15  0   0   0   0   0   0   0   0   0   
0   0   0   0   0   0   0   0   0   0   0   0   17  12  14  17  13  14  18  14  15  17  14  15  17  14  15  17  14  15  17  14  15  17  14  15  17  14  15  17  14  15  17  14  14  17  14  14  19  14  15  20  13  14  19  12  14  19  13  14  19  13  14  19  13  14  19  12  14  19  12  14  20  13  14  19  12  14  19  12  14  19  12  14  19  13  15  18  13  15  16  12  14  18  13  14  17  13  14  17  13  14  17  13  14  17  13  14  0   0   0   0   0   0   0   0   0   0   0   0   
